solid crosshair
facet normal 0.0 0.0 -1.0
outer loop
vertex -2.0 2.0 0.0
vertex -1.5 1.5 0.0
vertex -2.0 0.5 0.0
endloop
endfacet
facet normal 0.0 0.0 -1.0
outer loop
vertex -1.5 1.5 0.0
vertex -2.0 2.0 0.0
vertex -0.5 2.0 0.0
endloop
endfacet
facet normal 0.0 0.0 -1.0
outer loop
vertex -2.0 0.5 0.0
vertex -1.5 1.5 0.0
vertex -2.0 -0.5 0.0
endloop
endfacet
facet normal 0.0 0.0 -1.0
outer loop
vertex -2.0 -0.5 0.0
vertex -1.5 1.5 0.0
vertex -2.0 -2.0 0.0
endloop
endfacet
facet normal 0.0 0.0 -1.0
outer loop
vertex -1.5 1.5 0.0
vertex -0.5 2.0 0.0
vertex 1.5 1.5 0.0
endloop
endfacet
facet normal 0.0 0.0 -1.0
outer loop
vertex 1.5 1.5 0.0
vertex -0.5 2.0 0.0
vertex 0.5 2.0 0.0
endloop
endfacet
facet normal 0.0 0.0 -1.0
outer loop
vertex 0.5 2.0 0.0
vertex -0.5 2.0 0.0
vertex 0.5 5.19374094948128 0.0
endloop
endfacet
facet normal 0.0 0.0 -1.0
outer loop
vertex 1.5 1.5 0.0
vertex 0.5 2.0 0.0
vertex 2.0 2.0 0.0
endloop
endfacet
facet normal 0.0 0.0 -1.0
outer loop
vertex 1.5 1.5 0.0
vertex 2.0 2.0 0.0
vertex 1.5 -1.5 0.0
endloop
endfacet
facet normal 0.0 0.0 -1.0
outer loop
vertex 5.2217372545419 0.5 0.0
vertex 2.0 -0.5 0.0
vertex 2.0 0.5 0.0
endloop
endfacet
facet normal 0.0 0.0 -1.0
outer loop
vertex 2.0 -0.5 0.0
vertex 5.2217372545419 0.5 0.0
vertex 5.19344768359402 -0.5 0.0
endloop
endfacet
facet normal 0.0 0.0 -1.0
outer loop
vertex -6.42682918071953 5.21403589949434 0.0
vertex -5.18461415251387 0.826000054208795 0.0
vertex -5.22173725454191 -0.5 0.0
endloop
endfacet
facet normal 0.0 0.0 -1.0
outer loop
vertex -5.18461415251387 0.826000054208795 0.0
vertex -6.42682918071953 5.21403589949434 0.0
vertex -4.85834849416782 6.69975772611078 0.0
endloop
endfacet
facet normal 0.0 0.0 -1.0
outer loop
vertex -5.22173725454191 -0.5 0.0
vertex -5.18461415251387 0.826000054208795 0.0
vertex -5.19374094948128 0.5 0.0
endloop
endfacet
facet normal 0.0 0.0 -1.0
outer loop
vertex -5.18461415251387 0.826000054208795 0.0
vertex -4.85834849416782 6.69975772611078 0.0
vertex -4.98429882772632 1.5 0.0
endloop
endfacet
facet normal 0.0 0.0 -1.0
outer loop
vertex -4.98429882772632 1.5 0.0
vertex -4.85834849416782 6.69975772611078 0.0
vertex -4.92485807375047 1.7 0.0
endloop
endfacet
facet normal 0.0 0.0 -1.0
outer loop
vertex -4.92485807375047 1.7 0.0
vertex -4.85834849416782 6.69975772611078 0.0
vertex -4.794168163972 2.1397316690551 0.0
endloop
endfacet
facet normal 0.0 0.0 -1.0
outer loop
vertex -4.794168163972 2.1397316690551 0.0
vertex -4.85834849416782 6.69975772611078 0.0
vertex -2.95877938653908 7.72890213556591 0.0
endloop
endfacet
facet normal 0.0 0.0 -1.0
outer loop
vertex -4.794168163972 2.1397316690551 0.0
vertex -2.95877938653908 7.72890213556591 0.0
vertex -4.07700753779294 3.30764410672907 0.0
endloop
endfacet
facet normal 0.0 0.0 -1.0
outer loop
vertex -4.07700753779294 3.30764410672907 0.0
vertex -2.95877938653908 7.72890213556591 0.0
vertex -3.0820055854868 4.25014606466979 0.0
endloop
endfacet
facet normal 0.0 0.0 -1.0
outer loop
vertex -3.0820055854868 4.25014606466979 0.0
vertex -2.95877938653908 7.72890213556591 0.0
vertex -1.87697004578479 4.90300759200173 0.0
endloop
endfacet
facet normal 0.0 0.0 -1.0
outer loop
vertex -1.87697004578479 4.90300759200173 0.0
vertex -2.95877938653908 7.72890213556591 0.0
vertex -2.39768079739195 7.8630699884386 0.0
endloop
endfacet
facet normal 0.0 0.0 -1.0
outer loop
vertex -1.87697004578479 4.90300759200173 0.0
vertex -2.39768079739195 7.8630699884386 0.0
vertex -2.19768079739196 7.91089326066483 0.0
endloop
endfacet
facet normal 0.0 0.0 -1.0
outer loop
vertex -1.87697004578479 4.90300759200173 0.0
vertex -2.19768079739196 7.91089326066483 0.0
vertex -0.857574353331827 8.23133463709691 0.0
endloop
endfacet
facet normal 0.0 0.0 -1.0
outer loop
vertex -1.87697004578479 4.90300759200173 0.0
vertex -0.857574353331827 8.23133463709691 0.0
vertex -1.7 4.94532402537901 0.0
endloop
endfacet
facet normal 0.0 0.0 -1.0
outer loop
vertex -1.7 4.94532402537901 0.0
vertex -0.857574353331827 8.23133463709691 0.0
vertex -1.5 4.99314729760524 0.0
endloop
endfacet
facet normal 0.0 0.0 -1.0
outer loop
vertex -1.5 4.99314729760524 0.0
vertex -0.857574353331827 8.23133463709691 0.0
vertex -0.544022099302208 5.22173725454191 0.0
endloop
endfacet
facet normal 0.0 0.0 -1.0
outer loop
vertex -0.544022099302208 5.22173725454191 0.0
vertex -0.857574353331827 8.23133463709691 0.0
vertex 1.30207295484637 8.17281528603342 0.0
endloop
endfacet
facet normal 0.0 0.0 -1.0
outer loop
vertex -0.544022099302208 5.22173725454191 0.0
vertex 1.30207295484637 8.17281528603342 0.0
vertex -0.5 5.22173725454191 0.0
endloop
endfacet
facet normal 0.0 0.0 -1.0
outer loop
vertex -0.5 5.22173725454191 0.0
vertex 1.30207295484637 8.17281528603342 0.0
vertex -0.5 2.0 0.0
endloop
endfacet
facet normal 0.0 0.0 -1.0
outer loop
vertex -0.5 2.0 0.0
vertex 1.30207295484637 8.17281528603342 0.0
vertex 0.5 5.19374094948128 0.0
endloop
endfacet
facet normal 0.0 0.0 -1.0
outer loop
vertex 0.5 5.19374094948128 0.0
vertex 1.30207295484637 8.17281528603342 0.0
vertex 0.826000054208795 5.18461415251387 0.0
endloop
endfacet
facet normal 0.0 0.0 -1.0
outer loop
vertex 0.826000054208795 5.18461415251387 0.0
vertex 1.30207295484637 8.17281528603342 0.0
vertex 1.5 4.98429882772632 0.0
endloop
endfacet
facet normal 0.0 0.0 -1.0
outer loop
vertex 1.5 4.98429882772632 0.0
vertex 1.30207295484637 8.17281528603342 0.0
vertex 2.35466368725578 7.85998135222139 0.0
endloop
endfacet
facet normal 0.0 0.0 -1.0
outer loop
vertex 1.5 4.98429882772632 0.0
vertex 2.35466368725578 7.85998135222139 0.0
vertex 1.7 4.92485807375047 0.0
endloop
endfacet
facet normal 0.0 0.0 -1.0
outer loop
vertex 1.7 4.92485807375047 0.0
vertex 2.35466368725578 7.85998135222139 0.0
vertex 2.1397316690551 4.794168163972 0.0
endloop
endfacet
facet normal 0.0 0.0 -1.0
outer loop
vertex 2.1397316690551 4.794168163972 0.0
vertex 2.35466368725578 7.85998135222139 0.0
vertex 3.30764410672907 4.07700753779294 0.0
endloop
endfacet
facet normal 0.0 0.0 -1.0
outer loop
vertex 3.30764410672907 4.07700753779294 0.0
vertex 2.35466368725578 7.85998135222139 0.0
vertex 2.55466368725578 7.80054059824554 0.0
endloop
endfacet
facet normal 0.0 0.0 -1.0
outer loop
vertex 3.30764410672907 4.07700753779294 0.0
vertex 2.55466368725578 7.80054059824554 0.0
vertex 3.37298614292909 7.5573320794426 0.0
endloop
endfacet
facet normal 0.0 0.0 -1.0
outer loop
vertex 3.30764410672907 4.07700753779294 0.0
vertex 3.37298614292909 7.5573320794426 0.0
vertex 4.25014606466979 3.08200558548681 0.0
endloop
endfacet
facet normal 0.0 0.0 -1.0
outer loop
vertex 4.25014606466979 3.08200558548681 0.0
vertex 3.37298614292909 7.5573320794426 0.0
vertex 5.21403589949432 6.42682918071954 0.0
endloop
endfacet
facet normal 0.0 0.0 -1.0
outer loop
vertex 4.25014606466979 3.08200558548681 0.0
vertex 5.21403589949432 6.42682918071954 0.0
vertex 4.90300759200174 1.87697004578479 0.0
endloop
endfacet
facet normal 0.0 0.0 -1.0
outer loop
vertex 4.90300759200174 1.87697004578479 0.0
vertex 5.21403589949432 6.42682918071954 0.0
vertex 5.2217372545419 0.544022099302206 0.0
endloop
endfacet
facet normal 0.0 0.0 -1.0
outer loop
vertex 5.2217372545419 0.544022099302206 0.0
vertex 5.21403589949432 6.42682918071954 0.0
vertex 6.69975772611078 4.85834849416782 0.0
endloop
endfacet
facet normal 0.0 0.0 -1.0
outer loop
vertex 5.2217372545419 0.544022099302206 0.0
vertex 6.69975772611078 4.85834849416782 0.0
vertex 5.2217372545419 0.5 0.0
endloop
endfacet
facet normal 0.0 0.0 -1.0
outer loop
vertex 5.2217372545419 0.5 0.0
vertex 6.69975772611078 4.85834849416782 0.0
vertex 6.42682918071953 -5.21403589949434 0.0
endloop
endfacet
facet normal 0.0 0.0 -1.0
outer loop
vertex 6.42682918071953 -5.21403589949434 0.0
vertex 6.69975772611078 4.85834849416782 0.0
vertex 7.5573320794426 -3.37298614292909 0.0
endloop
endfacet
facet normal 0.0 0.0 -1.0
outer loop
vertex 7.5573320794426 -3.37298614292909 0.0
vertex 6.69975772611078 4.85834849416782 0.0
vertex 7.72890213556591 2.95877938653908 0.0
endloop
endfacet
facet normal 0.0 0.0 -1.0
outer loop
vertex 7.5573320794426 -3.37298614292909 0.0
vertex 7.72890213556591 2.95877938653908 0.0
vertex 8.17281528603342 -1.30207295484638 0.0
endloop
endfacet
facet normal 0.0 0.0 -1.0
outer loop
vertex 8.17281528603342 -1.30207295484638 0.0
vertex 7.72890213556591 2.95877938653908 0.0
vertex 8.23133463709691 0.857574353331818 0.0
endloop
endfacet
facet normal 0.0 0.0 -1.0
outer loop
vertex -8.17281528603342 1.30207295484638 0.0
vertex -7.72890213556591 -2.95877938653908 0.0
vertex -8.23133463709691 -0.857574353331818 0.0
endloop
endfacet
facet normal 0.0 0.0 -1.0
outer loop
vertex -7.72890213556591 -2.95877938653908 0.0
vertex -8.17281528603342 1.30207295484638 0.0
vertex -7.85998135222139 2.35466368725578 0.0
endloop
endfacet
facet normal 0.0 0.0 -1.0
outer loop
vertex -7.72890213556591 -2.95877938653908 0.0
vertex -7.85998135222139 2.35466368725578 0.0
vertex -7.80054059824554 2.55466368725578 0.0
endloop
endfacet
facet normal 0.0 0.0 -1.0
outer loop
vertex -7.72890213556591 -2.95877938653908 0.0
vertex -7.80054059824554 2.55466368725578 0.0
vertex -7.5573320794426 3.37298614292909 0.0
endloop
endfacet
facet normal 0.0 0.0 -1.0
outer loop
vertex -7.72890213556591 -2.95877938653908 0.0
vertex -7.5573320794426 3.37298614292909 0.0
vertex -6.69975772611079 -4.85834849416781 0.0
endloop
endfacet
facet normal 0.0 0.0 -1.0
outer loop
vertex -6.69975772611079 -4.85834849416781 0.0
vertex -7.5573320794426 3.37298614292909 0.0
vertex -6.42682918071953 5.21403589949434 0.0
endloop
endfacet
facet normal 0.0 0.0 -1.0
outer loop
vertex -6.69975772611079 -4.85834849416781 0.0
vertex -6.42682918071953 5.21403589949434 0.0
vertex -5.21403589949435 -6.42682918071953 0.0
endloop
endfacet
facet normal 0.0 0.0 -1.0
outer loop
vertex -5.21403589949435 -6.42682918071953 0.0
vertex -6.42682918071953 5.21403589949434 0.0
vertex -5.22173725454191 -0.544022099302206 0.0
endloop
endfacet
facet normal 0.0 0.0 -1.0
outer loop
vertex -5.22173725454191 -0.544022099302206 0.0
vertex -6.42682918071953 5.21403589949434 0.0
vertex -5.22173725454191 -0.5 0.0
endloop
endfacet
facet normal 0.0 0.0 -1.0
outer loop
vertex -5.21403589949435 -6.42682918071953 0.0
vertex -5.22173725454191 -0.544022099302206 0.0
vertex -4.90300759200173 -1.87697004578479 0.0
endloop
endfacet
facet normal 0.0 0.0 -1.0
outer loop
vertex -5.21403589949435 -6.42682918071953 0.0
vertex -4.90300759200173 -1.87697004578479 0.0
vertex -3.37298614292909 -7.5573320794426 0.0
endloop
endfacet
facet normal 0.0 0.0 -1.0
outer loop
vertex -3.37298614292909 -7.5573320794426 0.0
vertex -4.90300759200173 -1.87697004578479 0.0
vertex -4.25014606466979 -3.0820055854868 0.0
endloop
endfacet
facet normal 0.0 0.0 -1.0
outer loop
vertex -3.37298614292909 -7.5573320794426 0.0
vertex -4.25014606466979 -3.0820055854868 0.0
vertex -3.30764410672907 -4.07700753779294 0.0
endloop
endfacet
facet normal 0.0 0.0 -1.0
outer loop
vertex -3.37298614292909 -7.5573320794426 0.0
vertex -3.30764410672907 -4.07700753779294 0.0
vertex -2.55466368725578 -7.80054059824554 0.0
endloop
endfacet
facet normal 0.0 0.0 -1.0
outer loop
vertex -2.55466368725578 -7.80054059824554 0.0
vertex -3.30764410672907 -4.07700753779294 0.0
vertex -2.1397316690551 -4.794168163972 0.0
endloop
endfacet
facet normal 0.0 0.0 -1.0
outer loop
vertex -2.55466368725578 -7.80054059824554 0.0
vertex -2.1397316690551 -4.794168163972 0.0
vertex -2.35466368725578 -7.85998135222139 0.0
endloop
endfacet
facet normal 0.0 0.0 -1.0
outer loop
vertex -2.35466368725578 -7.85998135222139 0.0
vertex -2.1397316690551 -4.794168163972 0.0
vertex -1.30207295484638 -8.17281528603341 0.0
endloop
endfacet
facet normal 0.0 0.0 -1.0
outer loop
vertex -1.30207295484638 -8.17281528603341 0.0
vertex -2.1397316690551 -4.794168163972 0.0
vertex -1.7 -4.92485807375047 0.0
endloop
endfacet
facet normal 0.0 0.0 -1.0
outer loop
vertex -1.30207295484638 -8.17281528603341 0.0
vertex -1.7 -4.92485807375047 0.0
vertex -1.5 -4.98429882772632 0.0
endloop
endfacet
facet normal 0.0 0.0 -1.0
outer loop
vertex -1.30207295484638 -8.17281528603341 0.0
vertex -1.5 -4.98429882772632 0.0
vertex -0.826000054208797 -5.18461415251387 0.0
endloop
endfacet
facet normal 0.0 0.0 -1.0
outer loop
vertex -1.30207295484638 -8.17281528603341 0.0
vertex -0.826000054208797 -5.18461415251387 0.0
vertex 0.857574353331825 -8.23133463709691 0.0
endloop
endfacet
facet normal 0.0 0.0 -1.0
outer loop
vertex 0.857574353331825 -8.23133463709691 0.0
vertex -0.826000054208797 -5.18461415251387 0.0
vertex -0.5 -5.19344768359402 0.0
endloop
endfacet
facet normal 0.0 0.0 -1.0
outer loop
vertex 0.857574353331825 -8.23133463709691 0.0
vertex -0.5 -5.19344768359402 0.0
vertex -0.5 -2.0 0.0
endloop
endfacet
facet normal 0.0 0.0 -1.0
outer loop
vertex 0.857574353331825 -8.23133463709691 0.0
vertex -0.5 -2.0 0.0
vertex 0.5 -5.2217372545419 0.0
endloop
endfacet
facet normal 0.0 0.0 -1.0
outer loop
vertex 0.5 -5.2217372545419 0.0
vertex -0.5 -2.0 0.0
vertex 0.5 -2.0 0.0
endloop
endfacet
facet normal 0.0 0.0 -1.0
outer loop
vertex 0.857574353331825 -8.23133463709691 0.0
vertex 0.5 -5.2217372545419 0.0
vertex 0.544022099302206 -5.2217372545419 0.0
endloop
endfacet
facet normal 0.0 0.0 -1.0
outer loop
vertex 0.857574353331825 -8.23133463709691 0.0
vertex 0.544022099302206 -5.2217372545419 0.0
vertex 1.5 -4.99314729760524 0.0
endloop
endfacet
facet normal 0.0 0.0 -1.0
outer loop
vertex 0.857574353331825 -8.23133463709691 0.0
vertex 1.5 -4.99314729760524 0.0
vertex 2.19768079739194 -7.91089326066483 0.0
endloop
endfacet
facet normal 0.0 0.0 -1.0
outer loop
vertex 2.19768079739194 -7.91089326066483 0.0
vertex 1.5 -4.99314729760524 0.0
vertex 1.7 -4.94532402537901 0.0
endloop
endfacet
facet normal 0.0 0.0 -1.0
outer loop
vertex 2.19768079739194 -7.91089326066483 0.0
vertex 1.7 -4.94532402537901 0.0
vertex 1.87697004578479 -4.90300759200173 0.0
endloop
endfacet
facet normal 0.0 0.0 -1.0
outer loop
vertex 2.19768079739194 -7.91089326066483 0.0
vertex 1.87697004578479 -4.90300759200173 0.0
vertex 3.0820055854868 -4.25014606466979 0.0
endloop
endfacet
facet normal 0.0 0.0 -1.0
outer loop
vertex 2.19768079739194 -7.91089326066483 0.0
vertex 3.0820055854868 -4.25014606466979 0.0
vertex 2.39768079739195 -7.8630699884386 0.0
endloop
endfacet
facet normal 0.0 0.0 -1.0
outer loop
vertex 2.39768079739195 -7.8630699884386 0.0
vertex 3.0820055854868 -4.25014606466979 0.0
vertex 2.95877938653907 -7.72890213556591 0.0
endloop
endfacet
facet normal 0.0 0.0 -1.0
outer loop
vertex 2.95877938653907 -7.72890213556591 0.0
vertex 3.0820055854868 -4.25014606466979 0.0
vertex 4.85834849416782 -6.69975772611078 0.0
endloop
endfacet
facet normal 0.0 0.0 -1.0
outer loop
vertex 4.85834849416782 -6.69975772611078 0.0
vertex 3.0820055854868 -4.25014606466979 0.0
vertex 4.07700753779294 -3.30764410672907 0.0
endloop
endfacet
facet normal 0.0 0.0 -1.0
outer loop
vertex 4.85834849416782 -6.69975772611078 0.0
vertex 4.07700753779294 -3.30764410672907 0.0
vertex 4.794168163972 -2.1397316690551 0.0
endloop
endfacet
facet normal 0.0 0.0 -1.0
outer loop
vertex 4.85834849416782 -6.69975772611078 0.0
vertex 4.794168163972 -2.1397316690551 0.0
vertex 5.18461415251387 -0.826000054208796 0.0
endloop
endfacet
facet normal 0.0 0.0 -1.0
outer loop
vertex 4.85834849416782 -6.69975772611078 0.0
vertex 5.18461415251387 -0.826000054208796 0.0
vertex 6.42682918071953 -5.21403589949434 0.0
endloop
endfacet
facet normal 0.0 0.0 -1.0
outer loop
vertex 6.42682918071953 -5.21403589949434 0.0
vertex 5.18461415251387 -0.826000054208796 0.0
vertex 5.19344768359402 -0.5 0.0
endloop
endfacet
facet normal 0.0 0.0 -1.0
outer loop
vertex 6.42682918071953 -5.21403589949434 0.0
vertex 5.19344768359402 -0.5 0.0
vertex 5.2217372545419 0.5 0.0
endloop
endfacet
facet normal 0.0 0.0 -1.0
outer loop
vertex -2.0 -2.0 0.0
vertex -1.5 -1.5 0.0
vertex -0.5 -2.0 0.0
endloop
endfacet
facet normal 0.0 0.0 -1.0
outer loop
vertex -1.5 -1.5 0.0
vertex -2.0 -2.0 0.0
vertex -1.5 1.5 0.0
endloop
endfacet
facet normal 0.0 0.0 -1.0
outer loop
vertex -0.5 -2.0 0.0
vertex -1.5 -1.5 0.0
vertex 1.5 -1.5 0.0
endloop
endfacet
facet normal 0.0 0.0 -1.0
outer loop
vertex -0.5 -2.0 0.0
vertex 1.5 -1.5 0.0
vertex 0.5 -2.0 0.0
endloop
endfacet
facet normal 0.0 0.0 -1.0
outer loop
vertex 0.5 -2.0 0.0
vertex 1.5 -1.5 0.0
vertex 2.0 -2.0 0.0
endloop
endfacet
facet normal 0.0 0.0 -1.0
outer loop
vertex 2.0 -2.0 0.0
vertex 1.5 -1.5 0.0
vertex 2.0 2.0 0.0
endloop
endfacet
facet normal 0.0 0.0 -1.0
outer loop
vertex 2.0 -2.0 0.0
vertex 2.0 2.0 0.0
vertex 2.0 0.5 0.0
endloop
endfacet
facet normal 0.0 0.0 -1.0
outer loop
vertex 2.0 -2.0 0.0
vertex 2.0 0.5 0.0
vertex 2.0 -0.5 0.0
endloop
endfacet
facet normal 0.0 0.0 -1.0
outer loop
vertex -5.19374094948128 0.5 0.0
vertex -2.0 -0.5 0.0
vertex -5.22173725454191 -0.5 0.0
endloop
endfacet
facet normal 0.0 0.0 -1.0
outer loop
vertex -2.0 -0.5 0.0
vertex -5.19374094948128 0.5 0.0
vertex -2.0 0.5 0.0
endloop
endfacet
facet normal -0.852164259732864 0.523274377773209 0.0
outer loop
vertex -4.07700753779294 3.30764410672907 10.0
vertex -4.794168163972 2.1397316690551 0.0
vertex -4.794168163972 2.1397316690551 10.0
endloop
endfacet
facet normal -0.852164259732864 0.523274377773209 0.0
outer loop
vertex -4.794168163972 2.1397316690551 0.0
vertex -4.07700753779294 3.30764410672907 10.0
vertex -4.07700753779294 3.30764410672907 0.0
endloop
endfacet
facet normal -0.958560841498357 0.284887895751928 0.0
outer loop
vertex -4.794168163972 2.1397316690551 10.0
vertex -4.92485807375047 1.7 0.0
vertex -4.92485807375047 1.7 10.0
endloop
endfacet
facet normal -0.958560841498357 0.284887895751928 0.0
outer loop
vertex -4.92485807375047 1.7 0.0
vertex -4.794168163972 2.1397316690551 10.0
vertex -4.794168163972 2.1397316690551 0.0
endloop
endfacet
facet normal -0.958560841498357 0.284887895751927 0.0
outer loop
vertex -4.92485807375047 1.7 10.0
vertex -4.98429882772632 1.5 0.0
vertex -4.98429882772632 1.5 10.0
endloop
endfacet
facet normal -0.958560841498357 0.284887895751927 0.0
outer loop
vertex -4.98429882772632 1.5 0.0
vertex -4.92485807375047 1.7 10.0
vertex -4.92485807375047 1.7 0.0
endloop
endfacet
facet normal -0.958560841498357 0.284887895751928 0.0
outer loop
vertex -4.98429882772632 1.5 10.0
vertex -5.18461415251387 0.826000054208795 0.0
vertex -5.18461415251387 0.826000054208795 10.0
endloop
endfacet
facet normal -0.958560841498357 0.284887895751928 0.0
outer loop
vertex -5.18461415251387 0.826000054208795 0.0
vertex -4.98429882772632 1.5 10.0
vertex -4.98429882772632 1.5 0.0
endloop
endfacet
facet normal -0.999608333675465 0.0279853398507237 0.0
outer loop
vertex -5.18461415251387 0.826000054208795 10.0
vertex -5.19374094948128 0.5 1.5
vertex -5.19374094948128 0.5 10.0
endloop
endfacet
facet normal -0.999608333675465 0.0279853398507237 0.0
outer loop
vertex -5.19374094948128 0.5 1.5
vertex -5.18461415251387 0.826000054208795 10.0
vertex -5.19374094948128 0.5 0.0
endloop
endfacet
facet normal -0.999608333675465 0.0279853398507237 0.0
outer loop
vertex -5.19374094948128 0.5 0.0
vertex -5.18461415251387 0.826000054208795 10.0
vertex -5.18461415251387 0.826000054208795 0.0
endloop
endfacet
facet normal 0.0 -1.0 0.0
outer loop
vertex -2.0 0.5 1.5
vertex -5.19374094948128 0.5 0.0
vertex -2.0 0.5 0.0
endloop
endfacet
facet normal 0.0 -1.0 0.0
outer loop
vertex -5.19374094948128 0.5 0.0
vertex -2.0 0.5 1.5
vertex -5.19374094948128 0.5 1.5
endloop
endfacet
facet normal 1.0 -0.0 -0.0
outer loop
vertex -2.0 0.5 0.0
vertex -2.0 -0.5 1.5
vertex -2.0 -0.5 0.0
endloop
endfacet
facet normal 1.0 -0.0 -0.0
outer loop
vertex -2.0 -0.5 1.5
vertex -2.0 0.5 0.0
vertex -2.0 0.5 1.5
endloop
endfacet
facet normal -0.0 1.0 -0.0
outer loop
vertex -5.22173725454191 -0.5 1.5
vertex -2.0 -0.5 0.0
vertex -5.22173725454191 -0.5 0.0
endloop
endfacet
facet normal -0.0 1.0 -0.0
outer loop
vertex -2.0 -0.5 0.0
vertex -5.22173725454191 -0.5 1.5
vertex -2.0 -0.5 1.5
endloop
endfacet
facet normal -1.0 0.0 0.0
outer loop
vertex -5.22173725454191 -0.5 10.0
vertex -5.22173725454191 -0.544022099302206 0.0
vertex -5.22173725454191 -0.544022099302206 10.0
endloop
endfacet
facet normal -1.0 0.0 0.0
outer loop
vertex -5.22173725454191 -0.544022099302206 0.0
vertex -5.22173725454191 -0.5 10.0
vertex -5.22173725454191 -0.5 0.0
endloop
endfacet
facet normal -1.0 0.0 0.0
outer loop
vertex -5.22173725454191 -0.5 0.0
vertex -5.22173725454191 -0.5 10.0
vertex -5.22173725454191 -0.5 1.5
endloop
endfacet
facet normal -0.97258198768653 -0.232560265797316 0.0
outer loop
vertex -5.22173725454191 -0.544022099302206 10.0
vertex -4.90300759200173 -1.87697004578479 0.0
vertex -4.90300759200173 -1.87697004578479 10.0
endloop
endfacet
facet normal -0.97258198768653 -0.232560265797316 0.0
outer loop
vertex -4.90300759200173 -1.87697004578479 0.0
vertex -5.22173725454191 -0.544022099302206 10.0
vertex -5.22173725454191 -0.544022099302206 0.0
endloop
endfacet
facet normal -0.879251034167526 -0.476358708239217 0.0
outer loop
vertex -4.90300759200173 -1.87697004578479 10.0
vertex -4.25014606466979 -3.0820055854868 0.0
vertex -4.25014606466979 -3.0820055854868 10.0
endloop
endfacet
facet normal -0.879251034167526 -0.476358708239217 0.0
outer loop
vertex -4.25014606466979 -3.0820055854868 0.0
vertex -4.90300759200173 -1.87697004578479 10.0
vertex -4.90300759200173 -1.87697004578479 0.0
endloop
endfacet
facet normal -0.726000575701041 -0.687694091934602 0.0
outer loop
vertex -4.25014606466979 -3.0820055854868 10.0
vertex -3.30764410672907 -4.07700753779294 0.0
vertex -3.30764410672907 -4.07700753779294 10.0
endloop
endfacet
facet normal -0.726000575701041 -0.687694091934602 0.0
outer loop
vertex -3.30764410672907 -4.07700753779294 0.0
vertex -4.25014606466979 -3.0820055854868 10.0
vertex -4.25014606466979 -3.0820055854868 0.0
endloop
endfacet
facet normal -0.523274377773209 -0.852164259732864 0.0
outer loop
vertex -2.1397316690551 -4.794168163972 10.0
vertex -3.30764410672907 -4.07700753779294 0.0
vertex -2.1397316690551 -4.794168163972 0.0
endloop
endfacet
facet normal -0.523274377773209 -0.852164259732864 0.0
outer loop
vertex -3.30764410672907 -4.07700753779294 0.0
vertex -2.1397316690551 -4.794168163972 10.0
vertex -3.30764410672907 -4.07700753779294 10.0
endloop
endfacet
facet normal 0.232560265797315 -0.97258198768653 0.0
outer loop
vertex 2.95877938653907 -7.72890213556591 10.0
vertex 2.39768079739195 -7.8630699884386 0.0
vertex 2.95877938653907 -7.72890213556591 0.0
endloop
endfacet
facet normal 0.232560265797315 -0.97258198768653 0.0
outer loop
vertex 2.39768079739195 -7.8630699884386 0.0
vertex 2.95877938653907 -7.72890213556591 10.0
vertex 2.39768079739195 -7.8630699884386 10.0
endloop
endfacet
facet normal 0.232560265797311 -0.972581987686531 0.0
outer loop
vertex 2.39768079739195 -7.8630699884386 10.0
vertex 2.19768079739194 -7.91089326066483 0.0
vertex 2.39768079739195 -7.8630699884386 0.0
endloop
endfacet
facet normal 0.232560265797311 -0.972581987686531 0.0
outer loop
vertex 2.19768079739194 -7.91089326066483 0.0
vertex 2.39768079739195 -7.8630699884386 10.0
vertex 2.19768079739194 -7.91089326066483 10.0
endloop
endfacet
facet normal 0.232560265797315 -0.97258198768653 0.0
outer loop
vertex 2.19768079739194 -7.91089326066483 10.0
vertex 0.857574353331825 -8.23133463709691 0.0
vertex 2.19768079739194 -7.91089326066483 0.0
endloop
endfacet
facet normal 0.232560265797315 -0.97258198768653 0.0
outer loop
vertex 0.857574353331825 -8.23133463709691 0.0
vertex 2.19768079739194 -7.91089326066483 10.0
vertex 0.857574353331825 -8.23133463709691 10.0
endloop
endfacet
facet normal -0.0270867744346612 -0.999633086012426 0.0
outer loop
vertex 0.857574353331825 -8.23133463709691 10.0
vertex -1.30207295484638 -8.17281528603341 0.0
vertex 0.857574353331825 -8.23133463709691 0.0
endloop
endfacet
facet normal -0.0270867744346612 -0.999633086012426 0.0
outer loop
vertex -1.30207295484638 -8.17281528603341 0.0
vertex 0.857574353331825 -8.23133463709691 10.0
vertex -1.30207295484638 -8.17281528603341 10.0
endloop
endfacet
facet normal -0.284887895751928 -0.958560841498357 0.0
outer loop
vertex -1.30207295484638 -8.17281528603341 10.0
vertex -2.35466368725578 -7.85998135222139 0.0
vertex -1.30207295484638 -8.17281528603341 0.0
endloop
endfacet
facet normal -0.284887895751928 -0.958560841498357 0.0
outer loop
vertex -2.35466368725578 -7.85998135222139 0.0
vertex -1.30207295484638 -8.17281528603341 10.0
vertex -2.35466368725578 -7.85998135222139 10.0
endloop
endfacet
facet normal -0.284887895751928 -0.958560841498357 0.0
outer loop
vertex -2.35466368725578 -7.85998135222139 10.0
vertex -2.55466368725578 -7.80054059824554 0.0
vertex -2.35466368725578 -7.85998135222139 0.0
endloop
endfacet
facet normal -0.284887895751928 -0.958560841498357 0.0
outer loop
vertex -2.55466368725578 -7.80054059824554 0.0
vertex -2.35466368725578 -7.85998135222139 10.0
vertex -2.55466368725578 -7.80054059824554 10.0
endloop
endfacet
facet normal 0.958560841498357 -0.284887895751929 -0.0
outer loop
vertex 8.17281528603342 -1.30207295484638 0.0
vertex 7.5573320794426 -3.37298614292909 10.0
vertex 7.5573320794426 -3.37298614292909 0.0
endloop
endfacet
facet normal 0.958560841498357 -0.284887895751929 -0.0
outer loop
vertex 7.5573320794426 -3.37298614292909 10.0
vertex 8.17281528603342 -1.30207295484638 0.0
vertex 8.17281528603342 -1.30207295484638 10.0
endloop
endfacet
facet normal 0.0 0.0 -1.0
outer loop
vertex -5.19374094948128 0.5 1.5
vertex -2.0 -0.5 1.5
vertex -5.22173725454191 -0.5 1.5
endloop
endfacet
facet normal 0.0 0.0 -1.0
outer loop
vertex -2.0 -0.5 1.5
vertex -5.19374094948128 0.5 1.5
vertex -2.0 0.5 1.5
endloop
endfacet
facet normal 0.852164259732864 -0.523274377773209 -0.0
outer loop
vertex 7.5573320794426 -3.37298614292909 0.0
vertex 6.42682918071953 -5.21403589949434 10.0
vertex 6.42682918071953 -5.21403589949434 0.0
endloop
endfacet
facet normal 0.852164259732864 -0.523274377773209 -0.0
outer loop
vertex 6.42682918071953 -5.21403589949434 10.0
vertex 7.5573320794426 -3.37298614292909 0.0
vertex 7.5573320794426 -3.37298614292909 10.0
endloop
endfacet
facet normal 0.687694091934602 -0.726000575701041 0.0
outer loop
vertex 6.42682918071953 -5.21403589949434 10.0
vertex 4.85834849416782 -6.69975772611078 0.0
vertex 6.42682918071953 -5.21403589949434 0.0
endloop
endfacet
facet normal 0.687694091934602 -0.726000575701041 0.0
outer loop
vertex 4.85834849416782 -6.69975772611078 0.0
vertex 6.42682918071953 -5.21403589949434 10.0
vertex 4.85834849416782 -6.69975772611078 10.0
endloop
endfacet
facet normal 0.476358708239217 -0.879251034167527 0.0
outer loop
vertex 4.85834849416782 -6.69975772611078 10.0
vertex 2.95877938653907 -7.72890213556591 0.0
vertex 4.85834849416782 -6.69975772611078 0.0
endloop
endfacet
facet normal 0.476358708239217 -0.879251034167527 0.0
outer loop
vertex 2.95877938653907 -7.72890213556591 0.0
vertex 4.85834849416782 -6.69975772611078 10.0
vertex 2.95877938653907 -7.72890213556591 10.0
endloop
endfacet
facet normal 0.027086774434662 0.999633086012426 -0.0
outer loop
vertex -0.826000054208797 -5.18461415251387 10.0
vertex -0.5 -5.19344768359402 0.0
vertex -0.826000054208797 -5.18461415251387 0.0
endloop
endfacet
facet normal 0.027086774434662 0.999633086012426 -0.0
outer loop
vertex -0.5 -5.19344768359402 0.0
vertex -0.826000054208797 -5.18461415251387 10.0
vertex -0.5 -5.19344768359402 1.5
endloop
endfacet
facet normal 0.027086774434662 0.999633086012426 -0.0
outer loop
vertex -0.5 -5.19344768359402 1.5
vertex -0.826000054208797 -5.18461415251387 10.0
vertex -0.5 -5.19344768359402 10.0
endloop
endfacet
facet normal 1.0 -2.75952391618465e-017 -0.0
outer loop
vertex -0.5 -2.0 0.0
vertex -0.5 -5.19344768359402 1.5
vertex -0.5 -5.19344768359402 0.0
endloop
endfacet
facet normal 1.0 -2.75952391618465e-017 -0.0
outer loop
vertex -0.5 -5.19344768359402 1.5
vertex -0.5 -2.0 0.0
vertex -0.5 -2.0 1.5
endloop
endfacet
facet normal -0.0 1.0 -0.0
outer loop
vertex -2.0 -2.0 1.5
vertex -0.5 -2.0 0.0
vertex -2.0 -2.0 0.0
endloop
endfacet
facet normal -0.0 1.0 -0.0
outer loop
vertex -0.5 -2.0 0.0
vertex -2.0 -2.0 1.5
vertex -0.5 -2.0 1.5
endloop
endfacet
facet normal 1.0 -0.0 -0.0
outer loop
vertex -2.0 -0.5 0.0
vertex -2.0 -2.0 1.5
vertex -2.0 -2.0 0.0
endloop
endfacet
facet normal 1.0 -0.0 -0.0
outer loop
vertex -2.0 -2.0 1.5
vertex -2.0 -0.5 0.0
vertex -2.0 -0.5 1.5
endloop
endfacet
facet normal 1.0 -0.0 -0.0
outer loop
vertex -2.0 2.0 0.0
vertex -2.0 0.5 1.5
vertex -2.0 0.5 0.0
endloop
endfacet
facet normal 1.0 -0.0 -0.0
outer loop
vertex -2.0 0.5 1.5
vertex -2.0 2.0 0.0
vertex -2.0 2.0 1.5
endloop
endfacet
facet normal 0.0 -1.0 0.0
outer loop
vertex -0.5 2.0 1.5
vertex -2.0 2.0 0.0
vertex -0.5 2.0 0.0
endloop
endfacet
facet normal 0.0 -1.0 0.0
outer loop
vertex -2.0 2.0 0.0
vertex -0.5 2.0 1.5
vertex -2.0 2.0 1.5
endloop
endfacet
facet normal 1.0 -0.0 -0.0
outer loop
vertex -0.5 5.22173725454191 0.0
vertex -0.5 2.0 1.5
vertex -0.5 2.0 0.0
endloop
endfacet
facet normal 1.0 -0.0 -0.0
outer loop
vertex -0.5 2.0 1.5
vertex -0.5 5.22173725454191 0.0
vertex -0.5 5.22173725454191 1.5
endloop
endfacet
facet normal -0.0 1.0 -0.0
outer loop
vertex -0.544022099302208 5.22173725454191 10.0
vertex -0.5 5.22173725454191 0.0
vertex -0.544022099302208 5.22173725454191 0.0
endloop
endfacet
facet normal -0.0 1.0 -0.0
outer loop
vertex -0.5 5.22173725454191 0.0
vertex -0.544022099302208 5.22173725454191 10.0
vertex -0.5 5.22173725454191 1.5
endloop
endfacet
facet normal -0.0 1.0 -0.0
outer loop
vertex -0.5 5.22173725454191 1.5
vertex -0.544022099302208 5.22173725454191 10.0
vertex -0.5 5.22173725454191 10.0
endloop
endfacet
facet normal -0.232560265797315 0.97258198768653 -0.0
outer loop
vertex -1.5 4.99314729760524 10.0
vertex -0.544022099302208 5.22173725454191 0.0
vertex -1.5 4.99314729760524 0.0
endloop
endfacet
facet normal -0.232560265797315 0.97258198768653 -0.0
outer loop
vertex -0.544022099302208 5.22173725454191 0.0
vertex -1.5 4.99314729760524 10.0
vertex -0.544022099302208 5.22173725454191 10.0
endloop
endfacet
facet normal -0.23256026579732 0.972581987686529 -0.0
outer loop
vertex -1.7 4.94532402537901 10.0
vertex -1.5 4.99314729760524 0.0
vertex -1.7 4.94532402537901 0.0
endloop
endfacet
facet normal -0.23256026579732 0.972581987686529 -0.0
outer loop
vertex -1.5 4.99314729760524 0.0
vertex -1.7 4.94532402537901 10.0
vertex -1.5 4.99314729760524 10.0
endloop
endfacet
facet normal -0.232560265797316 0.97258198768653 -0.0
outer loop
vertex -1.87697004578479 4.90300759200173 10.0
vertex -1.7 4.94532402537901 0.0
vertex -1.87697004578479 4.90300759200173 0.0
endloop
endfacet
facet normal -0.232560265797316 0.97258198768653 -0.0
outer loop
vertex -1.7 4.94532402537901 0.0
vertex -1.87697004578479 4.90300759200173 10.0
vertex -1.7 4.94532402537901 10.0
endloop
endfacet
facet normal -0.476358708239217 0.879251034167526 -0.0
outer loop
vertex -3.0820055854868 4.25014606466979 10.0
vertex -1.87697004578479 4.90300759200173 0.0
vertex -3.0820055854868 4.25014606466979 0.0
endloop
endfacet
facet normal -0.476358708239217 0.879251034167526 -0.0
outer loop
vertex -1.87697004578479 4.90300759200173 0.0
vertex -3.0820055854868 4.25014606466979 10.0
vertex -1.87697004578479 4.90300759200173 10.0
endloop
endfacet
facet normal -0.687694091934602 0.726000575701041 -0.0
outer loop
vertex -4.07700753779294 3.30764410672907 10.0
vertex -3.0820055854868 4.25014606466979 0.0
vertex -4.07700753779294 3.30764410672907 0.0
endloop
endfacet
facet normal -0.687694091934602 0.726000575701041 -0.0
outer loop
vertex -3.0820055854868 4.25014606466979 0.0
vertex -4.07700753779294 3.30764410672907 10.0
vertex -3.0820055854868 4.25014606466979 10.0
endloop
endfacet
facet normal -0.284887895751928 -0.958560841498357 0.0
outer loop
vertex -2.55466368725578 -7.80054059824554 10.0
vertex -3.37298614292909 -7.5573320794426 0.0
vertex -2.55466368725578 -7.80054059824554 0.0
endloop
endfacet
facet normal -0.284887895751928 -0.958560841498357 0.0
outer loop
vertex -3.37298614292909 -7.5573320794426 0.0
vertex -2.55466368725578 -7.80054059824554 10.0
vertex -3.37298614292909 -7.5573320794426 10.0
endloop
endfacet
facet normal -0.52327437777321 -0.852164259732864 0.0
outer loop
vertex -3.37298614292909 -7.5573320794426 10.0
vertex -5.21403589949435 -6.42682918071953 0.0
vertex -3.37298614292909 -7.5573320794426 0.0
endloop
endfacet
facet normal -0.52327437777321 -0.852164259732864 0.0
outer loop
vertex -5.21403589949435 -6.42682918071953 0.0
vertex -3.37298614292909 -7.5573320794426 10.0
vertex -5.21403589949435 -6.42682918071953 10.0
endloop
endfacet
facet normal -0.726000575701042 -0.687694091934601 0.0
outer loop
vertex -6.69975772611079 -4.85834849416781 10.0
vertex -5.21403589949435 -6.42682918071953 0.0
vertex -5.21403589949435 -6.42682918071953 10.0
endloop
endfacet
facet normal -0.726000575701042 -0.687694091934601 0.0
outer loop
vertex -5.21403589949435 -6.42682918071953 0.0
vertex -6.69975772611079 -4.85834849416781 10.0
vertex -6.69975772611079 -4.85834849416781 0.0
endloop
endfacet
facet normal -0.879251034167527 -0.476358708239216 0.0
outer loop
vertex -7.72890213556591 -2.95877938653908 10.0
vertex -6.69975772611079 -4.85834849416781 0.0
vertex -6.69975772611079 -4.85834849416781 10.0
endloop
endfacet
facet normal -0.879251034167527 -0.476358708239216 0.0
outer loop
vertex -6.69975772611079 -4.85834849416781 0.0
vertex -7.72890213556591 -2.95877938653908 10.0
vertex -7.72890213556591 -2.95877938653908 0.0
endloop
endfacet
facet normal -0.97258198768653 -0.232560265797316 0.0
outer loop
vertex -8.23133463709691 -0.857574353331818 10.0
vertex -7.72890213556591 -2.95877938653908 0.0
vertex -7.72890213556591 -2.95877938653908 10.0
endloop
endfacet
facet normal -0.97258198768653 -0.232560265797316 0.0
outer loop
vertex -7.72890213556591 -2.95877938653908 0.0
vertex -8.23133463709691 -0.857574353331818 10.0
vertex -8.23133463709691 -0.857574353331818 0.0
endloop
endfacet
facet normal -0.999633086012426 0.0270867744346614 0.0
outer loop
vertex -8.17281528603342 1.30207295484638 10.0
vertex -8.23133463709691 -0.857574353331818 0.0
vertex -8.23133463709691 -0.857574353331818 10.0
endloop
endfacet
facet normal -0.999633086012426 0.0270867744346614 0.0
outer loop
vertex -8.23133463709691 -0.857574353331818 0.0
vertex -8.17281528603342 1.30207295484638 10.0
vertex -8.17281528603342 1.30207295484638 0.0
endloop
endfacet
facet normal -0.958560841498357 0.28488789575193 0.0
outer loop
vertex -7.85998135222139 2.35466368725578 10.0
vertex -8.17281528603342 1.30207295484638 0.0
vertex -8.17281528603342 1.30207295484638 10.0
endloop
endfacet
facet normal -0.958560841498357 0.28488789575193 0.0
outer loop
vertex -8.17281528603342 1.30207295484638 0.0
vertex -7.85998135222139 2.35466368725578 10.0
vertex -7.85998135222139 2.35466368725578 0.0
endloop
endfacet
facet normal -0.958560841498357 0.284887895751927 0.0
outer loop
vertex -7.80054059824554 2.55466368725578 10.0
vertex -7.85998135222139 2.35466368725578 0.0
vertex -7.85998135222139 2.35466368725578 10.0
endloop
endfacet
facet normal -0.958560841498357 0.284887895751927 0.0
outer loop
vertex -7.85998135222139 2.35466368725578 0.0
vertex -7.80054059824554 2.55466368725578 10.0
vertex -7.80054059824554 2.55466368725578 0.0
endloop
endfacet
facet normal -0.958560841498357 0.284887895751928 0.0
outer loop
vertex -7.5573320794426 3.37298614292909 10.0
vertex -7.80054059824554 2.55466368725578 0.0
vertex -7.80054059824554 2.55466368725578 10.0
endloop
endfacet
facet normal -0.958560841498357 0.284887895751928 0.0
outer loop
vertex -7.80054059824554 2.55466368725578 0.0
vertex -7.5573320794426 3.37298614292909 10.0
vertex -7.5573320794426 3.37298614292909 0.0
endloop
endfacet
facet normal -0.852164259732864 0.52327437777321 0.0
outer loop
vertex -6.42682918071953 5.21403589949434 10.0
vertex -7.5573320794426 3.37298614292909 0.0
vertex -7.5573320794426 3.37298614292909 10.0
endloop
endfacet
facet normal -0.852164259732864 0.52327437777321 0.0
outer loop
vertex -7.5573320794426 3.37298614292909 0.0
vertex -6.42682918071953 5.21403589949434 10.0
vertex -6.42682918071953 5.21403589949434 0.0
endloop
endfacet
facet normal -0.687694091934602 0.726000575701041 -0.0
outer loop
vertex -6.42682918071953 5.21403589949434 10.0
vertex -4.85834849416782 6.69975772611078 0.0
vertex -6.42682918071953 5.21403589949434 0.0
endloop
endfacet
facet normal -0.687694091934602 0.726000575701041 -0.0
outer loop
vertex -4.85834849416782 6.69975772611078 0.0
vertex -6.42682918071953 5.21403589949434 10.0
vertex -4.85834849416782 6.69975772611078 10.0
endloop
endfacet
facet normal -0.476358708239217 0.879251034167527 -0.0
outer loop
vertex -4.85834849416782 6.69975772611078 10.0
vertex -2.95877938653908 7.72890213556591 0.0
vertex -4.85834849416782 6.69975772611078 0.0
endloop
endfacet
facet normal -0.476358708239217 0.879251034167527 -0.0
outer loop
vertex -2.95877938653908 7.72890213556591 0.0
vertex -4.85834849416782 6.69975772611078 10.0
vertex -2.95877938653908 7.72890213556591 10.0
endloop
endfacet
facet normal -0.232560265797316 0.97258198768653 -0.0
outer loop
vertex -2.95877938653908 7.72890213556591 10.0
vertex -2.39768079739195 7.8630699884386 0.0
vertex -2.95877938653908 7.72890213556591 0.0
endloop
endfacet
facet normal -0.232560265797316 0.97258198768653 -0.0
outer loop
vertex -2.39768079739195 7.8630699884386 0.0
vertex -2.95877938653908 7.72890213556591 10.0
vertex -2.39768079739195 7.8630699884386 10.0
endloop
endfacet
facet normal -0.232560265797315 0.97258198768653 -0.0
outer loop
vertex -2.39768079739195 7.8630699884386 10.0
vertex -2.19768079739196 7.91089326066483 0.0
vertex -2.39768079739195 7.8630699884386 0.0
endloop
endfacet
facet normal -0.232560265797315 0.97258198768653 -0.0
outer loop
vertex -2.19768079739196 7.91089326066483 0.0
vertex -2.39768079739195 7.8630699884386 10.0
vertex -2.19768079739196 7.91089326066483 10.0
endloop
endfacet
facet normal -0.232560265797316 0.97258198768653 -0.0
outer loop
vertex -2.19768079739196 7.91089326066483 10.0
vertex -0.857574353331827 8.23133463709691 0.0
vertex -2.19768079739196 7.91089326066483 0.0
endloop
endfacet
facet normal -0.232560265797316 0.97258198768653 -0.0
outer loop
vertex -0.857574353331827 8.23133463709691 0.0
vertex -2.19768079739196 7.91089326066483 10.0
vertex -0.857574353331827 8.23133463709691 10.0
endloop
endfacet
facet normal 0.0270867744346607 0.999633086012426 -0.0
outer loop
vertex -0.857574353331827 8.23133463709691 10.0
vertex 1.30207295484637 8.17281528603342 0.0
vertex -0.857574353331827 8.23133463709691 0.0
endloop
endfacet
facet normal 0.0270867744346607 0.999633086012426 -0.0
outer loop
vertex 1.30207295484637 8.17281528603342 0.0
vertex -0.857574353331827 8.23133463709691 10.0
vertex 1.30207295484637 8.17281528603342 10.0
endloop
endfacet
facet normal 0.284887895751928 0.958560841498357 -0.0
outer loop
vertex 1.30207295484637 8.17281528603342 10.0
vertex 2.35466368725578 7.85998135222139 0.0
vertex 1.30207295484637 8.17281528603342 0.0
endloop
endfacet
facet normal 0.284887895751928 0.958560841498357 -0.0
outer loop
vertex 2.35466368725578 7.85998135222139 0.0
vertex 1.30207295484637 8.17281528603342 10.0
vertex 2.35466368725578 7.85998135222139 10.0
endloop
endfacet
facet normal 0.284887895751929 0.958560841498357 -0.0
outer loop
vertex 2.35466368725578 7.85998135222139 10.0
vertex 2.55466368725578 7.80054059824554 0.0
vertex 2.35466368725578 7.85998135222139 0.0
endloop
endfacet
facet normal 0.284887895751929 0.958560841498357 -0.0
outer loop
vertex 2.55466368725578 7.80054059824554 0.0
vertex 2.35466368725578 7.85998135222139 10.0
vertex 2.55466368725578 7.80054059824554 10.0
endloop
endfacet
facet normal 0.284887895751928 0.958560841498357 -0.0
outer loop
vertex 2.55466368725578 7.80054059824554 10.0
vertex 3.37298614292909 7.5573320794426 0.0
vertex 2.55466368725578 7.80054059824554 0.0
endloop
endfacet
facet normal 0.284887895751928 0.958560841498357 -0.0
outer loop
vertex 3.37298614292909 7.5573320794426 0.0
vertex 2.55466368725578 7.80054059824554 10.0
vertex 3.37298614292909 7.5573320794426 10.0
endloop
endfacet
facet normal 0.523274377773209 0.852164259732864 -0.0
outer loop
vertex 3.37298614292909 7.5573320794426 10.0
vertex 5.21403589949432 6.42682918071954 0.0
vertex 3.37298614292909 7.5573320794426 0.0
endloop
endfacet
facet normal 0.523274377773209 0.852164259732864 -0.0
outer loop
vertex 5.21403589949432 6.42682918071954 0.0
vertex 3.37298614292909 7.5573320794426 10.0
vertex 5.21403589949432 6.42682918071954 10.0
endloop
endfacet
facet normal 0.72600057570104 0.687694091934604 -0.0
outer loop
vertex 5.21403589949432 6.42682918071954 0.0
vertex 6.69975772611078 4.85834849416782 10.0
vertex 6.69975772611078 4.85834849416782 0.0
endloop
endfacet
facet normal 0.72600057570104 0.687694091934604 -0.0
outer loop
vertex 6.69975772611078 4.85834849416782 10.0
vertex 5.21403589949432 6.42682918071954 0.0
vertex 5.21403589949432 6.42682918071954 10.0
endloop
endfacet
facet normal 0.879251034167527 0.476358708239217 -0.0
outer loop
vertex 6.69975772611078 4.85834849416782 0.0
vertex 7.72890213556591 2.95877938653908 10.0
vertex 7.72890213556591 2.95877938653908 0.0
endloop
endfacet
facet normal 0.879251034167527 0.476358708239217 -0.0
outer loop
vertex 7.72890213556591 2.95877938653908 10.0
vertex 6.69975772611078 4.85834849416782 0.0
vertex 6.69975772611078 4.85834849416782 10.0
endloop
endfacet
facet normal 0.97258198768653 0.232560265797315 -0.0
outer loop
vertex 7.72890213556591 2.95877938653908 0.0
vertex 8.23133463709691 0.857574353331818 10.0
vertex 8.23133463709691 0.857574353331818 0.0
endloop
endfacet
facet normal 0.97258198768653 0.232560265797315 -0.0
outer loop
vertex 8.23133463709691 0.857574353331818 10.0
vertex 7.72890213556591 2.95877938653908 0.0
vertex 7.72890213556591 2.95877938653908 10.0
endloop
endfacet
facet normal 0.999633086012426 -0.0270867744346607 -0.0
outer loop
vertex 8.23133463709691 0.857574353331818 0.0
vertex 8.17281528603342 -1.30207295484638 10.0
vertex 8.17281528603342 -1.30207295484638 0.0
endloop
endfacet
facet normal 0.999633086012426 -0.0270867744346607 -0.0
outer loop
vertex 8.17281528603342 -1.30207295484638 10.0
vertex 8.23133463709691 0.857574353331818 0.0
vertex 8.23133463709691 0.857574353331818 10.0
endloop
endfacet
facet normal -0.284887895751928 -0.958560841498357 0.0
outer loop
vertex -1.7 -4.92485807375047 10.0
vertex -2.1397316690551 -4.794168163972 0.0
vertex -1.7 -4.92485807375047 0.0
endloop
endfacet
facet normal -0.284887895751928 -0.958560841498357 0.0
outer loop
vertex -2.1397316690551 -4.794168163972 0.0
vertex -1.7 -4.92485807375047 10.0
vertex -2.1397316690551 -4.794168163972 10.0
endloop
endfacet
facet normal -0.284887895751927 -0.958560841498357 0.0
outer loop
vertex -1.5 -4.98429882772632 10.0
vertex -1.7 -4.92485807375047 0.0
vertex -1.5 -4.98429882772632 0.0
endloop
endfacet
facet normal -0.284887895751927 -0.958560841498357 0.0
outer loop
vertex -1.7 -4.92485807375047 0.0
vertex -1.5 -4.98429882772632 10.0
vertex -1.7 -4.92485807375047 10.0
endloop
endfacet
facet normal -0.284887895751928 -0.958560841498357 0.0
outer loop
vertex -0.826000054208797 -5.18461415251387 10.0
vertex -1.5 -4.98429882772632 0.0
vertex -0.826000054208797 -5.18461415251387 0.0
endloop
endfacet
facet normal -0.284887895751928 -0.958560841498357 0.0
outer loop
vertex -1.5 -4.98429882772632 0.0
vertex -0.826000054208797 -5.18461415251387 10.0
vertex -1.5 -4.98429882772632 10.0
endloop
endfacet
facet normal -1.0 0.0 0.0
outer loop
vertex 1.5 1.5 1.5
vertex 1.5 -1.5 0.0
vertex 1.5 -1.5 1.5
endloop
endfacet
facet normal -1.0 0.0 0.0
outer loop
vertex 1.5 -1.5 0.0
vertex 1.5 1.5 1.5
vertex 1.5 1.5 0.0
endloop
endfacet
facet normal 0.0 -1.0 0.0
outer loop
vertex 1.5 1.5 1.5
vertex -1.5 1.5 0.0
vertex 1.5 1.5 0.0
endloop
endfacet
facet normal 0.0 -1.0 0.0
outer loop
vertex -1.5 1.5 0.0
vertex 1.5 1.5 1.5
vertex -1.5 1.5 1.5
endloop
endfacet
facet normal 1.0 -0.0 -0.0
outer loop
vertex -1.5 1.5 0.0
vertex -1.5 -1.5 1.5
vertex -1.5 -1.5 0.0
endloop
endfacet
facet normal 1.0 -0.0 -0.0
outer loop
vertex -1.5 -1.5 1.5
vertex -1.5 1.5 0.0
vertex -1.5 1.5 1.5
endloop
endfacet
facet normal -0.0 1.0 -0.0
outer loop
vertex -1.5 -1.5 1.5
vertex 1.5 -1.5 0.0
vertex -1.5 -1.5 0.0
endloop
endfacet
facet normal -0.0 1.0 -0.0
outer loop
vertex 1.5 -1.5 0.0
vertex -1.5 -1.5 1.5
vertex 1.5 -1.5 1.5
endloop
endfacet
facet normal -0.999633086012426 0.02708677443466 0.0
outer loop
vertex 5.19344768359402 -0.5 10.0
vertex 5.18461415251387 -0.826000054208796 0.0
vertex 5.18461415251387 -0.826000054208796 10.0
endloop
endfacet
facet normal -0.999633086012426 0.02708677443466 0.0
outer loop
vertex 5.18461415251387 -0.826000054208796 0.0
vertex 5.19344768359402 -0.5 10.0
vertex 5.19344768359402 -0.5 0.0
endloop
endfacet
facet normal -0.999633086012426 0.02708677443466 0.0
outer loop
vertex 5.19344768359402 -0.5 0.0
vertex 5.19344768359402 -0.5 10.0
vertex 5.19344768359402 -0.5 1.5
endloop
endfacet
facet normal 0.0 -1.0 0.0
outer loop
vertex 5.19344768359402 -0.5 1.5
vertex 2.0 -0.5 0.0
vertex 5.19344768359402 -0.5 0.0
endloop
endfacet
facet normal 0.0 -1.0 0.0
outer loop
vertex 2.0 -0.5 0.0
vertex 5.19344768359402 -0.5 1.5
vertex 2.0 -0.5 1.5
endloop
endfacet
facet normal 1.0 -0.0 -0.0
outer loop
vertex 2.0 -0.5 0.0
vertex 2.0 -2.0 1.5
vertex 2.0 -2.0 0.0
endloop
endfacet
facet normal 1.0 -0.0 -0.0
outer loop
vertex 2.0 -2.0 1.5
vertex 2.0 -0.5 0.0
vertex 2.0 -0.5 1.5
endloop
endfacet
facet normal 0.0 -1.0 0.0
outer loop
vertex 2.0 -2.0 1.5
vertex 0.5 -2.0 0.0
vertex 2.0 -2.0 0.0
endloop
endfacet
facet normal 0.0 -1.0 0.0
outer loop
vertex 0.5 -2.0 0.0
vertex 2.0 -2.0 1.5
vertex 0.5 -2.0 1.5
endloop
endfacet
facet normal 1.0 -0.0 -0.0
outer loop
vertex 0.5 -2.0 0.0
vertex 0.5 -5.2217372545419 1.5
vertex 0.5 -5.2217372545419 0.0
endloop
endfacet
facet normal 1.0 -0.0 -0.0
outer loop
vertex 0.5 -5.2217372545419 1.5
vertex 0.5 -2.0 0.0
vertex 0.5 -2.0 1.5
endloop
endfacet
facet normal -0.0 1.0 -0.0
outer loop
vertex 0.5 -5.2217372545419 1.5
vertex 0.544022099302206 -5.2217372545419 0.0
vertex 0.5 -5.2217372545419 0.0
endloop
endfacet
facet normal -0.0 1.0 -0.0
outer loop
vertex 0.544022099302206 -5.2217372545419 0.0
vertex 0.5 -5.2217372545419 1.5
vertex 0.544022099302206 -5.2217372545419 10.0
endloop
endfacet
facet normal -0.0 1.0 -0.0
outer loop
vertex 0.544022099302206 -5.2217372545419 10.0
vertex 0.5 -5.2217372545419 1.5
vertex 0.5 -5.2217372545419 10.0
endloop
endfacet
facet normal -0.232560265797315 0.97258198768653 -0.0
outer loop
vertex 0.544022099302206 -5.2217372545419 10.0
vertex 1.5 -4.99314729760524 0.0
vertex 0.544022099302206 -5.2217372545419 0.0
endloop
endfacet
facet normal -0.232560265797315 0.97258198768653 -0.0
outer loop
vertex 1.5 -4.99314729760524 0.0
vertex 0.544022099302206 -5.2217372545419 10.0
vertex 1.5 -4.99314729760524 10.0
endloop
endfacet
facet normal -0.232560265797314 0.972581987686531 -0.0
outer loop
vertex 1.5 -4.99314729760524 10.0
vertex 1.7 -4.94532402537901 0.0
vertex 1.5 -4.99314729760524 0.0
endloop
endfacet
facet normal -0.232560265797314 0.972581987686531 -0.0
outer loop
vertex 1.7 -4.94532402537901 0.0
vertex 1.5 -4.99314729760524 10.0
vertex 1.7 -4.94532402537901 10.0
endloop
endfacet
facet normal -0.232560265797315 0.97258198768653 -0.0
outer loop
vertex 1.7 -4.94532402537901 10.0
vertex 1.87697004578479 -4.90300759200173 0.0
vertex 1.7 -4.94532402537901 0.0
endloop
endfacet
facet normal -0.232560265797315 0.97258198768653 -0.0
outer loop
vertex 1.87697004578479 -4.90300759200173 0.0
vertex 1.7 -4.94532402537901 10.0
vertex 1.87697004578479 -4.90300759200173 10.0
endloop
endfacet
facet normal -0.476358708239217 0.879251034167527 -0.0
outer loop
vertex 1.87697004578479 -4.90300759200173 10.0
vertex 3.0820055854868 -4.25014606466979 0.0
vertex 1.87697004578479 -4.90300759200173 0.0
endloop
endfacet
facet normal -0.476358708239217 0.879251034167527 -0.0
outer loop
vertex 3.0820055854868 -4.25014606466979 0.0
vertex 1.87697004578479 -4.90300759200173 10.0
vertex 3.0820055854868 -4.25014606466979 10.0
endloop
endfacet
facet normal -0.687694091934602 0.726000575701041 -0.0
outer loop
vertex 3.0820055854868 -4.25014606466979 10.0
vertex 4.07700753779294 -3.30764410672907 0.0
vertex 3.0820055854868 -4.25014606466979 0.0
endloop
endfacet
facet normal -0.687694091934602 0.726000575701041 -0.0
outer loop
vertex 4.07700753779294 -3.30764410672907 0.0
vertex 3.0820055854868 -4.25014606466979 10.0
vertex 4.07700753779294 -3.30764410672907 10.0
endloop
endfacet
facet normal -0.852164259732864 0.523274377773209 0.0
outer loop
vertex 4.794168163972 -2.1397316690551 10.0
vertex 4.07700753779294 -3.30764410672907 0.0
vertex 4.07700753779294 -3.30764410672907 10.0
endloop
endfacet
facet normal -0.852164259732864 0.523274377773209 0.0
outer loop
vertex 4.07700753779294 -3.30764410672907 0.0
vertex 4.794168163972 -2.1397316690551 10.0
vertex 4.794168163972 -2.1397316690551 0.0
endloop
endfacet
facet normal -0.958560841498357 0.284887895751929 0.0
outer loop
vertex 5.18461415251387 -0.826000054208796 10.0
vertex 4.794168163972 -2.1397316690551 0.0
vertex 4.794168163972 -2.1397316690551 10.0
endloop
endfacet
facet normal -0.958560841498357 0.284887895751929 0.0
outer loop
vertex 4.794168163972 -2.1397316690551 0.0
vertex 5.18461415251387 -0.826000054208796 10.0
vertex 5.18461415251387 -0.826000054208796 0.0
endloop
endfacet
facet normal -0.0 1.0 -0.0
outer loop
vertex 2.0 0.5 1.5
vertex 5.2217372545419 0.5 0.0
vertex 2.0 0.5 0.0
endloop
endfacet
facet normal -0.0 1.0 -0.0
outer loop
vertex 5.2217372545419 0.5 0.0
vertex 2.0 0.5 1.5
vertex 5.2217372545419 0.5 1.5
endloop
endfacet
facet normal -1.0 0.0 0.0
outer loop
vertex 5.2217372545419 0.544022099302206 10.0
vertex 5.2217372545419 0.5 1.5
vertex 5.2217372545419 0.5 10.0
endloop
endfacet
facet normal -1.0 0.0 0.0
outer loop
vertex 5.2217372545419 0.5 1.5
vertex 5.2217372545419 0.544022099302206 10.0
vertex 5.2217372545419 0.5 0.0
endloop
endfacet
facet normal -1.0 0.0 0.0
outer loop
vertex 5.2217372545419 0.5 0.0
vertex 5.2217372545419 0.544022099302206 10.0
vertex 5.2217372545419 0.544022099302206 0.0
endloop
endfacet
facet normal -0.97258198768653 -0.232560265797315 0.0
outer loop
vertex 4.90300759200174 1.87697004578479 10.0
vertex 5.2217372545419 0.544022099302206 0.0
vertex 5.2217372545419 0.544022099302206 10.0
endloop
endfacet
facet normal -0.97258198768653 -0.232560265797315 0.0
outer loop
vertex 5.2217372545419 0.544022099302206 0.0
vertex 4.90300759200174 1.87697004578479 10.0
vertex 4.90300759200174 1.87697004578479 0.0
endloop
endfacet
facet normal -0.879251034167526 -0.476358708239217 0.0
outer loop
vertex 4.25014606466979 3.08200558548681 10.0
vertex 4.90300759200174 1.87697004578479 0.0
vertex 4.90300759200174 1.87697004578479 10.0
endloop
endfacet
facet normal -0.879251034167526 -0.476358708239217 0.0
outer loop
vertex 4.90300759200174 1.87697004578479 0.0
vertex 4.25014606466979 3.08200558548681 10.0
vertex 4.25014606466979 3.08200558548681 0.0
endloop
endfacet
facet normal -0.726000575701041 -0.687694091934602 0.0
outer loop
vertex 3.30764410672907 4.07700753779294 10.0
vertex 4.25014606466979 3.08200558548681 0.0
vertex 4.25014606466979 3.08200558548681 10.0
endloop
endfacet
facet normal -0.726000575701041 -0.687694091934602 0.0
outer loop
vertex 4.25014606466979 3.08200558548681 0.0
vertex 3.30764410672907 4.07700753779294 10.0
vertex 3.30764410672907 4.07700753779294 0.0
endloop
endfacet
facet normal -0.523274377773209 -0.852164259732864 0.0
outer loop
vertex 3.30764410672907 4.07700753779294 10.0
vertex 2.1397316690551 4.794168163972 0.0
vertex 3.30764410672907 4.07700753779294 0.0
endloop
endfacet
facet normal -0.523274377773209 -0.852164259732864 0.0
outer loop
vertex 2.1397316690551 4.794168163972 0.0
vertex 3.30764410672907 4.07700753779294 10.0
vertex 2.1397316690551 4.794168163972 10.0
endloop
endfacet
facet normal -0.284887895751928 -0.958560841498357 0.0
outer loop
vertex 2.1397316690551 4.794168163972 10.0
vertex 1.7 4.92485807375047 0.0
vertex 2.1397316690551 4.794168163972 0.0
endloop
endfacet
facet normal -0.284887895751928 -0.958560841498357 0.0
outer loop
vertex 1.7 4.92485807375047 0.0
vertex 2.1397316690551 4.794168163972 10.0
vertex 1.7 4.92485807375047 10.0
endloop
endfacet
facet normal -0.284887895751927 -0.958560841498357 0.0
outer loop
vertex 1.7 4.92485807375047 10.0
vertex 1.5 4.98429882772632 0.0
vertex 1.7 4.92485807375047 0.0
endloop
endfacet
facet normal -0.284887895751927 -0.958560841498357 0.0
outer loop
vertex 1.5 4.98429882772632 0.0
vertex 1.7 4.92485807375047 10.0
vertex 1.5 4.98429882772632 10.0
endloop
endfacet
facet normal -0.284887895751928 -0.958560841498357 0.0
outer loop
vertex 1.5 4.98429882772632 10.0
vertex 0.826000054208795 5.18461415251387 0.0
vertex 1.5 4.98429882772632 0.0
endloop
endfacet
facet normal -0.284887895751928 -0.958560841498357 0.0
outer loop
vertex 0.826000054208795 5.18461415251387 0.0
vertex 1.5 4.98429882772632 10.0
vertex 0.826000054208795 5.18461415251387 10.0
endloop
endfacet
facet normal -0.0279853398507237 -0.999608333675465 0.0
outer loop
vertex 0.826000054208795 5.18461415251387 10.0
vertex 0.5 5.19374094948128 0.0
vertex 0.826000054208795 5.18461415251387 0.0
endloop
endfacet
facet normal -0.0279853398507237 -0.999608333675465 0.0
outer loop
vertex 0.5 5.19374094948128 0.0
vertex 0.826000054208795 5.18461415251387 10.0
vertex 0.5 5.19374094948128 1.5
endloop
endfacet
facet normal -0.0279853398507237 -0.999608333675465 0.0
outer loop
vertex 0.5 5.19374094948128 1.5
vertex 0.826000054208795 5.18461415251387 10.0
vertex 0.5 5.19374094948128 10.0
endloop
endfacet
facet normal 1.0 -0.0 -0.0
outer loop
vertex 0.5 5.19374094948128 0.0
vertex 0.5 2.0 1.5
vertex 0.5 2.0 0.0
endloop
endfacet
facet normal 1.0 -0.0 -0.0
outer loop
vertex 0.5 2.0 1.5
vertex 0.5 5.19374094948128 0.0
vertex 0.5 5.19374094948128 1.5
endloop
endfacet
facet normal -0.0 1.0 -0.0
outer loop
vertex 0.5 2.0 1.5
vertex 2.0 2.0 0.0
vertex 0.5 2.0 0.0
endloop
endfacet
facet normal -0.0 1.0 -0.0
outer loop
vertex 2.0 2.0 0.0
vertex 0.5 2.0 1.5
vertex 2.0 2.0 1.5
endloop
endfacet
facet normal 1.0 -0.0 -0.0
outer loop
vertex 2.0 2.0 0.0
vertex 2.0 0.5 1.5
vertex 2.0 0.5 0.0
endloop
endfacet
facet normal 1.0 -0.0 -0.0
outer loop
vertex 2.0 0.5 1.5
vertex 2.0 2.0 0.0
vertex 2.0 2.0 1.5
endloop
endfacet
facet normal 0.0 0.0 -1.0
outer loop
vertex 0.5 5.19374094948128 1.5
vertex -0.5 2.0 1.5
vertex -0.5 5.22173725454191 1.5
endloop
endfacet
facet normal 0.0 0.0 -1.0
outer loop
vertex -2.0 2.0 1.5
vertex -1.5 1.5 1.5
vertex -2.0 0.5 1.5
endloop
endfacet
facet normal 0.0 0.0 -1.0
outer loop
vertex -1.5 1.5 1.5
vertex -2.0 2.0 1.5
vertex -0.5 2.0 1.5
endloop
endfacet
facet normal 0.0 0.0 -1.0
outer loop
vertex -2.0 0.5 1.5
vertex -1.5 1.5 1.5
vertex -2.0 -0.5 1.5
endloop
endfacet
facet normal 0.0 0.0 -1.0
outer loop
vertex -2.0 -0.5 1.5
vertex -1.5 1.5 1.5
vertex -2.0 -2.0 1.5
endloop
endfacet
facet normal 0.0 0.0 -1.0
outer loop
vertex -1.5 1.5 1.5
vertex -0.5 2.0 1.5
vertex 1.5 1.5 1.5
endloop
endfacet
facet normal 0.0 0.0 -1.0
outer loop
vertex 1.5 1.5 1.5
vertex -0.5 2.0 1.5
vertex 0.5 2.0 1.5
endloop
endfacet
facet normal 0.0 0.0 -1.0
outer loop
vertex 0.5 2.0 1.5
vertex -0.5 2.0 1.5
vertex 0.5 5.19374094948128 1.5
endloop
endfacet
facet normal 0.0 0.0 -1.0
outer loop
vertex 1.5 1.5 1.5
vertex 0.5 2.0 1.5
vertex 2.0 2.0 1.5
endloop
endfacet
facet normal 0.0 0.0 -1.0
outer loop
vertex 1.5 1.5 1.5
vertex 2.0 2.0 1.5
vertex 1.5 -1.5 1.5
endloop
endfacet
facet normal 0.0 0.0 -1.0
outer loop
vertex 5.2217372545419 0.5 1.5
vertex 2.0 -0.5 1.5
vertex 2.0 0.5 1.5
endloop
endfacet
facet normal 0.0 0.0 -1.0
outer loop
vertex 2.0 -0.5 1.5
vertex 5.2217372545419 0.5 1.5
vertex 5.19344768359402 -0.5 1.5
endloop
endfacet
facet normal 0.0 0.0 -1.0
outer loop
vertex -2.0 -2.0 1.5
vertex -1.5 -1.5 1.5
vertex -0.5 -2.0 1.5
endloop
endfacet
facet normal 0.0 0.0 -1.0
outer loop
vertex -1.5 -1.5 1.5
vertex -2.0 -2.0 1.5
vertex -1.5 1.5 1.5
endloop
endfacet
facet normal 0.0 0.0 -1.0
outer loop
vertex -0.5 -2.0 1.5
vertex -1.5 -1.5 1.5
vertex 1.5 -1.5 1.5
endloop
endfacet
facet normal 0.0 0.0 -1.0
outer loop
vertex -0.5 -2.0 1.5
vertex 1.5 -1.5 1.5
vertex 0.5 -2.0 1.5
endloop
endfacet
facet normal 0.0 0.0 -1.0
outer loop
vertex 0.5 -2.0 1.5
vertex 1.5 -1.5 1.5
vertex 2.0 -2.0 1.5
endloop
endfacet
facet normal 0.0 0.0 -1.0
outer loop
vertex 2.0 -2.0 1.5
vertex 1.5 -1.5 1.5
vertex 2.0 2.0 1.5
endloop
endfacet
facet normal 0.0 0.0 -1.0
outer loop
vertex 2.0 -2.0 1.5
vertex 2.0 2.0 1.5
vertex 2.0 0.5 1.5
endloop
endfacet
facet normal 0.0 0.0 -1.0
outer loop
vertex 2.0 -2.0 1.5
vertex 2.0 0.5 1.5
vertex 2.0 -0.5 1.5
endloop
endfacet
facet normal 0.0 0.0 -1.0
outer loop
vertex -0.5 -2.0 1.5
vertex 0.5 -5.2217372545419 1.5
vertex -0.5 -5.19344768359402 1.5
endloop
endfacet
facet normal 0.0 0.0 -1.0
outer loop
vertex 0.5 -5.2217372545419 1.5
vertex -0.5 -2.0 1.5
vertex 0.5 -2.0 1.5
endloop
endfacet
facet normal -0.999608333675465 0.0279853398507244 5.370611184793e-032
outer loop
vertex -5.19374094948128 0.5 10.0
vertex -5.22173725454191 -0.5 1.5
vertex -5.22173725454191 -0.5 10.0
endloop
endfacet
facet normal -0.999608333675465 0.0279853398507244 5.370611184793e-032
outer loop
vertex -5.22173725454191 -0.5 1.5
vertex -5.19374094948128 0.5 10.0
vertex -5.19374094948128 0.5 1.5
endloop
endfacet
facet normal 0.0279853398507244 0.999608333675465 -2.69689489278332e-032
outer loop
vertex -0.5 5.22173725454191 10.0
vertex 0.5 5.19374094948128 1.5
vertex -0.5 5.22173725454191 1.5
endloop
endfacet
facet normal 0.0279853398507244 0.999608333675465 -2.69689489278332e-032
outer loop
vertex 0.5 5.19374094948128 1.5
vertex -0.5 5.22173725454191 10.0
vertex 0.5 5.19374094948128 10.0
endloop
endfacet
facet normal 0.999600090107653 -0.028278257668612 -5.36982067287496e-032
outer loop
vertex 5.2217372545419 0.5 1.5
vertex 5.19344768359402 -0.5 10.0
vertex 5.19344768359402 -0.5 1.5
endloop
endfacet
facet normal 0.999600090107653 -0.028278257668612 -5.36982067287496e-032
outer loop
vertex 5.19344768359402 -0.5 10.0
vertex 5.2217372545419 0.5 1.5
vertex 5.2217372545419 0.5 10.0
endloop
endfacet
facet normal -0.028278257668612 -0.999600090107653 2.69846854754862e-032
outer loop
vertex 0.5 -5.2217372545419 10.0
vertex -0.5 -5.19344768359402 1.5
vertex 0.5 -5.2217372545419 1.5
endloop
endfacet
facet normal -0.028278257668612 -0.999600090107653 2.69846854754862e-032
outer loop
vertex -0.5 -5.19344768359402 1.5
vertex 0.5 -5.2217372545419 10.0
vertex -0.5 -5.19344768359402 10.0
endloop
endfacet
facet normal -5.44398121736597e-032 -2.54554023066047e-032 -1.0
outer loop
vertex -6.42682918071953 5.21403589949434 10.0
vertex -5.18461415251387 0.826000054208795 10.0
vertex -5.22173725454191 -0.5 10.0
endloop
endfacet
facet normal -5.44398121736597e-032 -2.54554023066047e-032 -1.0
outer loop
vertex -5.18461415251387 0.826000054208795 10.0
vertex -6.42682918071953 5.21403589949434 10.0
vertex -4.85834849416782 6.69975772611078 10.0
endloop
endfacet
facet normal -5.44398121736597e-032 -2.54554023066047e-032 -1.0
outer loop
vertex -5.22173725454191 -0.5 10.0
vertex -5.18461415251387 0.826000054208795 10.0
vertex -5.19374094948128 0.5 10.0
endloop
endfacet
facet normal -5.44398121736597e-032 -2.54554023066047e-032 -1.0
outer loop
vertex -5.18461415251387 0.826000054208795 10.0
vertex -4.85834849416782 6.69975772611078 10.0
vertex -4.98429882772632 1.5 10.0
endloop
endfacet
facet normal -5.44398121736597e-032 -2.54554023066047e-032 -1.0
outer loop
vertex -4.98429882772632 1.5 10.0
vertex -4.85834849416782 6.69975772611078 10.0
vertex -4.92485807375047 1.7 10.0
endloop
endfacet
facet normal -5.44398121736597e-032 -2.54554023066047e-032 -1.0
outer loop
vertex -4.92485807375047 1.7 10.0
vertex -4.85834849416782 6.69975772611078 10.0
vertex -4.794168163972 2.1397316690551 10.0
endloop
endfacet
facet normal -5.44398121736597e-032 -2.54554023066047e-032 -1.0
outer loop
vertex -4.794168163972 2.1397316690551 10.0
vertex -4.85834849416782 6.69975772611078 10.0
vertex -2.95877938653908 7.72890213556591 10.0
endloop
endfacet
facet normal -5.44398121736597e-032 -2.54554023066047e-032 -1.0
outer loop
vertex -4.794168163972 2.1397316690551 10.0
vertex -2.95877938653908 7.72890213556591 10.0
vertex -4.07700753779294 3.30764410672907 10.0
endloop
endfacet
facet normal -5.44398121736597e-032 -2.54554023066047e-032 -1.0
outer loop
vertex -4.07700753779294 3.30764410672907 10.0
vertex -2.95877938653908 7.72890213556591 10.0
vertex -3.0820055854868 4.25014606466979 10.0
endloop
endfacet
facet normal -5.44398121736597e-032 -2.54554023066047e-032 -1.0
outer loop
vertex -3.0820055854868 4.25014606466979 10.0
vertex -2.95877938653908 7.72890213556591 10.0
vertex -1.87697004578479 4.90300759200173 10.0
endloop
endfacet
facet normal -5.44398121736597e-032 -2.54554023066047e-032 -1.0
outer loop
vertex -1.87697004578479 4.90300759200173 10.0
vertex -2.95877938653908 7.72890213556591 10.0
vertex -2.39768079739195 7.8630699884386 10.0
endloop
endfacet
facet normal -5.44398121736597e-032 -2.54554023066047e-032 -1.0
outer loop
vertex -1.87697004578479 4.90300759200173 10.0
vertex -2.39768079739195 7.8630699884386 10.0
vertex -2.19768079739196 7.91089326066483 10.0
endloop
endfacet
facet normal -5.44398121736597e-032 -2.54554023066047e-032 -1.0
outer loop
vertex -1.87697004578479 4.90300759200173 10.0
vertex -2.19768079739196 7.91089326066483 10.0
vertex -0.857574353331827 8.23133463709691 10.0
endloop
endfacet
facet normal -5.44398121736597e-032 -2.54554023066047e-032 -1.0
outer loop
vertex -1.87697004578479 4.90300759200173 10.0
vertex -0.857574353331827 8.23133463709691 10.0
vertex -1.7 4.94532402537901 10.0
endloop
endfacet
facet normal -5.44398121736597e-032 -2.54554023066047e-032 -1.0
outer loop
vertex -1.7 4.94532402537901 10.0
vertex -0.857574353331827 8.23133463709691 10.0
vertex -1.5 4.99314729760524 10.0
endloop
endfacet
facet normal -5.44398121736597e-032 -2.54554023066047e-032 -1.0
outer loop
vertex -1.5 4.99314729760524 10.0
vertex -0.857574353331827 8.23133463709691 10.0
vertex -0.544022099302208 5.22173725454191 10.0
endloop
endfacet
facet normal -5.44398121736597e-032 -2.54554023066047e-032 -1.0
outer loop
vertex -0.544022099302208 5.22173725454191 10.0
vertex -0.857574353331827 8.23133463709691 10.0
vertex 1.30207295484637 8.17281528603342 10.0
endloop
endfacet
facet normal -5.44398121736597e-032 -2.54554023066047e-032 -1.0
outer loop
vertex -0.544022099302208 5.22173725454191 10.0
vertex 1.30207295484637 8.17281528603342 10.0
vertex -0.5 5.22173725454191 10.0
endloop
endfacet
facet normal -5.44398121736597e-032 -2.54554023066047e-032 -1.0
outer loop
vertex -0.5 5.22173725454191 10.0
vertex 1.30207295484637 8.17281528603342 10.0
vertex 0.5 5.19374094948128 10.0
endloop
endfacet
facet normal -5.44398121736597e-032 -2.54554023066047e-032 -1.0
outer loop
vertex 0.5 5.19374094948128 10.0
vertex 1.30207295484637 8.17281528603342 10.0
vertex 0.826000054208795 5.18461415251387 10.0
endloop
endfacet
facet normal -5.44398121736597e-032 -2.54554023066047e-032 -1.0
outer loop
vertex 0.826000054208795 5.18461415251387 10.0
vertex 1.30207295484637 8.17281528603342 10.0
vertex 1.5 4.98429882772632 10.0
endloop
endfacet
facet normal -5.44398121736597e-032 -2.54554023066047e-032 -1.0
outer loop
vertex 1.5 4.98429882772632 10.0
vertex 1.30207295484637 8.17281528603342 10.0
vertex 2.35466368725578 7.85998135222139 10.0
endloop
endfacet
facet normal -5.44398121736597e-032 -2.54554023066047e-032 -1.0
outer loop
vertex 1.5 4.98429882772632 10.0
vertex 2.35466368725578 7.85998135222139 10.0
vertex 1.7 4.92485807375047 10.0
endloop
endfacet
facet normal -5.44398121736597e-032 -2.54554023066047e-032 -1.0
outer loop
vertex 1.7 4.92485807375047 10.0
vertex 2.35466368725578 7.85998135222139 10.0
vertex 2.1397316690551 4.794168163972 10.0
endloop
endfacet
facet normal -5.44398121736597e-032 -2.54554023066047e-032 -1.0
outer loop
vertex 2.1397316690551 4.794168163972 10.0
vertex 2.35466368725578 7.85998135222139 10.0
vertex 3.30764410672907 4.07700753779294 10.0
endloop
endfacet
facet normal -5.44398121736597e-032 -2.54554023066047e-032 -1.0
outer loop
vertex 3.30764410672907 4.07700753779294 10.0
vertex 2.35466368725578 7.85998135222139 10.0
vertex 2.55466368725578 7.80054059824554 10.0
endloop
endfacet
facet normal -5.44398121736597e-032 -2.54554023066047e-032 -1.0
outer loop
vertex 3.30764410672907 4.07700753779294 10.0
vertex 2.55466368725578 7.80054059824554 10.0
vertex 3.37298614292909 7.5573320794426 10.0
endloop
endfacet
facet normal -5.44398121736597e-032 -2.54554023066047e-032 -1.0
outer loop
vertex 3.30764410672907 4.07700753779294 10.0
vertex 3.37298614292909 7.5573320794426 10.0
vertex 4.25014606466979 3.08200558548681 10.0
endloop
endfacet
facet normal -5.44398121736597e-032 -2.54554023066047e-032 -1.0
outer loop
vertex 4.25014606466979 3.08200558548681 10.0
vertex 3.37298614292909 7.5573320794426 10.0
vertex 5.21403589949432 6.42682918071954 10.0
endloop
endfacet
facet normal -5.44398121736597e-032 -2.54554023066047e-032 -1.0
outer loop
vertex 4.25014606466979 3.08200558548681 10.0
vertex 5.21403589949432 6.42682918071954 10.0
vertex 4.90300759200174 1.87697004578479 10.0
endloop
endfacet
facet normal -5.44398121736597e-032 -2.54554023066047e-032 -1.0
outer loop
vertex 4.90300759200174 1.87697004578479 10.0
vertex 5.21403589949432 6.42682918071954 10.0
vertex 5.2217372545419 0.544022099302206 10.0
endloop
endfacet
facet normal -5.44398121736597e-032 -2.54554023066047e-032 -1.0
outer loop
vertex 5.2217372545419 0.544022099302206 10.0
vertex 5.21403589949432 6.42682918071954 10.0
vertex 6.69975772611078 4.85834849416782 10.0
endloop
endfacet
facet normal -5.44398121736597e-032 -2.54554023066047e-032 -1.0
outer loop
vertex 5.2217372545419 0.544022099302206 10.0
vertex 6.69975772611078 4.85834849416782 10.0
vertex 5.2217372545419 0.5 10.0
endloop
endfacet
facet normal -5.44398121736597e-032 -2.54554023066047e-032 -1.0
outer loop
vertex 5.2217372545419 0.5 10.0
vertex 6.69975772611078 4.85834849416782 10.0
vertex 6.42682918071953 -5.21403589949434 10.0
endloop
endfacet
facet normal -5.44398121736597e-032 -2.54554023066047e-032 -1.0
outer loop
vertex 6.42682918071953 -5.21403589949434 10.0
vertex 6.69975772611078 4.85834849416782 10.0
vertex 7.5573320794426 -3.37298614292909 10.0
endloop
endfacet
facet normal -5.44398121736597e-032 -2.54554023066047e-032 -1.0
outer loop
vertex 7.5573320794426 -3.37298614292909 10.0
vertex 6.69975772611078 4.85834849416782 10.0
vertex 7.72890213556591 2.95877938653908 10.0
endloop
endfacet
facet normal -5.44398121736597e-032 -2.54554023066047e-032 -1.0
outer loop
vertex 7.5573320794426 -3.37298614292909 10.0
vertex 7.72890213556591 2.95877938653908 10.0
vertex 8.17281528603342 -1.30207295484638 10.0
endloop
endfacet
facet normal -5.44398121736597e-032 -2.54554023066047e-032 -1.0
outer loop
vertex 8.17281528603342 -1.30207295484638 10.0
vertex 7.72890213556591 2.95877938653908 10.0
vertex 8.23133463709691 0.857574353331818 10.0
endloop
endfacet
facet normal -5.44398121736597e-032 -2.54554023066047e-032 -1.0
outer loop
vertex -8.17281528603342 1.30207295484638 10.0
vertex -7.72890213556591 -2.95877938653908 10.0
vertex -8.23133463709691 -0.857574353331818 10.0
endloop
endfacet
facet normal -5.44398121736597e-032 -2.54554023066047e-032 -1.0
outer loop
vertex -7.72890213556591 -2.95877938653908 10.0
vertex -8.17281528603342 1.30207295484638 10.0
vertex -7.85998135222139 2.35466368725578 10.0
endloop
endfacet
facet normal -5.44398121736597e-032 -2.54554023066047e-032 -1.0
outer loop
vertex -7.72890213556591 -2.95877938653908 10.0
vertex -7.85998135222139 2.35466368725578 10.0
vertex -7.80054059824554 2.55466368725578 10.0
endloop
endfacet
facet normal -5.44398121736597e-032 -2.54554023066047e-032 -1.0
outer loop
vertex -7.72890213556591 -2.95877938653908 10.0
vertex -7.80054059824554 2.55466368725578 10.0
vertex -7.5573320794426 3.37298614292909 10.0
endloop
endfacet
facet normal -5.44398121736597e-032 -2.54554023066047e-032 -1.0
outer loop
vertex -7.72890213556591 -2.95877938653908 10.0
vertex -7.5573320794426 3.37298614292909 10.0
vertex -6.69975772611079 -4.85834849416781 10.0
endloop
endfacet
facet normal -5.44398121736597e-032 -2.54554023066047e-032 -1.0
outer loop
vertex -6.69975772611079 -4.85834849416781 10.0
vertex -7.5573320794426 3.37298614292909 10.0
vertex -6.42682918071953 5.21403589949434 10.0
endloop
endfacet
facet normal -5.44398121736597e-032 -2.54554023066047e-032 -1.0
outer loop
vertex -6.69975772611079 -4.85834849416781 10.0
vertex -6.42682918071953 5.21403589949434 10.0
vertex -5.21403589949435 -6.42682918071953 10.0
endloop
endfacet
facet normal -5.44398121736597e-032 -2.54554023066047e-032 -1.0
outer loop
vertex -5.21403589949435 -6.42682918071953 10.0
vertex -6.42682918071953 5.21403589949434 10.0
vertex -5.22173725454191 -0.544022099302206 10.0
endloop
endfacet
facet normal -5.44398121736597e-032 -2.54554023066047e-032 -1.0
outer loop
vertex -5.22173725454191 -0.544022099302206 10.0
vertex -6.42682918071953 5.21403589949434 10.0
vertex -5.22173725454191 -0.5 10.0
endloop
endfacet
facet normal -5.44398121736597e-032 -2.54554023066047e-032 -1.0
outer loop
vertex -5.21403589949435 -6.42682918071953 10.0
vertex -5.22173725454191 -0.544022099302206 10.0
vertex -4.90300759200173 -1.87697004578479 10.0
endloop
endfacet
facet normal -5.44398121736597e-032 -2.54554023066047e-032 -1.0
outer loop
vertex -5.21403589949435 -6.42682918071953 10.0
vertex -4.90300759200173 -1.87697004578479 10.0
vertex -3.37298614292909 -7.5573320794426 10.0
endloop
endfacet
facet normal -5.44398121736597e-032 -2.54554023066047e-032 -1.0
outer loop
vertex -3.37298614292909 -7.5573320794426 10.0
vertex -4.90300759200173 -1.87697004578479 10.0
vertex -4.25014606466979 -3.0820055854868 10.0
endloop
endfacet
facet normal -5.44398121736597e-032 -2.54554023066047e-032 -1.0
outer loop
vertex -3.37298614292909 -7.5573320794426 10.0
vertex -4.25014606466979 -3.0820055854868 10.0
vertex -3.30764410672907 -4.07700753779294 10.0
endloop
endfacet
facet normal -5.44398121736597e-032 -2.54554023066047e-032 -1.0
outer loop
vertex -3.37298614292909 -7.5573320794426 10.0
vertex -3.30764410672907 -4.07700753779294 10.0
vertex -2.55466368725578 -7.80054059824554 10.0
endloop
endfacet
facet normal -5.44398121736597e-032 -2.54554023066047e-032 -1.0
outer loop
vertex -2.55466368725578 -7.80054059824554 10.0
vertex -3.30764410672907 -4.07700753779294 10.0
vertex -2.1397316690551 -4.794168163972 10.0
endloop
endfacet
facet normal -5.44398121736597e-032 -2.54554023066047e-032 -1.0
outer loop
vertex -2.55466368725578 -7.80054059824554 10.0
vertex -2.1397316690551 -4.794168163972 10.0
vertex -2.35466368725578 -7.85998135222139 10.0
endloop
endfacet
facet normal -5.44398121736597e-032 -2.54554023066047e-032 -1.0
outer loop
vertex -2.35466368725578 -7.85998135222139 10.0
vertex -2.1397316690551 -4.794168163972 10.0
vertex -1.30207295484638 -8.17281528603341 10.0
endloop
endfacet
facet normal -5.44398121736597e-032 -2.54554023066047e-032 -1.0
outer loop
vertex -1.30207295484638 -8.17281528603341 10.0
vertex -2.1397316690551 -4.794168163972 10.0
vertex -1.7 -4.92485807375047 10.0
endloop
endfacet
facet normal -5.44398121736597e-032 -2.54554023066047e-032 -1.0
outer loop
vertex -1.30207295484638 -8.17281528603341 10.0
vertex -1.7 -4.92485807375047 10.0
vertex -1.5 -4.98429882772632 10.0
endloop
endfacet
facet normal -5.44398121736597e-032 -2.54554023066047e-032 -1.0
outer loop
vertex -1.30207295484638 -8.17281528603341 10.0
vertex -1.5 -4.98429882772632 10.0
vertex -0.826000054208797 -5.18461415251387 10.0
endloop
endfacet
facet normal -5.44398121736597e-032 -2.54554023066047e-032 -1.0
outer loop
vertex -1.30207295484638 -8.17281528603341 10.0
vertex -0.826000054208797 -5.18461415251387 10.0
vertex 0.857574353331825 -8.23133463709691 10.0
endloop
endfacet
facet normal -5.44398121736597e-032 -2.54554023066047e-032 -1.0
outer loop
vertex 0.857574353331825 -8.23133463709691 10.0
vertex -0.826000054208797 -5.18461415251387 10.0
vertex -0.5 -5.19344768359402 10.0
endloop
endfacet
facet normal -5.44398121736597e-032 -2.54554023066047e-032 -1.0
outer loop
vertex 0.857574353331825 -8.23133463709691 10.0
vertex -0.5 -5.19344768359402 10.0
vertex 0.5 -5.2217372545419 10.0
endloop
endfacet
facet normal -5.44398121736597e-032 -2.54554023066047e-032 -1.0
outer loop
vertex 0.857574353331825 -8.23133463709691 10.0
vertex 0.5 -5.2217372545419 10.0
vertex 0.544022099302206 -5.2217372545419 10.0
endloop
endfacet
facet normal -5.44398121736597e-032 -2.54554023066047e-032 -1.0
outer loop
vertex 0.857574353331825 -8.23133463709691 10.0
vertex 0.544022099302206 -5.2217372545419 10.0
vertex 1.5 -4.99314729760524 10.0
endloop
endfacet
facet normal -5.44398121736597e-032 -2.54554023066047e-032 -1.0
outer loop
vertex 0.857574353331825 -8.23133463709691 10.0
vertex 1.5 -4.99314729760524 10.0
vertex 2.19768079739194 -7.91089326066483 10.0
endloop
endfacet
facet normal -5.44398121736597e-032 -2.54554023066047e-032 -1.0
outer loop
vertex 2.19768079739194 -7.91089326066483 10.0
vertex 1.5 -4.99314729760524 10.0
vertex 1.7 -4.94532402537901 10.0
endloop
endfacet
facet normal -5.44398121736597e-032 -2.54554023066047e-032 -1.0
outer loop
vertex 2.19768079739194 -7.91089326066483 10.0
vertex 1.7 -4.94532402537901 10.0
vertex 1.87697004578479 -4.90300759200173 10.0
endloop
endfacet
facet normal -5.44398121736597e-032 -2.54554023066047e-032 -1.0
outer loop
vertex 2.19768079739194 -7.91089326066483 10.0
vertex 1.87697004578479 -4.90300759200173 10.0
vertex 3.0820055854868 -4.25014606466979 10.0
endloop
endfacet
facet normal -5.44398121736597e-032 -2.54554023066047e-032 -1.0
outer loop
vertex 2.19768079739194 -7.91089326066483 10.0
vertex 3.0820055854868 -4.25014606466979 10.0
vertex 2.39768079739195 -7.8630699884386 10.0
endloop
endfacet
facet normal -5.44398121736597e-032 -2.54554023066047e-032 -1.0
outer loop
vertex 2.39768079739195 -7.8630699884386 10.0
vertex 3.0820055854868 -4.25014606466979 10.0
vertex 2.95877938653907 -7.72890213556591 10.0
endloop
endfacet
facet normal -5.44398121736597e-032 -2.54554023066047e-032 -1.0
outer loop
vertex 2.95877938653907 -7.72890213556591 10.0
vertex 3.0820055854868 -4.25014606466979 10.0
vertex 4.85834849416782 -6.69975772611078 10.0
endloop
endfacet
facet normal -5.44398121736597e-032 -2.54554023066047e-032 -1.0
outer loop
vertex 4.85834849416782 -6.69975772611078 10.0
vertex 3.0820055854868 -4.25014606466979 10.0
vertex 4.07700753779294 -3.30764410672907 10.0
endloop
endfacet
facet normal -5.44398121736597e-032 -2.54554023066047e-032 -1.0
outer loop
vertex 4.85834849416782 -6.69975772611078 10.0
vertex 4.07700753779294 -3.30764410672907 10.0
vertex 4.794168163972 -2.1397316690551 10.0
endloop
endfacet
facet normal -5.44398121736597e-032 -2.54554023066047e-032 -1.0
outer loop
vertex 4.85834849416782 -6.69975772611078 10.0
vertex 4.794168163972 -2.1397316690551 10.0
vertex 5.18461415251387 -0.826000054208796 10.0
endloop
endfacet
facet normal -5.44398121736597e-032 -2.54554023066047e-032 -1.0
outer loop
vertex 4.85834849416782 -6.69975772611078 10.0
vertex 5.18461415251387 -0.826000054208796 10.0
vertex 6.42682918071953 -5.21403589949434 10.0
endloop
endfacet
facet normal -5.44398121736597e-032 -2.54554023066047e-032 -1.0
outer loop
vertex 6.42682918071953 -5.21403589949434 10.0
vertex 5.18461415251387 -0.826000054208796 10.0
vertex 5.19344768359402 -0.5 10.0
endloop
endfacet
facet normal -5.44398121736597e-032 -2.54554023066047e-032 -1.0
outer loop
vertex 6.42682918071953 -5.21403589949434 10.0
vertex 5.19344768359402 -0.5 10.0
vertex 5.2217372545419 0.5 10.0
endloop
endfacet
endsolid crosshair
