solid headdown_motor
facet normal -0.0 0.865184057436663 -0.501454431386775
outer loop
vertex 0.0 6.52605205317952 10.5674399190518
vertex 20.0 5.91079444067212 9.50590562153678
vertex 0.0 5.91079444067212 9.50590562153678
endloop
endfacet
facet normal -0.0 0.865184057436663 -0.501454431386775
outer loop
vertex 20.0 5.91079444067212 9.50590562153678
vertex 0.0 6.52605205317952 10.5674399190518
vertex 20.0 6.52605205317952 10.5674399190518
endloop
endfacet
facet normal -0.0 0.999998588382832 -0.0016802477028961
outer loop
vertex 0.0 5.59124651615668 8.3213018403142
vertex 20.0 5.58918494261101 7.09435736542405
vertex 0.0 5.58918494261101 7.09435736542405
endloop
endfacet
facet normal -0.0 0.999998588382832 -0.0016802477028961
outer loop
vertex 20.0 5.58918494261101 7.09435736542405
vertex 0.0 5.59124651615668 8.3213018403142
vertex 20.0 5.59124651615668 8.3213018403142
endloop
endfacet
facet normal -0.0 0.96548958266559 -0.260441674399904
outer loop
vertex 0.0 5.91079444067212 9.50590562153678
vertex 20.0 5.59124651615668 8.3213018403142
vertex 0.0 5.59124651615668 8.3213018403142
endloop
endfacet
facet normal -0.0 0.96548958266559 -0.260441674399904
outer loop
vertex 20.0 5.59124651615668 8.3213018403142
vertex 0.0 5.91079444067212 9.50590562153678
vertex 20.0 5.91079444067212 9.50590562153678
endloop
endfacet
facet normal -0.0 0.705917668477684 -0.708293897567268
outer loop
vertex 20.0 7.39509056414777 11.4335629247519
vertex 0.0 6.52605205317952 10.5674399190518
vertex 0.0 7.39509056414777 11.4335629247519
endloop
endfacet
facet normal -0.0 0.705917668477684 -0.708293897567268
outer loop
vertex 0.0 6.52605205317952 10.5674399190518
vertex 20.0 7.39509056414777 11.4335629247519
vertex 20.0 6.52605205317952 10.5674399190518
endloop
endfacet
facet normal -0.0 0.498544156996057 -0.866864305139559
outer loop
vertex 20.0 8.45868643520844 12.0452497871347
vertex 0.0 7.39509056414777 11.4335629247519
vertex 0.0 8.45868643520844 12.0452497871347
endloop
endfacet
facet normal -0.0 0.498544156996057 -0.866864305139559
outer loop
vertex 0.0 7.39509056414777 11.4335629247519
vertex 20.0 8.45868643520844 12.0452497871347
vertex 20.0 7.39509056414777 11.4335629247519
endloop
endfacet
facet normal -0.0 0.257195685098323 -0.966359342877588
outer loop
vertex 20.0 9.64435736542402 12.360815057389
vertex 0.0 8.45868643520844 12.0452497871347
vertex 0.0 9.64435736542402 12.360815057389
endloop
endfacet
facet normal -0.0 0.257195685098323 -0.966359342877588
outer loop
vertex 0.0 8.45868643520844 12.0452497871347
vertex 20.0 9.64435736542402 12.360815057389
vertex 20.0 8.45868643520844 12.0452497871347
endloop
endfacet
facet normal -0.0 -0.00168024770289839 -0.999998588382832
outer loop
vertex 20.0 10.8713018403142 12.3587534838433
vertex 0.0 9.64435736542402 12.360815057389
vertex 0.0 10.8713018403142 12.3587534838433
endloop
endfacet
facet normal -0.0 -0.00168024770289839 -0.999998588382832
outer loop
vertex 0.0 9.64435736542402 12.360815057389
vertex 20.0 10.8713018403142 12.3587534838433
vertex 20.0 9.64435736542402 12.360815057389
endloop
endfacet
facet normal -0.0 -0.260441674399904 -0.96548958266559
outer loop
vertex 20.0 12.0559056215368 12.0392055593279
vertex 0.0 10.8713018403142 12.3587534838433
vertex 0.0 12.0559056215368 12.0392055593279
endloop
endfacet
facet normal -0.0 -0.260441674399904 -0.96548958266559
outer loop
vertex 0.0 10.8713018403142 12.3587534838433
vertex 20.0 12.0559056215368 12.0392055593279
vertex 20.0 10.8713018403142 12.3587534838433
endloop
endfacet
facet normal -0.0 -0.501454431386776 -0.865184057436662
outer loop
vertex 20.0 13.1174399190517 11.4239479468205
vertex 0.0 12.0559056215368 12.0392055593279
vertex 0.0 13.1174399190517 11.4239479468205
endloop
endfacet
facet normal -0.0 -0.501454431386776 -0.865184057436662
outer loop
vertex 0.0 12.0559056215368 12.0392055593279
vertex 20.0 13.1174399190517 11.4239479468205
vertex 20.0 12.0559056215368 12.0392055593279
endloop
endfacet
facet normal -0.0 -0.708293897567266 -0.705917668477685
outer loop
vertex 20.0 13.1174399190517 11.4239479468205
vertex 0.0 13.9835629247519 10.5549094358522
vertex 20.0 13.9835629247519 10.5549094358522
endloop
endfacet
facet normal -0.0 -0.708293897567266 -0.705917668477685
outer loop
vertex 0.0 13.9835629247519 10.5549094358522
vertex 20.0 13.1174399190517 11.4239479468205
vertex 0.0 13.1174399190517 11.4239479468205
endloop
endfacet
facet normal -0.0 -0.86686430513956 -0.498544156996056
outer loop
vertex 20.0 13.9835629247519 10.5549094358522
vertex 0.0 14.5952497871347 9.49131356479158
vertex 20.0 14.5952497871347 9.49131356479158
endloop
endfacet
facet normal -0.0 -0.86686430513956 -0.498544156996056
outer loop
vertex 0.0 14.5952497871347 9.49131356479158
vertex 20.0 13.9835629247519 10.5549094358522
vertex 0.0 13.9835629247519 10.5549094358522
endloop
endfacet
facet normal -0.0 -0.966359342877589 -0.257195685098322
outer loop
vertex 20.0 14.5952497871347 9.49131356479158
vertex 0.0 14.910815057389 8.305642634576
vertex 20.0 14.910815057389 8.305642634576
endloop
endfacet
facet normal -0.0 -0.966359342877589 -0.257195685098322
outer loop
vertex 0.0 14.910815057389 8.305642634576
vertex 20.0 14.5952497871347 9.49131356479158
vertex 0.0 14.5952497871347 9.49131356479158
endloop
endfacet
facet normal -0.0 -0.999998588382832 0.0016802477028961
outer loop
vertex 20.0 14.910815057389 8.305642634576
vertex 0.0 14.9087534838433 7.07869815968585
vertex 20.0 14.9087534838433 7.07869815968585
endloop
endfacet
facet normal -0.0 -0.999998588382832 0.0016802477028961
outer loop
vertex 0.0 14.9087534838433 7.07869815968585
vertex 20.0 14.910815057389 8.305642634576
vertex 0.0 14.910815057389 8.305642634576
endloop
endfacet
facet normal -0.0 -0.96548958266559 0.260441674399904
outer loop
vertex 20.0 14.9087534838433 7.07869815968585
vertex 0.0 14.5892055593279 5.89409437846327
vertex 20.0 14.5892055593279 5.89409437846327
endloop
endfacet
facet normal -0.0 -0.96548958266559 0.260441674399904
outer loop
vertex 0.0 14.5892055593279 5.89409437846327
vertex 20.0 14.9087534838433 7.07869815968585
vertex 0.0 14.9087534838433 7.07869815968585
endloop
endfacet
facet normal -0.0 -0.865184057436662 0.501454431386775
outer loop
vertex 20.0 14.5892055593279 5.89409437846327
vertex 0.0 13.9739479468205 4.83256008094827
vertex 20.0 13.9739479468205 4.83256008094827
endloop
endfacet
facet normal -0.0 -0.865184057436662 0.501454431386775
outer loop
vertex 0.0 13.9739479468205 4.83256008094827
vertex 20.0 14.5892055593279 5.89409437846327
vertex 0.0 14.5892055593279 5.89409437846327
endloop
endfacet
facet normal -0.0 -0.705917668477684 0.708293897567268
outer loop
vertex 20.0 13.1049094358522 3.96643707524813
vertex 0.0 13.9739479468205 4.83256008094827
vertex 0.0 13.1049094358522 3.96643707524813
endloop
endfacet
facet normal -0.0 -0.705917668477684 0.708293897567268
outer loop
vertex 0.0 13.9739479468205 4.83256008094827
vertex 20.0 13.1049094358522 3.96643707524813
vertex 20.0 13.9739479468205 4.83256008094827
endloop
endfacet
facet normal -0.0 -0.498544156996058 0.866864305139559
outer loop
vertex 20.0 12.0413135647916 3.35475021286537
vertex 0.0 13.1049094358522 3.96643707524813
vertex 0.0 12.0413135647916 3.35475021286537
endloop
endfacet
facet normal -0.0 -0.498544156996058 0.866864305139559
outer loop
vertex 0.0 13.1049094358522 3.96643707524813
vertex 20.0 12.0413135647916 3.35475021286537
vertex 20.0 13.1049094358522 3.96643707524813
endloop
endfacet
facet normal -0.0 -0.257195685098322 0.966359342877589
outer loop
vertex 20.0 10.855642634576 3.03918494261104
vertex 0.0 12.0413135647916 3.35475021286537
vertex 0.0 10.855642634576 3.03918494261104
endloop
endfacet
facet normal -0.0 -0.257195685098322 0.966359342877589
outer loop
vertex 0.0 12.0413135647916 3.35475021286537
vertex 20.0 10.855642634576 3.03918494261104
vertex 20.0 12.0413135647916 3.35475021286537
endloop
endfacet
facet normal 0.0 0.00168024770289667 0.999998588382832
outer loop
vertex 20.0 9.62869815968582 3.04124651615671
vertex 0.0 10.855642634576 3.03918494261104
vertex 0.0 9.62869815968582 3.04124651615671
endloop
endfacet
facet normal 0.0 0.00168024770289667 0.999998588382832
outer loop
vertex 0.0 10.855642634576 3.03918494261104
vertex 20.0 9.62869815968582 3.04124651615671
vertex 20.0 10.855642634576 3.03918494261104
endloop
endfacet
facet normal 0.0 0.260441674399904 0.96548958266559
outer loop
vertex 20.0 8.44409437846324 3.36079444067215
vertex 0.0 9.62869815968582 3.04124651615671
vertex 0.0 8.44409437846324 3.36079444067215
endloop
endfacet
facet normal 0.0 0.260441674399904 0.96548958266559
outer loop
vertex 0.0 9.62869815968582 3.04124651615671
vertex 20.0 8.44409437846324 3.36079444067215
vertex 20.0 9.62869815968582 3.04124651615671
endloop
endfacet
facet normal 0.0 0.501454431386775 0.865184057436663
outer loop
vertex 20.0 7.38256008094824 3.97605205317955
vertex 0.0 8.44409437846324 3.36079444067215
vertex 0.0 7.38256008094824 3.97605205317955
endloop
endfacet
facet normal 0.0 0.501454431386775 0.865184057436663
outer loop
vertex 0.0 8.44409437846324 3.36079444067215
vertex 20.0 7.38256008094824 3.97605205317955
vertex 20.0 8.44409437846324 3.36079444067215
endloop
endfacet
facet normal 0.0 0.708293897567267 0.705917668477684
outer loop
vertex 0.0 6.5164370752481 4.8450905641478
vertex 20.0 7.38256008094824 3.97605205317955
vertex 0.0 7.38256008094824 3.97605205317955
endloop
endfacet
facet normal 0.0 0.708293897567267 0.705917668477684
outer loop
vertex 20.0 7.38256008094824 3.97605205317955
vertex 0.0 6.5164370752481 4.8450905641478
vertex 20.0 6.5164370752481 4.8450905641478
endloop
endfacet
facet normal 0.0 0.866864305139559 0.498544156996057
outer loop
vertex 0.0 5.90475021286534 5.90868643520847
vertex 20.0 6.5164370752481 4.8450905641478
vertex 0.0 6.5164370752481 4.8450905641478
endloop
endfacet
facet normal 0.0 0.866864305139559 0.498544156996057
outer loop
vertex 20.0 6.5164370752481 4.8450905641478
vertex 0.0 5.90475021286534 5.90868643520847
vertex 20.0 5.90475021286534 5.90868643520847
endloop
endfacet
facet normal 0.0 0.966359342877588 0.257195685098323
outer loop
vertex 0.0 5.58918494261101 7.09435736542405
vertex 20.0 5.90475021286534 5.90868643520847
vertex 0.0 5.90475021286534 5.90868643520847
endloop
endfacet
facet normal 0.0 0.966359342877588 0.257195685098323
outer loop
vertex 20.0 5.90475021286534 5.90868643520847
vertex 0.0 5.58918494261101 7.09435736542405
vertex 20.0 5.58918494261101 7.09435736542405
endloop
endfacet
facet normal 0.130526192220051 -1.39809537926414e-015 0.99144486137381
outer loop
vertex 45.3 -10.75 3.6
vertex 44.2388419150797 -5.74999999999999 3.73970411221482
vertex 44.2388419150797 -10.75 3.73970411221482
endloop
endfacet
facet normal 0.130526192220051 -1.39809537926414e-015 0.99144486137381
outer loop
vertex 44.2388419150797 -5.74999999999999 3.73970411221482
vertex 45.3 -10.75 3.6
vertex 45.3 -5.74999999999999 3.6
endloop
endfacet
facet normal -0.130526192220052 -1.39663456379949e-015 0.99144486137381
outer loop
vertex 46.3611580849203 -10.75 3.73970411221482
vertex 45.3 -5.74999999999999 3.6
vertex 45.3 -10.75 3.6
endloop
endfacet
facet normal -0.130526192220052 -1.39663456379949e-015 0.99144486137381
outer loop
vertex 45.3 -5.74999999999999 3.6
vertex 46.3611580849203 -10.75 3.73970411221482
vertex 46.3611580849203 -5.74999999999999 3.73970411221483
endloop
endfacet
facet normal -0.382683432365091 -1.30281748962914e-015 0.923879532511287
outer loop
vertex 47.35 -10.75 4.1492958444838
vertex 46.3611580849203 -5.74999999999999 3.73970411221483
vertex 46.3611580849203 -10.75 3.73970411221482
endloop
endfacet
facet normal -0.382683432365091 -1.30281748962914e-015 0.923879532511287
outer loop
vertex 46.3611580849203 -5.74999999999999 3.73970411221483
vertex 47.35 -10.75 4.1492958444838
vertex 47.35 -5.74999999999999 4.14929584448381
endloop
endfacet
facet normal -0.60876142900872 -1.12205141755126e-015 0.793353340291236
outer loop
vertex 48.1991378028648 -10.75 4.80086219713515
vertex 47.35 -5.74999999999999 4.14929584448381
vertex 47.35 -10.75 4.1492958444838
endloop
endfacet
facet normal -0.60876142900872 -1.12205141755126e-015 0.793353340291236
outer loop
vertex 47.35 -5.74999999999999 4.14929584448381
vertex 48.1991378028648 -10.75 4.80086219713515
vertex 48.1991378028648 -5.74999999999999 4.80086219713516
endloop
endfacet
facet normal -0.793353340291236 -8.58143012906524e-016 0.60876142900872
outer loop
vertex 48.8507041555162 -5.74999999999999 5.65000000000001
vertex 48.1991378028648 -10.75 4.80086219713515
vertex 48.8507041555162 -10.75 5.65
endloop
endfacet
facet normal -0.793353340291236 -8.58143012906524e-016 0.60876142900872
outer loop
vertex 48.1991378028648 -10.75 4.80086219713515
vertex 48.8507041555162 -5.74999999999999 5.65000000000001
vertex 48.1991378028648 -5.74999999999999 4.80086219713516
endloop
endfacet
facet normal -0.923879532511287 -3.78377405223381e-016 0.382683432365089
outer loop
vertex 49.2602958877852 -5.74999999999999 6.63884191507967
vertex 48.8507041555162 -10.75 5.65
vertex 49.2602958877852 -10.75 6.63884191507966
endloop
endfacet
facet normal -0.923879532511287 -3.78377405223381e-016 0.382683432365089
outer loop
vertex 48.8507041555162 -10.75 5.65
vertex 49.2602958877852 -5.74999999999999 6.63884191507967
vertex 48.8507041555162 -5.74999999999999 5.65000000000001
endloop
endfacet
facet normal -0.991444861373811 -7.42801404556255e-017 0.130526192220048
outer loop
vertex 49.4 -5.74999999999999 7.7
vertex 49.2602958877852 -10.75 6.63884191507966
vertex 49.4 -10.75 7.7
endloop
endfacet
facet normal -0.991444861373811 -7.42801404556255e-017 0.130526192220048
outer loop
vertex 49.2602958877852 -10.75 6.63884191507966
vertex 49.4 -5.74999999999999 7.7
vertex 49.2602958877852 -5.74999999999999 6.63884191507967
endloop
endfacet
facet normal -0.99144486137381 7.24502445886998e-017 -0.130526192220053
outer loop
vertex 49.2602958877852 -5.74999999999999 8.76115808492034
vertex 49.4 -10.75 7.7
vertex 49.2602958877852 -10.75 8.76115808492033
endloop
endfacet
facet normal -0.99144486137381 7.24502445886998e-017 -0.130526192220053
outer loop
vertex 49.4 -10.75 7.7
vertex 49.2602958877852 -5.74999999999999 8.76115808492034
vertex 49.4 -5.74999999999999 7.7
endloop
endfacet
facet normal -0.923879532511288 2.14144711706848e-016 -0.382683432365089
outer loop
vertex 48.8507041555162 -5.74999999999999 9.75
vertex 49.2602958877852 -10.75 8.76115808492033
vertex 48.8507041555162 -10.75 9.75
endloop
endfacet
facet normal -0.923879532511288 2.14144711706848e-016 -0.382683432365089
outer loop
vertex 49.2602958877852 -10.75 8.76115808492033
vertex 48.8507041555162 -5.74999999999999 9.75
vertex 49.2602958877852 -5.74999999999999 8.76115808492034
endloop
endfacet
facet normal -0.793353340291235 3.36325412980646e-016 -0.608761429008721
outer loop
vertex 48.1991378028648 -5.75 10.5991378028648
vertex 48.8507041555162 -10.75 9.75
vertex 48.1991378028648 -10.75 10.5991378028648
endloop
endfacet
facet normal -0.793353340291235 3.36325412980646e-016 -0.608761429008721
outer loop
vertex 48.8507041555162 -10.75 9.75
vertex 48.1991378028648 -5.75 10.5991378028648
vertex 48.8507041555162 -5.74999999999999 9.75
endloop
endfacet
facet normal -0.608761429008721 4.53136992818769e-016 -0.793353340291235
outer loop
vertex 48.1991378028648 -5.75 10.5991378028648
vertex 47.35 -10.75 11.2507041555162
vertex 47.35 -5.75 11.2507041555162
endloop
endfacet
facet normal -0.608761429008721 4.53136992818769e-016 -0.793353340291235
outer loop
vertex 47.35 -10.75 11.2507041555162
vertex 48.1991378028648 -5.75 10.5991378028648
vertex 48.1991378028648 -10.75 10.5991378028648
endloop
endfacet
facet normal -0.382683432365089 5.22160977986283e-016 -0.923879532511287
outer loop
vertex 47.35 -5.75 11.2507041555162
vertex 46.3611580849203 -10.75 11.6602958877852
vertex 46.3611580849203 -5.75 11.6602958877852
endloop
endfacet
facet normal -0.382683432365089 5.22160977986283e-016 -0.923879532511287
outer loop
vertex 46.3611580849203 -10.75 11.6602958877852
vertex 47.35 -5.75 11.2507041555162
vertex 47.35 -10.75 11.2507041555162
endloop
endfacet
facet normal -0.13052619222005 5.58960751828816e-016 -0.991444861373811
outer loop
vertex 46.3611580849203 -5.75 11.6602958877852
vertex 45.3 -10.75 11.8
vertex 45.3 -5.75 11.8
endloop
endfacet
facet normal -0.13052619222005 5.58960751828816e-016 -0.991444861373811
outer loop
vertex 45.3 -10.75 11.8
vertex 46.3611580849203 -5.75 11.6602958877852
vertex 46.3611580849203 -10.75 11.6602958877852
endloop
endfacet
facet normal 0.130526192220054 5.60347751213006e-016 -0.99144486137381
outer loop
vertex 45.3 -5.75 11.8
vertex 44.2388419150797 -10.75 11.6602958877852
vertex 44.2388419150797 -5.75 11.6602958877852
endloop
endfacet
facet normal 0.130526192220054 5.60347751213006e-016 -0.99144486137381
outer loop
vertex 44.2388419150797 -10.75 11.6602958877852
vertex 45.3 -5.75 11.8
vertex 45.3 -10.75 11.8
endloop
endfacet
facet normal 0.38268343236509 5.24745933322848e-016 -0.923879532511287
outer loop
vertex 44.2388419150797 -5.75 11.6602958877852
vertex 43.25 -10.75 11.2507041555162
vertex 43.25 -5.75 11.2507041555162
endloop
endfacet
facet normal 0.38268343236509 5.24745933322848e-016 -0.923879532511287
outer loop
vertex 43.25 -10.75 11.2507041555162
vertex 44.2388419150797 -5.75 11.6602958877852
vertex 44.2388419150797 -10.75 11.6602958877852
endloop
endfacet
facet normal 0.60876142900872 4.43950294080802e-016 -0.793353340291236
outer loop
vertex 43.25 -5.75 11.2507041555162
vertex 42.4008621971351 -10.75 10.5991378028648
vertex 42.4008621971351 -5.75 10.5991378028648
endloop
endfacet
facet normal 0.60876142900872 4.43950294080802e-016 -0.793353340291236
outer loop
vertex 42.4008621971351 -10.75 10.5991378028648
vertex 43.25 -5.75 11.2507041555162
vertex 43.25 -10.75 11.2507041555162
endloop
endfacet
facet normal 0.793353340291236 3.44171466341147e-016 -0.60876142900872
outer loop
vertex 41.7492958444838 -10.75 9.74999999999999
vertex 42.4008621971351 -5.75 10.5991378028648
vertex 42.4008621971351 -10.75 10.5991378028648
endloop
endfacet
facet normal 0.793353340291236 3.44171466341147e-016 -0.60876142900872
outer loop
vertex 42.4008621971351 -5.75 10.5991378028648
vertex 41.7492958444838 -10.75 9.74999999999999
vertex 41.7492958444838 -5.75 9.75
endloop
endfacet
facet normal 0.923879532511288 2.13777297467769e-016 -0.382683432365089
outer loop
vertex 41.3397041122148 -5.74999999999999 8.76115808492033
vertex 41.7492958444838 -10.75 9.74999999999999
vertex 41.3397041122148 -10.75 8.76115808492033
endloop
endfacet
facet normal 0.923879532511288 2.13777297467769e-016 -0.382683432365089
outer loop
vertex 41.7492958444838 -10.75 9.74999999999999
vertex 41.3397041122148 -5.74999999999999 8.76115808492033
vertex 41.7492958444838 -5.75 9.75
endloop
endfacet
facet normal 0.991444861373811 7.10632452045062e-017 -0.130526192220048
outer loop
vertex 41.2 -10.75 7.69999999999999
vertex 41.3397041122148 -5.74999999999999 8.76115808492033
vertex 41.3397041122148 -10.75 8.76115808492033
endloop
endfacet
facet normal 0.991444861373811 7.10632452045062e-017 -0.130526192220048
outer loop
vertex 41.3397041122148 -5.74999999999999 8.76115808492033
vertex 41.2 -10.75 7.69999999999999
vertex 41.2 -5.74999999999999 7.7
endloop
endfacet
facet normal 0.99144486137381 -7.2893141071438e-017 0.130526192220054
outer loop
vertex 41.3397041122148 -5.74999999999999 6.63884191507966
vertex 41.2 -10.75 7.69999999999999
vertex 41.3397041122148 -10.75 6.63884191507966
endloop
endfacet
facet normal 0.99144486137381 -7.2893141071438e-017 0.130526192220054
outer loop
vertex 41.2 -10.75 7.69999999999999
vertex 41.3397041122148 -5.74999999999999 6.63884191507966
vertex 41.2 -5.74999999999999 7.7
endloop
endfacet
facet normal 0.923879532511287 -3.73942323028408e-016 0.382683432365089
outer loop
vertex 41.7492958444838 -5.74999999999999 5.65
vertex 41.3397041122148 -10.75 6.63884191507966
vertex 41.7492958444838 -10.75 5.65
endloop
endfacet
facet normal 0.923879532511287 -3.73942323028408e-016 0.382683432365089
outer loop
vertex 41.3397041122148 -10.75 6.63884191507966
vertex 41.7492958444838 -5.74999999999999 5.65
vertex 41.3397041122148 -5.74999999999999 6.63884191507966
endloop
endfacet
facet normal 0.793353340291235 -8.54121076774127e-016 0.608761429008721
outer loop
vertex 42.4008621971352 -10.75 4.80086219713515
vertex 41.7492958444838 -5.74999999999999 5.65
vertex 41.7492958444838 -10.75 5.65
endloop
endfacet
facet normal 0.793353340291235 -8.54121076774127e-016 0.608761429008721
outer loop
vertex 41.7492958444838 -5.74999999999999 5.65
vertex 42.4008621971352 -10.75 4.80086219713515
vertex 42.4008621971352 -5.74999999999999 4.80086219713516
endloop
endfacet
facet normal 0.60876142900872 -1.11875474108362e-015 0.793353340291236
outer loop
vertex 43.25 -10.75 4.1492958444838
vertex 42.4008621971352 -5.74999999999999 4.80086219713516
vertex 42.4008621971352 -10.75 4.80086219713515
endloop
endfacet
facet normal 0.60876142900872 -1.11875474108362e-015 0.793353340291236
outer loop
vertex 42.4008621971352 -5.74999999999999 4.80086219713516
vertex 43.25 -10.75 4.1492958444838
vertex 43.25 -5.74999999999999 4.14929584448381
endloop
endfacet
facet normal 0.38268343236509 -1.30391973234638e-015 0.923879532511287
outer loop
vertex 44.2388419150797 -10.75 3.73970411221482
vertex 43.25 -5.74999999999999 4.14929584448381
vertex 43.25 -10.75 4.1492958444838
endloop
endfacet
facet normal 0.38268343236509 -1.30391973234638e-015 0.923879532511287
outer loop
vertex 43.25 -5.74999999999999 4.14929584448381
vertex 44.2388419150797 -10.75 3.73970411221482
vertex 44.2388419150797 -5.74999999999999 3.73970411221482
endloop
endfacet
facet normal -0.608761429008722 -4.48389797021615e-016 -0.793353340291234
outer loop
vertex 48.1991378028648 31.25 10.5991378028649
vertex 47.35 26.25 11.2507041555163
vertex 47.35 31.25 11.2507041555163
endloop
endfacet
facet normal -0.608761429008722 -4.48389797021615e-016 -0.793353340291234
outer loop
vertex 47.35 26.25 11.2507041555163
vertex 48.1991378028648 31.25 10.5991378028649
vertex 48.1991378028648 26.25 10.5991378028649
endloop
endfacet
facet normal -0.793353340291235 -3.41050679777986e-016 -0.608761429008721
outer loop
vertex 48.1991378028648 31.25 10.5991378028649
vertex 48.8507041555162 26.25 9.75000000000007
vertex 48.1991378028648 26.25 10.5991378028649
endloop
endfacet
facet normal -0.793353340291235 -3.41050679777986e-016 -0.608761429008721
outer loop
vertex 48.8507041555162 26.25 9.75000000000007
vertex 48.1991378028648 31.25 10.5991378028649
vertex 48.8507041555162 31.25 9.75000000000006
endloop
endfacet
facet normal -0.923879532511288 -2.16729667043418e-016 -0.382683432365089
outer loop
vertex 48.8507041555162 31.25 9.75000000000006
vertex 49.2602958877852 26.25 8.7611580849204
vertex 48.8507041555162 26.25 9.75000000000007
endloop
endfacet
facet normal -0.923879532511288 -2.16729667043418e-016 -0.382683432365089
outer loop
vertex 49.2602958877852 26.25 8.7611580849204
vertex 48.8507041555162 31.25 9.75000000000006
vertex 49.2602958877852 31.25 8.7611580849204
endloop
endfacet
facet normal -0.99144486137381 -7.45015886969997e-017 -0.130526192220053
outer loop
vertex 49.2602958877852 31.25 8.7611580849204
vertex 49.4 26.25 7.70000000000007
vertex 49.2602958877852 26.25 8.7611580849204
endloop
endfacet
facet normal -0.99144486137381 -7.45015886969997e-017 -0.130526192220053
outer loop
vertex 49.4 26.25 7.70000000000007
vertex 49.2602958877852 31.25 8.7611580849204
vertex 49.4 31.25 7.70000000000007
endloop
endfacet
facet normal -0.99144486137381 7.45015886969971e-017 0.130526192220053
outer loop
vertex 49.4 31.25 7.70000000000007
vertex 49.2602958877852 26.25 6.63884191507973
vertex 49.4 26.25 7.70000000000007
endloop
endfacet
facet normal -0.99144486137381 7.45015886969971e-017 0.130526192220053
outer loop
vertex 49.2602958877852 26.25 6.63884191507973
vertex 49.4 31.25 7.70000000000007
vertex 49.2602958877852 31.25 6.63884191507973
endloop
endfacet
facet normal -0.923879532511288 -3.04237678584575e-017 0.382683432365088
outer loop
vertex 49.2602958877852 31.25 6.63884191507973
vertex 48.8507041555162 26.25 5.65000000000006
vertex 49.2602958877852 26.25 6.63884191507973
endloop
endfacet
facet normal -0.923879532511288 -3.04237678584575e-017 0.382683432365088
outer loop
vertex 48.8507041555162 26.25 5.65000000000006
vertex 49.2602958877852 31.25 6.63884191507973
vertex 48.8507041555162 31.25 5.65000000000006
endloop
endfacet
facet normal -0.793353340291235 -4.29027533977151e-016 0.608761429008721
outer loop
vertex 48.8507041555162 31.25 5.65000000000006
vertex 48.1991378028648 26.25 4.80086219713522
vertex 48.8507041555162 26.25 5.65000000000006
endloop
endfacet
facet normal -0.793353340291235 -4.29027533977151e-016 0.608761429008721
outer loop
vertex 48.1991378028648 26.25 4.80086219713522
vertex 48.8507041555162 31.25 5.65000000000006
vertex 48.1991378028648 31.25 4.80086219713522
endloop
endfacet
facet normal -0.60876142900872 -5.59377370541816e-016 0.793353340291236
outer loop
vertex 48.1991378028648 26.25 4.80086219713522
vertex 47.35 31.25 4.14929584448387
vertex 47.35 26.25 4.14929584448386
endloop
endfacet
facet normal -0.60876142900872 -5.59377370541816e-016 0.793353340291236
outer loop
vertex 47.35 31.25 4.14929584448387
vertex 48.1991378028648 26.25 4.80086219713522
vertex 48.1991378028648 31.25 4.80086219713522
endloop
endfacet
facet normal -0.38268343236509 -6.51408744814577e-016 0.923879532511287
outer loop
vertex 47.35 26.25 4.14929584448386
vertex 46.3611580849203 31.25 3.73970411221489
vertex 46.3611580849203 26.25 3.73970411221488
endloop
endfacet
facet normal -0.38268343236509 -6.51408744814577e-016 0.923879532511287
outer loop
vertex 46.3611580849203 31.25 3.73970411221489
vertex 47.35 26.25 4.14929584448386
vertex 47.35 31.25 4.14929584448387
endloop
endfacet
facet normal -0.130526192220051 -6.99047689632075e-016 0.99144486137381
outer loop
vertex 46.3611580849203 26.25 3.73970411221488
vertex 45.3 31.25 3.60000000000007
vertex 45.3 26.25 3.60000000000006
endloop
endfacet
facet normal -0.130526192220051 -6.99047689632075e-016 0.99144486137381
outer loop
vertex 45.3 31.25 3.60000000000007
vertex 46.3611580849203 26.25 3.73970411221488
vertex 46.3611580849203 31.25 3.73970411221489
endloop
endfacet
facet normal 0.130526192220052 -6.97660690247884e-016 0.99144486137381
outer loop
vertex 45.3 26.25 3.60000000000006
vertex 44.2388419150797 31.25 3.73970411221489
vertex 44.2388419150797 26.25 3.73970411221488
endloop
endfacet
facet normal 0.130526192220052 -6.97660690247884e-016 0.99144486137381
outer loop
vertex 44.2388419150797 31.25 3.73970411221489
vertex 45.3 26.25 3.60000000000006
vertex 45.3 31.25 3.60000000000007
endloop
endfacet
facet normal 0.382683432365091 -6.51408744814577e-016 0.923879532511287
outer loop
vertex 44.2388419150797 26.25 3.73970411221488
vertex 43.25 31.25 4.14929584448387
vertex 43.25 26.25 4.14929584448387
endloop
endfacet
facet normal 0.382683432365091 -6.51408744814577e-016 0.923879532511287
outer loop
vertex 43.25 31.25 4.14929584448387
vertex 44.2388419150797 26.25 3.73970411221488
vertex 44.2388419150797 31.25 3.73970411221489
endloop
endfacet
facet normal 0.608761429008723 -5.59377370541815e-016 0.793353340291234
outer loop
vertex 43.25 26.25 4.14929584448387
vertex 42.4008621971352 31.25 4.80086219713522
vertex 42.4008621971352 26.25 4.80086219713522
endloop
endfacet
facet normal 0.608761429008723 -5.59377370541815e-016 0.793353340291234
outer loop
vertex 42.4008621971352 31.25 4.80086219713522
vertex 43.25 26.25 4.14929584448387
vertex 43.25 31.25 4.14929584448387
endloop
endfacet
facet normal 0.793353340291235 -4.2902753397715e-016 0.608761429008721
outer loop
vertex 42.4008621971352 31.25 4.80086219713522
vertex 41.7492958444838 26.25 5.65000000000006
vertex 42.4008621971352 26.25 4.80086219713522
endloop
endfacet
facet normal 0.793353340291235 -4.2902753397715e-016 0.608761429008721
outer loop
vertex 41.7492958444838 26.25 5.65000000000006
vertex 42.4008621971352 31.25 4.80086219713522
vertex 41.7492958444838 31.25 5.65000000000007
endloop
endfacet
facet normal 0.923879532511288 -2.82823207413891e-017 0.382683432365087
outer loop
vertex 41.7492958444838 31.25 5.65000000000007
vertex 41.3397041122148 26.25 6.63884191507973
vertex 41.7492958444838 26.25 5.65000000000006
endloop
endfacet
facet normal 0.923879532511288 -2.82823207413891e-017 0.382683432365087
outer loop
vertex 41.3397041122148 26.25 6.63884191507973
vertex 41.7492958444838 31.25 5.65000000000007
vertex 41.3397041122148 31.25 6.63884191507973
endloop
endfacet
facet normal 0.99144486137381 7.45015886969973e-017 0.130526192220054
outer loop
vertex 41.3397041122148 31.25 6.63884191507973
vertex 41.2 26.25 7.70000000000007
vertex 41.3397041122148 26.25 6.63884191507973
endloop
endfacet
facet normal 0.99144486137381 7.45015886969973e-017 0.130526192220054
outer loop
vertex 41.2 26.25 7.70000000000007
vertex 41.3397041122148 31.25 6.63884191507973
vertex 41.2 31.25 7.70000000000007
endloop
endfacet
facet normal 0.99144486137381 -7.30407732323526e-017 -0.130526192220053
outer loop
vertex 41.2 31.25 7.70000000000007
vertex 41.3397041122148 26.25 8.7611580849204
vertex 41.2 26.25 7.70000000000007
endloop
endfacet
facet normal 0.99144486137381 -7.30407732323526e-017 -0.130526192220053
outer loop
vertex 41.3397041122148 26.25 8.7611580849204
vertex 41.2 31.25 7.70000000000007
vertex 41.3397041122148 31.25 8.7611580849204
endloop
endfacet
facet normal 0.923879532511288 -2.16729667043418e-016 -0.382683432365089
outer loop
vertex 41.3397041122148 31.25 8.7611580849204
vertex 41.7492958444838 26.25 9.75000000000007
vertex 41.3397041122148 26.25 8.7611580849204
endloop
endfacet
facet normal 0.923879532511288 -2.16729667043418e-016 -0.382683432365089
outer loop
vertex 41.7492958444838 26.25 9.75000000000007
vertex 41.3397041122148 31.25 8.7611580849204
vertex 41.7492958444838 31.25 9.75000000000007
endloop
endfacet
facet normal 0.793353340291234 -3.41050679777988e-016 -0.608761429008722
outer loop
vertex 41.7492958444838 26.25 9.75000000000007
vertex 42.4008621971352 31.25 10.5991378028649
vertex 42.4008621971352 26.25 10.5991378028649
endloop
endfacet
facet normal 0.793353340291234 -3.41050679777988e-016 -0.608761429008722
outer loop
vertex 42.4008621971352 31.25 10.5991378028649
vertex 41.7492958444838 26.25 9.75000000000007
vertex 41.7492958444838 31.25 9.75000000000007
endloop
endfacet
facet normal 0.60876142900872 -4.48389797021618e-016 -0.793353340291236
outer loop
vertex 43.25 31.25 11.2507041555163
vertex 42.4008621971352 26.25 10.5991378028649
vertex 42.4008621971352 31.25 10.5991378028649
endloop
endfacet
facet normal 0.60876142900872 -4.48389797021618e-016 -0.793353340291236
outer loop
vertex 42.4008621971352 26.25 10.5991378028649
vertex 43.25 31.25 11.2507041555163
vertex 43.25 26.25 11.2507041555163
endloop
endfacet
facet normal 0.382683432365091 -5.22160977986289e-016 -0.923879532511286
outer loop
vertex 44.2388419150797 31.25 11.6602958877852
vertex 43.25 26.25 11.2507041555163
vertex 43.25 31.25 11.2507041555163
endloop
endfacet
facet normal 0.382683432365091 -5.22160977986289e-016 -0.923879532511286
outer loop
vertex 43.25 26.25 11.2507041555163
vertex 44.2388419150797 31.25 11.6602958877852
vertex 44.2388419150797 26.25 11.6602958877852
endloop
endfacet
facet normal 0.130526192220051 -5.58960751828823e-016 -0.99144486137381
outer loop
vertex 45.3 31.25 11.8000000000001
vertex 44.2388419150797 26.25 11.6602958877852
vertex 44.2388419150797 31.25 11.6602958877852
endloop
endfacet
facet normal 0.130526192220051 -5.58960751828823e-016 -0.99144486137381
outer loop
vertex 44.2388419150797 26.25 11.6602958877852
vertex 45.3 31.25 11.8000000000001
vertex 45.3 26.25 11.8000000000001
endloop
endfacet
facet normal -0.130526192220052 -5.56112936979985e-016 -0.99144486137381
outer loop
vertex 46.3611580849203 31.25 11.6602958877852
vertex 45.3 26.25 11.8000000000001
vertex 45.3 31.25 11.8000000000001
endloop
endfacet
facet normal -0.130526192220052 -5.56112936979985e-016 -0.99144486137381
outer loop
vertex 45.3 26.25 11.8000000000001
vertex 46.3611580849203 31.25 11.6602958877852
vertex 46.3611580849203 26.25 11.6602958877852
endloop
endfacet
facet normal -0.382683432365088 -5.2216097798629e-016 -0.923879532511288
outer loop
vertex 47.35 31.25 11.2507041555163
vertex 46.3611580849203 26.25 11.6602958877852
vertex 46.3611580849203 31.25 11.6602958877852
endloop
endfacet
facet normal -0.382683432365088 -5.2216097798629e-016 -0.923879532511288
outer loop
vertex 46.3611580849203 26.25 11.6602958877852
vertex 47.35 31.25 11.2507041555163
vertex 47.35 26.25 11.2507041555163
endloop
endfacet
facet normal -2.22628932832729e-016 1.0 5.49344119976863e-016
outer loop
vertex 15.0 31.25 6.48592290986016e-014
vertex 44.2388419150797 31.25 3.73970411221489
vertex 45.3 31.25 3.60000000000007
endloop
endfacet
facet normal -2.22628932832729e-016 1.0 5.49344119976863e-016
outer loop
vertex 44.2388419150797 31.25 3.73970411221489
vertex 15.0 31.25 6.48592290986016e-014
vertex 15.0 31.25 15.4000000000001
endloop
endfacet
facet normal -2.22628932832729e-016 1.0 5.49344119976863e-016
outer loop
vertex 44.2388419150797 31.25 3.73970411221489
vertex 15.0 31.25 15.4000000000001
vertex 43.25 31.25 4.14929584448387
endloop
endfacet
facet normal -2.22628932832729e-016 1.0 5.49344119976863e-016
outer loop
vertex 43.25 31.25 4.14929584448387
vertex 15.0 31.25 15.4000000000001
vertex 42.4008621971352 31.25 4.80086219713522
endloop
endfacet
facet normal -2.22628932832729e-016 1.0 5.49344119976863e-016
outer loop
vertex 42.4008621971352 31.25 4.80086219713522
vertex 15.0 31.25 15.4000000000001
vertex 41.7492958444838 31.25 5.65000000000007
endloop
endfacet
facet normal -2.22628932832729e-016 1.0 5.49344119976863e-016
outer loop
vertex 41.7492958444838 31.25 5.65000000000007
vertex 15.0 31.25 15.4000000000001
vertex 41.3397041122148 31.25 6.63884191507973
endloop
endfacet
facet normal -2.22628932832729e-016 1.0 5.49344119976863e-016
outer loop
vertex 41.3397041122148 31.25 6.63884191507973
vertex 15.0 31.25 15.4000000000001
vertex 41.2 31.25 7.70000000000007
endloop
endfacet
facet normal -2.22628932832729e-016 1.0 5.49344119976863e-016
outer loop
vertex 41.2 31.25 7.70000000000007
vertex 15.0 31.25 15.4000000000001
vertex 41.3397041122148 31.25 8.7611580849204
endloop
endfacet
facet normal -2.22628932832729e-016 1.0 5.49344119976863e-016
outer loop
vertex 41.3397041122148 31.25 8.7611580849204
vertex 15.0 31.25 15.4000000000001
vertex 41.7492958444838 31.25 9.75000000000007
endloop
endfacet
facet normal -2.22628932832729e-016 1.0 5.49344119976863e-016
outer loop
vertex 41.7492958444838 31.25 9.75000000000007
vertex 15.0 31.25 15.4000000000001
vertex 42.4008621971352 31.25 10.5991378028649
endloop
endfacet
facet normal -2.22628932832729e-016 1.0 5.49344119976863e-016
outer loop
vertex 42.4008621971352 31.25 10.5991378028649
vertex 15.0 31.25 15.4000000000001
vertex 43.25 31.25 11.2507041555163
endloop
endfacet
facet normal -2.22628932832729e-016 1.0 5.49344119976863e-016
outer loop
vertex 43.25 31.25 11.2507041555163
vertex 15.0 31.25 15.4000000000001
vertex 44.2388419150797 31.25 11.6602958877852
endloop
endfacet
facet normal -2.22628932832729e-016 1.0 5.49344119976863e-016
outer loop
vertex 44.2388419150797 31.25 11.6602958877852
vertex 15.0 31.25 15.4000000000001
vertex 45.3 31.25 11.8000000000001
endloop
endfacet
facet normal -2.22628932832729e-016 1.0 5.49344119976863e-016
outer loop
vertex 53.0 31.25 6.47868388236998e-014
vertex 48.8507041555162 31.25 5.65000000000006
vertex 53.0 31.25 15.4000000000001
endloop
endfacet
facet normal -2.22628932832729e-016 1.0 5.49344119976863e-016
outer loop
vertex 48.8507041555162 31.25 5.65000000000006
vertex 53.0 31.25 6.47868388236998e-014
vertex 48.1991378028648 31.25 4.80086219713522
endloop
endfacet
facet normal -2.22628932832729e-016 1.0 5.49344119976863e-016
outer loop
vertex 48.1991378028648 31.25 4.80086219713522
vertex 53.0 31.25 6.47868388236998e-014
vertex 47.35 31.25 4.14929584448387
endloop
endfacet
facet normal -2.22628932832729e-016 1.0 5.49344119976863e-016
outer loop
vertex 47.35 31.25 4.14929584448387
vertex 53.0 31.25 6.47868388236998e-014
vertex 46.3611580849203 31.25 3.73970411221489
endloop
endfacet
facet normal -2.22628932832729e-016 1.0 5.49344119976863e-016
outer loop
vertex 46.3611580849203 31.25 3.73970411221489
vertex 53.0 31.25 6.47868388236998e-014
vertex 45.3 31.25 3.60000000000007
endloop
endfacet
facet normal -2.22628932832729e-016 1.0 5.49344119976863e-016
outer loop
vertex 45.3 31.25 3.60000000000007
vertex 53.0 31.25 6.47868388236998e-014
vertex 15.0 31.25 6.48592290986016e-014
endloop
endfacet
facet normal -2.22628932832729e-016 1.0 5.49344119976863e-016
outer loop
vertex 53.0 31.25 15.4000000000001
vertex 48.8507041555162 31.25 5.65000000000006
vertex 49.2602958877852 31.25 6.63884191507973
endloop
endfacet
facet normal -2.22628932832729e-016 1.0 5.49344119976863e-016
outer loop
vertex 53.0 31.25 15.4000000000001
vertex 49.2602958877852 31.25 6.63884191507973
vertex 49.4 31.25 7.70000000000007
endloop
endfacet
facet normal -2.22628932832729e-016 1.0 5.49344119976863e-016
outer loop
vertex 53.0 31.25 15.4000000000001
vertex 49.4 31.25 7.70000000000007
vertex 49.2602958877852 31.25 8.7611580849204
endloop
endfacet
facet normal -2.22628932832729e-016 1.0 5.49344119976863e-016
outer loop
vertex 53.0 31.25 15.4000000000001
vertex 49.2602958877852 31.25 8.7611580849204
vertex 48.8507041555162 31.25 9.75000000000006
endloop
endfacet
facet normal -2.22628932832729e-016 1.0 5.49344119976863e-016
outer loop
vertex 53.0 31.25 15.4000000000001
vertex 48.8507041555162 31.25 9.75000000000006
vertex 48.1991378028648 31.25 10.5991378028649
endloop
endfacet
facet normal -2.22628932832729e-016 1.0 5.49344119976863e-016
outer loop
vertex 53.0 31.25 15.4000000000001
vertex 48.1991378028648 31.25 10.5991378028649
vertex 47.35 31.25 11.2507041555163
endloop
endfacet
facet normal -2.22628932832729e-016 1.0 5.49344119976863e-016
outer loop
vertex 53.0 31.25 15.4000000000001
vertex 47.35 31.25 11.2507041555163
vertex 46.3611580849203 31.25 11.6602958877852
endloop
endfacet
facet normal -2.22628932832729e-016 1.0 5.49344119976863e-016
outer loop
vertex 53.0 31.25 15.4000000000001
vertex 46.3611580849203 31.25 11.6602958877852
vertex 45.3 31.25 11.8000000000001
endloop
endfacet
facet normal -2.22628932832729e-016 1.0 5.49344119976863e-016
outer loop
vertex 53.0 31.25 15.4000000000001
vertex 45.3 31.25 11.8000000000001
vertex 15.0 31.25 15.4000000000001
endloop
endfacet
facet normal -0.514495755427527 0.857492925712544 2.78403846587757e-016
outer loop
vertex 0.0 20.25 15.4000000000001
vertex 10.0 26.25 5.68766271573226e-014
vertex 0.0 20.25 5.58191397263672e-014
endloop
endfacet
facet normal -0.514495755427527 0.857492925712544 2.78403846587757e-016
outer loop
vertex 10.0 26.25 5.68766271573226e-014
vertex 0.0 20.25 15.4000000000001
vertex 10.0 26.25 15.4000000000001
endloop
endfacet
facet normal -0.99876131109628 0.0497578481974392 -2.75330352394778e-017
outer loop
vertex 10.0326963517266 26.9062954850649 15.4000000000001
vertex 10.0 26.25 5.68766271573226e-014
vertex 10.0 26.25 15.4000000000001
endloop
endfacet
facet normal -0.99876131109628 0.0497578481974392 -2.75330352394778e-017
outer loop
vertex 10.0 26.25 5.68766271573226e-014
vertex 10.0326963517266 26.9062954850649 15.4000000000001
vertex 10.0326963517266 26.9062954850649 6.20392626160537e-014
endloop
endfacet
facet normal -0.983206055204392 0.182498912351331 0.0
outer loop
vertex 10.1526181096829 27.5523694646535 15.4000000000001
vertex 10.0326963517266 26.9062954850649 6.20392626160537e-014
vertex 10.0326963517266 26.9062954850649 15.4000000000001
endloop
endfacet
facet normal -0.983206055204392 0.182498912351331 0.0
outer loop
vertex 10.0326963517266 26.9062954850649 6.20392626160537e-014
vertex 10.1526181096829 27.5523694646535 15.4000000000001
vertex 10.1526181096829 27.5523694646535 6.20392626160537e-014
endloop
endfacet
facet normal -0.950088619277382 0.311980152444989 3.33830700617674e-020
outer loop
vertex 10.3576232127088 28.1766816644912 15.4000000000001
vertex 10.1526181096829 27.5523694646535 6.20392626160537e-014
vertex 10.1526181096829 27.5523694646535 15.4000000000001
endloop
endfacet
facet normal -0.950088619277382 0.311980152444989 3.33830700617674e-020
outer loop
vertex 10.1526181096829 27.5523694646535 6.20392626160537e-014
vertex 10.3576232127088 28.1766816644912 15.4000000000001
vertex 10.3576232127088 28.1766816644912 6.48592290986016e-014
endloop
endfacet
facet normal -0.900000552125366 0.435888754356013 0.0
outer loop
vertex 10.6440498276528 28.7680805226102 15.4000000000001
vertex 10.3576232127088 28.1766816644912 6.48592290986016e-014
vertex 10.3576232127088 28.1766816644912 15.4000000000001
endloop
endfacet
facet normal -0.900000552125366 0.435888754356013 0.0
outer loop
vertex 10.3576232127088 28.1766816644912 6.48592290986016e-014
vertex 10.6440498276528 28.7680805226102 15.4000000000001
vertex 10.6440498276528 28.7680805226102 6.48592290986016e-014
endloop
endfacet
facet normal -0.833836534622485 0.552011443295123 -9.56270852092065e-019
outer loop
vertex 11.0067817576082 29.3160023802903 15.4000000000001
vertex 10.6440498276528 28.7680805226102 6.48592290986016e-014
vertex 10.6440498276528 28.7680805226102 15.4000000000001
endloop
endfacet
facet normal -0.833836534622485 0.552011443295123 -9.56270852092065e-019
outer loop
vertex 10.6440498276528 28.7680805226102 6.48592290986016e-014
vertex 11.0067817576082 29.3160023802903 15.4000000000001
vertex 11.0067817576082 29.3160023802903 6.76791955811495e-014
endloop
endfacet
facet normal -0.75277839877749 0.658274017665894 0.0
outer loop
vertex 11.4393398282202 29.8106601717798 15.4000000000001
vertex 11.0067817576082 29.3160023802903 6.76791955811495e-014
vertex 11.0067817576082 29.3160023802903 15.4000000000001
endloop
endfacet
facet normal -0.75277839877749 0.658274017665894 0.0
outer loop
vertex 11.0067817576082 29.3160023802903 6.76791955811495e-014
vertex 11.4393398282202 29.8106601717798 15.4000000000001
vertex 11.4393398282202 29.8106601717798 6.76791955811495e-014
endloop
endfacet
facet normal -0.658274017665892 0.752778398777492 -0.0
outer loop
vertex 11.4393398282202 29.8106601717798 15.4000000000001
vertex 11.9339976197097 30.2432182423918 6.76791955811495e-014
vertex 11.4393398282202 29.8106601717798 6.76791955811495e-014
endloop
endfacet
facet normal -0.658274017665892 0.752778398777492 -0.0
outer loop
vertex 11.9339976197097 30.2432182423918 6.76791955811495e-014
vertex 11.4393398282202 29.8106601717798 15.4000000000001
vertex 11.9339976197097 30.2432182423918 15.4000000000001
endloop
endfacet
facet normal -0.552011443295124 0.833836534622485 -0.0
outer loop
vertex 11.9339976197097 30.2432182423918 15.4000000000001
vertex 12.4819194773898 30.6059501723472 6.76791955811495e-014
vertex 11.9339976197097 30.2432182423918 6.76791955811495e-014
endloop
endfacet
facet normal -0.552011443295124 0.833836534622485 -0.0
outer loop
vertex 12.4819194773898 30.6059501723472 6.76791955811495e-014
vertex 11.9339976197097 30.2432182423918 15.4000000000001
vertex 12.4819194773898 30.6059501723472 15.4000000000001
endloop
endfacet
facet normal -0.435888754356018 0.900000552125363 -0.0
outer loop
vertex 12.4819194773898 30.6059501723472 15.4000000000001
vertex 13.0733183355088 30.8923767872912 6.76791955811495e-014
vertex 12.4819194773898 30.6059501723472 6.76791955811495e-014
endloop
endfacet
facet normal -0.435888754356018 0.900000552125363 -0.0
outer loop
vertex 13.0733183355088 30.8923767872912 6.76791955811495e-014
vertex 12.4819194773898 30.6059501723472 15.4000000000001
vertex 13.0733183355088 30.8923767872912 15.4000000000001
endloop
endfacet
facet normal -0.311980152444986 0.950088619277383 -0.0
outer loop
vertex 13.0733183355088 30.8923767872912 15.4000000000001
vertex 13.6976305353465 31.0973818903171 6.76791955811495e-014
vertex 13.0733183355088 30.8923767872912 6.76791955811495e-014
endloop
endfacet
facet normal -0.311980152444986 0.950088619277383 -0.0
outer loop
vertex 13.6976305353465 31.0973818903171 6.76791955811495e-014
vertex 13.0733183355088 30.8923767872912 15.4000000000001
vertex 13.6976305353465 31.0973818903171 15.4000000000001
endloop
endfacet
facet normal -0.182498912351331 0.983206055204392 4.4809393359171e-019
outer loop
vertex 13.6976305353465 31.0973818903171 6.76791955811495e-014
vertex 14.3437045149351 31.2173036482734 15.4000000000001
vertex 14.3437045149351 31.2173036482734 6.48592290986016e-014
endloop
endfacet
facet normal -0.182498912351331 0.983206055204392 4.4809393359171e-019
outer loop
vertex 14.3437045149351 31.2173036482734 15.4000000000001
vertex 13.6976305353465 31.0973818903171 6.76791955811495e-014
vertex 13.6976305353465 31.0973818903171 15.4000000000001
endloop
endfacet
facet normal -0.0497578481974443 0.99876131109628 -0.0
outer loop
vertex 14.3437045149351 31.2173036482734 15.4000000000001
vertex 15.0 31.25 6.48592290986016e-014
vertex 14.3437045149351 31.2173036482734 6.48592290986016e-014
endloop
endfacet
facet normal -0.0497578481974443 0.99876131109628 -0.0
outer loop
vertex 15.0 31.25 6.48592290986016e-014
vertex 14.3437045149351 31.2173036482734 15.4000000000001
vertex 15.0 31.25 15.4000000000001
endloop
endfacet
facet normal -0.514495755427529 -0.857492925712543 -2.91352862708117e-015
outer loop
vertex 10.0 -5.75 3.15526737528987e-015
vertex 0.0 0.249999999999981 15.4
vertex 0.0 0.250000000000004 6.87796703060462e-016
endloop
endfacet
facet normal -0.514495755427529 -0.857492925712543 -2.91352862708117e-015
outer loop
vertex 0.0 0.249999999999981 15.4
vertex 10.0 -5.75 3.15526737528987e-015
vertex 9.99999999999998 -5.75000000000007 15.4
endloop
endfacet
facet normal -0.0497578481974261 -0.998761311096281 -5.84371520978929e-015
outer loop
vertex 15.0 -10.7500000000001 15.4
vertex 14.3437045149351 -10.7173036482734 8.45989944764369e-015
vertex 15.0 -10.75 8.45989944764369e-015
endloop
endfacet
facet normal -0.0497578481974261 -0.998761311096281 -5.84371520978929e-015
outer loop
vertex 14.3437045149351 -10.7173036482734 8.45989944764369e-015
vertex 15.0 -10.7500000000001 15.4
vertex 14.3437045149352 -10.7173036482735 15.4
endloop
endfacet
facet normal -0.182498912351325 -0.983206055204393 -6.14216012067445e-015
outer loop
vertex 14.3437045149352 -10.7173036482735 15.4
vertex 13.6976305353465 -10.5973818903171 8.45989944764369e-015
vertex 14.3437045149351 -10.7173036482734 8.45989944764369e-015
endloop
endfacet
facet normal -0.182498912351325 -0.983206055204393 -6.14216012067445e-015
outer loop
vertex 13.6976305353465 -10.5973818903171 8.45989944764369e-015
vertex 14.3437045149352 -10.7173036482735 15.4
vertex 13.6976305353465 -10.5973818903172 15.4
endloop
endfacet
facet normal -0.311980152445001 -0.950088619277378 -5.73819389429324e-015
outer loop
vertex 13.6976305353465 -10.5973818903172 15.4
vertex 13.0733183355088 -10.3923767872912 8.45989944764369e-015
vertex 13.6976305353465 -10.5973818903171 8.45989944764369e-015
endloop
endfacet
facet normal -0.311980152445001 -0.950088619277378 -5.73819389429324e-015
outer loop
vertex 13.0733183355088 -10.3923767872912 8.45989944764369e-015
vertex 13.6976305353465 -10.5973818903172 15.4
vertex 13.0733183355089 -10.3923767872914 15.4
endloop
endfacet
facet normal -0.435888754356021 -0.900000552125362 -3.74916551920353e-015
outer loop
vertex 13.0733183355089 -10.3923767872914 15.4
vertex 12.4819194773898 -10.1059501723472 8.45989944764369e-015
vertex 13.0733183355088 -10.3923767872912 8.45989944764369e-015
endloop
endfacet
facet normal -0.435888754356021 -0.900000552125362 -3.74916551920353e-015
outer loop
vertex 12.4819194773898 -10.1059501723472 8.45989944764369e-015
vertex 13.0733183355089 -10.3923767872914 15.4
vertex 12.4819194773898 -10.1059501723473 15.4
endloop
endfacet
facet normal -0.552011443295109 -0.833836534622495 -3.32078291134284e-015
outer loop
vertex 12.4819194773898 -10.1059501723473 15.4
vertex 11.9339976197097 -9.74321824239177 8.45989944764369e-015
vertex 12.4819194773898 -10.1059501723472 8.45989944764369e-015
endloop
endfacet
facet normal -0.552011443295109 -0.833836534622495 -3.32078291134284e-015
outer loop
vertex 11.9339976197097 -9.74321824239177 8.45989944764369e-015
vertex 12.4819194773898 -10.1059501723473 15.4
vertex 11.9339976197097 -9.74321824239187 15.4
endloop
endfacet
facet normal -0.658274017665894 -0.75277839877749 -3.10218971173689e-015
outer loop
vertex 11.9339976197097 -9.74321824239187 15.4
vertex 11.4393398282202 -9.31066017177983 8.45989944764369e-015
vertex 11.9339976197097 -9.74321824239177 8.45989944764369e-015
endloop
endfacet
facet normal -0.658274017665894 -0.75277839877749 -3.10218971173689e-015
outer loop
vertex 11.4393398282202 -9.31066017177983 8.45989944764369e-015
vertex 11.9339976197097 -9.74321824239187 15.4
vertex 11.4393398282202 -9.31066017177992 15.4
endloop
endfacet
facet normal -0.75277839877749 -0.658274017665894 -2.55933781336277e-015
outer loop
vertex 11.0067817576083 -8.81600238029039 15.4
vertex 11.4393398282202 -9.31066017177983 8.45989944764369e-015
vertex 11.4393398282202 -9.31066017177992 15.4
endloop
endfacet
facet normal -0.75277839877749 -0.658274017665894 -2.55933781336277e-015
outer loop
vertex 11.4393398282202 -9.31066017177983 8.45989944764369e-015
vertex 11.0067817576083 -8.81600238029039 15.4
vertex 11.0067817576082 -8.81600238029032 1.12798659301916e-014
endloop
endfacet
facet normal -0.833836534622481 -0.55201144329513 -2.37135532675124e-015
outer loop
vertex 10.6440498276528 -8.26808052261029 15.4
vertex 11.0067817576082 -8.81600238029032 1.12798659301916e-014
vertex 11.0067817576083 -8.81600238029039 15.4
endloop
endfacet
facet normal -0.833836534622481 -0.55201144329513 -2.37135532675124e-015
outer loop
vertex 11.0067817576082 -8.81600238029032 1.12798659301916e-014
vertex 10.6440498276528 -8.26808052261029 15.4
vertex 10.6440498276528 -8.26808052261021 1.12798659301916e-014
endloop
endfacet
facet normal -0.90000055212538 -0.435888754355984 -5.49487859585145e-016
outer loop
vertex 10.3576232127088 -7.67668166449125 15.4
vertex 10.6440498276528 -8.26808052261021 1.12798659301916e-014
vertex 10.6440498276528 -8.26808052261029 15.4
endloop
endfacet
facet normal -0.90000055212538 -0.435888754355984 -5.49487859585145e-016
outer loop
vertex 10.6440498276528 -8.26808052261021 1.12798659301916e-014
vertex 10.3576232127088 -7.67668166449125 15.4
vertex 10.3576232127088 -7.67668166449119 1.12798659301916e-014
endloop
endfacet
facet normal -0.950088619277378 -0.311980152445001 8.3114870446008e-016
outer loop
vertex 10.152618109683 -7.05236946465356 15.4
vertex 10.3576232127088 -7.67668166449119 1.12798659301916e-014
vertex 10.3576232127088 -7.67668166449125 15.4
endloop
endfacet
facet normal -0.950088619277378 -0.311980152445001 8.3114870446008e-016
outer loop
vertex 10.3576232127088 -7.67668166449119 1.12798659301916e-014
vertex 10.152618109683 -7.05236946465356 15.4
vertex 10.1526181096829 -7.0523694646535 1.40998324127395e-014
endloop
endfacet
facet normal -0.983206055204392 -0.182498912351331 7.32003891830416e-016
outer loop
vertex 10.0326963517266 -6.40629548506497 15.4
vertex 10.1526181096829 -7.0523694646535 1.40998324127395e-014
vertex 10.152618109683 -7.05236946465356 15.4
endloop
endfacet
facet normal -0.983206055204392 -0.182498912351331 7.32003891830416e-016
outer loop
vertex 10.1526181096829 -7.0523694646535 1.40998324127395e-014
vertex 10.0326963517266 -6.40629548506497 15.4
vertex 10.0326963517266 -6.40629548506489 1.40998324127395e-014
endloop
endfacet
facet normal -0.998761311096278 -0.0497578481974775 -9.41707686890377e-018
outer loop
vertex 9.99999999999998 -5.75000000000007 15.4
vertex 10.0326963517266 -6.40629548506489 1.40998324127395e-014
vertex 10.0326963517266 -6.40629548506497 15.4
endloop
endfacet
facet normal -0.998761311096278 -0.0497578481974775 -9.41707686890377e-018
outer loop
vertex 10.0326963517266 -6.40629548506489 1.40998324127395e-014
vertex 9.99999999999998 -5.75000000000007 15.4
vertex 10.0 -5.75 3.15526737528987e-015
endloop
endfacet
facet normal -1.0 0.0 0.0
outer loop
vertex 0.0 0.249999999999981 15.4
vertex 0.0 6.52605205317952 10.5674399190518
vertex 0.0 0.250000000000004 6.87796703060462e-016
endloop
endfacet
facet normal -1.0 0.0 0.0
outer loop
vertex 0.0 6.52605205317952 10.5674399190518
vertex 0.0 0.249999999999981 15.4
vertex 0.0 7.39509056414777 11.4335629247519
endloop
endfacet
facet normal -1.0 0.0 0.0
outer loop
vertex 0.0 7.39509056414777 11.4335629247519
vertex 0.0 0.249999999999981 15.4
vertex 0.0 8.45868643520844 12.0452497871347
endloop
endfacet
facet normal -1.0 0.0 0.0
outer loop
vertex 0.0 8.45868643520844 12.0452497871347
vertex 0.0 0.249999999999981 15.4
vertex 0.0 20.25 15.4000000000001
endloop
endfacet
facet normal -1.0 0.0 0.0
outer loop
vertex 0.0 0.250000000000004 6.87796703060462e-016
vertex 0.0 6.52605205317952 10.5674399190518
vertex 0.0 5.91079444067212 9.50590562153678
endloop
endfacet
facet normal -1.0 0.0 0.0
outer loop
vertex 0.0 0.250000000000004 6.87796703060462e-016
vertex 0.0 5.91079444067212 9.50590562153678
vertex 0.0 5.59124651615668 8.3213018403142
endloop
endfacet
facet normal -1.0 0.0 0.0
outer loop
vertex 0.0 0.250000000000004 6.87796703060462e-016
vertex 0.0 5.59124651615668 8.3213018403142
vertex 0.0 5.58918494261101 7.09435736542405
endloop
endfacet
facet normal -1.0 0.0 0.0
outer loop
vertex 0.0 8.45868643520844 12.0452497871347
vertex 0.0 20.25 15.4000000000001
vertex 0.0 9.64435736542402 12.360815057389
endloop
endfacet
facet normal -1.0 0.0 0.0
outer loop
vertex 0.0 9.64435736542402 12.360815057389
vertex 0.0 20.25 15.4000000000001
vertex 0.0 10.8713018403142 12.3587534838433
endloop
endfacet
facet normal -1.0 0.0 0.0
outer loop
vertex 0.0 10.8713018403142 12.3587534838433
vertex 0.0 20.25 15.4000000000001
vertex 0.0 12.0559056215368 12.0392055593279
endloop
endfacet
facet normal -1.0 0.0 0.0
outer loop
vertex 0.0 12.0559056215368 12.0392055593279
vertex 0.0 20.25 15.4000000000001
vertex 0.0 13.1174399190517 11.4239479468205
endloop
endfacet
facet normal -1.0 0.0 0.0
outer loop
vertex 0.0 13.1174399190517 11.4239479468205
vertex 0.0 20.25 15.4000000000001
vertex 0.0 13.9835629247519 10.5549094358522
endloop
endfacet
facet normal -1.0 0.0 0.0
outer loop
vertex 0.0 13.9835629247519 10.5549094358522
vertex 0.0 20.25 15.4000000000001
vertex 0.0 14.5952497871347 9.49131356479158
endloop
endfacet
facet normal -1.0 0.0 0.0
outer loop
vertex 0.0 14.5952497871347 9.49131356479158
vertex 0.0 20.25 15.4000000000001
vertex 0.0 14.910815057389 8.305642634576
endloop
endfacet
facet normal -1.0 0.0 0.0
outer loop
vertex 0.0 0.250000000000004 6.87796703060462e-016
vertex 0.0 8.44409437846324 3.36079444067215
vertex 0.0 20.25 5.58191397263672e-014
endloop
endfacet
facet normal -1.0 0.0 0.0
outer loop
vertex 0.0 8.44409437846324 3.36079444067215
vertex 0.0 0.250000000000004 6.87796703060462e-016
vertex 0.0 7.38256008094824 3.97605205317955
endloop
endfacet
facet normal -1.0 0.0 0.0
outer loop
vertex 0.0 7.38256008094824 3.97605205317955
vertex 0.0 0.250000000000004 6.87796703060462e-016
vertex 0.0 6.5164370752481 4.8450905641478
endloop
endfacet
facet normal -1.0 0.0 0.0
outer loop
vertex 0.0 6.5164370752481 4.8450905641478
vertex 0.0 0.250000000000004 6.87796703060462e-016
vertex 0.0 5.90475021286534 5.90868643520847
endloop
endfacet
facet normal -1.0 0.0 0.0
outer loop
vertex 0.0 5.90475021286534 5.90868643520847
vertex 0.0 0.250000000000004 6.87796703060462e-016
vertex 0.0 5.58918494261101 7.09435736542405
endloop
endfacet
facet normal -1.0 0.0 0.0
outer loop
vertex 0.0 20.25 5.58191397263672e-014
vertex 0.0 8.44409437846324 3.36079444067215
vertex 0.0 9.62869815968582 3.04124651615671
endloop
endfacet
facet normal -1.0 0.0 0.0
outer loop
vertex 0.0 20.25 5.58191397263672e-014
vertex 0.0 9.62869815968582 3.04124651615671
vertex 0.0 10.855642634576 3.03918494261104
endloop
endfacet
facet normal -1.0 0.0 0.0
outer loop
vertex 0.0 20.25 5.58191397263672e-014
vertex 0.0 10.855642634576 3.03918494261104
vertex 0.0 12.0413135647916 3.35475021286537
endloop
endfacet
facet normal -1.0 0.0 0.0
outer loop
vertex 0.0 20.25 5.58191397263672e-014
vertex 0.0 12.0413135647916 3.35475021286537
vertex 0.0 13.1049094358522 3.96643707524813
endloop
endfacet
facet normal -1.0 0.0 0.0
outer loop
vertex 0.0 20.25 5.58191397263672e-014
vertex 0.0 13.1049094358522 3.96643707524813
vertex 0.0 13.9739479468205 4.83256008094827
endloop
endfacet
facet normal -1.0 0.0 0.0
outer loop
vertex 0.0 20.25 5.58191397263672e-014
vertex 0.0 13.9739479468205 4.83256008094827
vertex 0.0 14.5892055593279 5.89409437846327
endloop
endfacet
facet normal -1.0 0.0 0.0
outer loop
vertex 0.0 20.25 5.58191397263672e-014
vertex 0.0 14.5892055593279 5.89409437846327
vertex 0.0 14.9087534838433 7.07869815968585
endloop
endfacet
facet normal -1.0 0.0 0.0
outer loop
vertex 0.0 20.25 5.58191397263672e-014
vertex 0.0 14.9087534838433 7.07869815968585
vertex 0.0 14.910815057389 8.305642634576
endloop
endfacet
facet normal -1.0 0.0 0.0
outer loop
vertex 0.0 20.25 5.58191397263672e-014
vertex 0.0 14.910815057389 8.305642634576
vertex 0.0 20.25 15.4000000000001
endloop
endfacet
facet normal 1.0 8.21161018122517e-017 1.69636011771394e-017
outer loop
vertex 20.0 -5.75000000000002 9.00645767614178e-015
vertex 20.0 7.38256008094824 3.97605205317955
vertex 20.0 -5.75000000000002 15.4
endloop
endfacet
facet normal 1.0 8.21161018122517e-017 1.69636011771394e-017
outer loop
vertex 20.0 7.38256008094824 3.97605205317955
vertex 20.0 -5.75000000000002 9.00645767614178e-015
vertex 20.0 8.44409437846324 3.36079444067215
endloop
endfacet
facet normal 1.0 8.21161018122517e-017 1.69636011771394e-017
outer loop
vertex 20.0 8.44409437846324 3.36079444067215
vertex 20.0 -5.75000000000002 9.00645767614178e-015
vertex 20.0 9.62869815968582 3.04124651615671
endloop
endfacet
facet normal 1.0 8.21161018122517e-017 1.69636011771394e-017
outer loop
vertex 20.0 9.62869815968582 3.04124651615671
vertex 20.0 -5.75000000000002 9.00645767614178e-015
vertex 20.0 26.25 5.34197749523079e-014
endloop
endfacet
facet normal 1.0 8.21161018122517e-017 1.69636011771394e-017
outer loop
vertex 20.0 -5.75000000000002 15.4
vertex 20.0 7.38256008094824 3.97605205317955
vertex 20.0 6.5164370752481 4.8450905641478
endloop
endfacet
facet normal 1.0 8.21161018122517e-017 1.69636011771394e-017
outer loop
vertex 20.0 -5.75000000000002 15.4
vertex 20.0 6.5164370752481 4.8450905641478
vertex 20.0 5.90475021286534 5.90868643520847
endloop
endfacet
facet normal 1.0 8.21161018122517e-017 1.69636011771394e-017
outer loop
vertex 20.0 -5.75000000000002 15.4
vertex 20.0 5.90475021286534 5.90868643520847
vertex 20.0 5.58918494261101 7.09435736542405
endloop
endfacet
facet normal 1.0 8.21161018122517e-017 1.69636011771394e-017
outer loop
vertex 20.0 9.62869815968582 3.04124651615671
vertex 20.0 26.25 5.34197749523079e-014
vertex 20.0 10.855642634576 3.03918494261104
endloop
endfacet
facet normal 1.0 8.21161018122517e-017 1.69636011771394e-017
outer loop
vertex 20.0 10.855642634576 3.03918494261104
vertex 20.0 26.25 5.34197749523079e-014
vertex 20.0 12.0413135647916 3.35475021286537
endloop
endfacet
facet normal 1.0 8.21161018122517e-017 1.69636011771394e-017
outer loop
vertex 20.0 12.0413135647916 3.35475021286537
vertex 20.0 26.25 5.34197749523079e-014
vertex 20.0 13.1049094358522 3.96643707524813
endloop
endfacet
facet normal 1.0 8.21161018122517e-017 1.69636011771394e-017
outer loop
vertex 20.0 13.1049094358522 3.96643707524813
vertex 20.0 26.25 5.34197749523079e-014
vertex 20.0 13.9739479468205 4.83256008094827
endloop
endfacet
facet normal 1.0 8.21161018122517e-017 1.69636011771394e-017
outer loop
vertex 20.0 13.9739479468205 4.83256008094827
vertex 20.0 26.25 5.34197749523079e-014
vertex 20.0 14.5892055593279 5.89409437846327
endloop
endfacet
facet normal 1.0 8.21161018122517e-017 1.69636011771394e-017
outer loop
vertex 20.0 14.5892055593279 5.89409437846327
vertex 20.0 26.25 5.34197749523079e-014
vertex 20.0 14.9087534838433 7.07869815968585
endloop
endfacet
facet normal 1.0 8.21161018122517e-017 1.69636011771394e-017
outer loop
vertex 20.0 14.9087534838433 7.07869815968585
vertex 20.0 26.25 5.34197749523079e-014
vertex 20.0 14.910815057389 8.305642634576
endloop
endfacet
facet normal 1.0 8.21161018122517e-017 1.69636011771394e-017
outer loop
vertex 20.0 -5.75000000000002 15.4
vertex 20.0 9.64435736542402 12.360815057389
vertex 20.0 26.25 15.4000000000001
endloop
endfacet
facet normal 1.0 8.21161018122517e-017 1.69636011771394e-017
outer loop
vertex 20.0 9.64435736542402 12.360815057389
vertex 20.0 -5.75000000000002 15.4
vertex 20.0 8.45868643520844 12.0452497871347
endloop
endfacet
facet normal 1.0 8.21161018122517e-017 1.69636011771394e-017
outer loop
vertex 20.0 8.45868643520844 12.0452497871347
vertex 20.0 -5.75000000000002 15.4
vertex 20.0 7.39509056414777 11.4335629247519
endloop
endfacet
facet normal 1.0 8.21161018122517e-017 1.69636011771394e-017
outer loop
vertex 20.0 7.39509056414777 11.4335629247519
vertex 20.0 -5.75000000000002 15.4
vertex 20.0 6.52605205317952 10.5674399190518
endloop
endfacet
facet normal 1.0 8.21161018122517e-017 1.69636011771394e-017
outer loop
vertex 20.0 6.52605205317952 10.5674399190518
vertex 20.0 -5.75000000000002 15.4
vertex 20.0 5.91079444067212 9.50590562153678
endloop
endfacet
facet normal 1.0 8.21161018122517e-017 1.69636011771394e-017
outer loop
vertex 20.0 5.91079444067212 9.50590562153678
vertex 20.0 -5.75000000000002 15.4
vertex 20.0 5.59124651615668 8.3213018403142
endloop
endfacet
facet normal 1.0 8.21161018122517e-017 1.69636011771394e-017
outer loop
vertex 20.0 5.59124651615668 8.3213018403142
vertex 20.0 -5.75000000000002 15.4
vertex 20.0 5.58918494261101 7.09435736542405
endloop
endfacet
facet normal 1.0 8.21161018122517e-017 1.69636011771394e-017
outer loop
vertex 20.0 26.25 15.4000000000001
vertex 20.0 9.64435736542402 12.360815057389
vertex 20.0 10.8713018403142 12.3587534838433
endloop
endfacet
facet normal 1.0 8.21161018122517e-017 1.69636011771394e-017
outer loop
vertex 20.0 26.25 15.4000000000001
vertex 20.0 10.8713018403142 12.3587534838433
vertex 20.0 12.0559056215368 12.0392055593279
endloop
endfacet
facet normal 1.0 8.21161018122517e-017 1.69636011771394e-017
outer loop
vertex 20.0 26.25 15.4000000000001
vertex 20.0 12.0559056215368 12.0392055593279
vertex 20.0 13.1174399190517 11.4239479468205
endloop
endfacet
facet normal 1.0 8.21161018122517e-017 1.69636011771394e-017
outer loop
vertex 20.0 26.25 15.4000000000001
vertex 20.0 13.1174399190517 11.4239479468205
vertex 20.0 13.9835629247519 10.5549094358522
endloop
endfacet
facet normal 1.0 8.21161018122517e-017 1.69636011771394e-017
outer loop
vertex 20.0 26.25 15.4000000000001
vertex 20.0 13.9835629247519 10.5549094358522
vertex 20.0 14.5952497871347 9.49131356479158
endloop
endfacet
facet normal 1.0 8.21161018122517e-017 1.69636011771394e-017
outer loop
vertex 20.0 26.25 15.4000000000001
vertex 20.0 14.5952497871347 9.49131356479158
vertex 20.0 14.910815057389 8.305642634576
endloop
endfacet
facet normal 1.0 8.21161018122517e-017 1.69636011771394e-017
outer loop
vertex 20.0 26.25 15.4000000000001
vertex 20.0 14.910815057389 8.305642634576
vertex 20.0 26.25 5.34197749523079e-014
endloop
endfacet
facet normal -1.01310918226847e-016 1.47625544561884e-015 -1.0
outer loop
vertex 10.0 26.25 5.68766271573226e-014
vertex 0.0 0.250000000000004 6.87796703060462e-016
vertex 0.0 20.25 5.58191397263672e-014
endloop
endfacet
facet normal -1.01310918226847e-016 1.47625544561884e-015 -1.0
outer loop
vertex 0.0 0.250000000000004 6.87796703060462e-016
vertex 10.0 26.25 5.68766271573226e-014
vertex 10.0 -5.75 3.15526737528987e-015
endloop
endfacet
facet normal -1.01310918226847e-016 1.47625544561884e-015 -1.0
outer loop
vertex 10.0 -5.75 3.15526737528987e-015
vertex 10.0 26.25 5.68766271573226e-014
vertex 10.0326963517266 26.9062954850649 6.20392626160537e-014
endloop
endfacet
facet normal -1.01310918226847e-016 1.47625544561884e-015 -1.0
outer loop
vertex 10.0 -5.75 3.15526737528987e-015
vertex 10.0326963517266 26.9062954850649 6.20392626160537e-014
vertex 10.0326963517266 -6.40629548506489 1.40998324127395e-014
endloop
endfacet
facet normal -1.01310918226847e-016 1.47625544561884e-015 -1.0
outer loop
vertex 10.0326963517266 -6.40629548506489 1.40998324127395e-014
vertex 10.0326963517266 26.9062954850649 6.20392626160537e-014
vertex 10.1526181096829 27.5523694646535 6.20392626160537e-014
endloop
endfacet
facet normal -1.01310918226847e-016 1.47625544561884e-015 -1.0
outer loop
vertex 10.0326963517266 -6.40629548506489 1.40998324127395e-014
vertex 10.1526181096829 27.5523694646535 6.20392626160537e-014
vertex 10.1526181096829 -7.0523694646535 1.40998324127395e-014
endloop
endfacet
facet normal -1.01310918226847e-016 1.47625544561884e-015 -1.0
outer loop
vertex 10.1526181096829 -7.0523694646535 1.40998324127395e-014
vertex 10.1526181096829 27.5523694646535 6.20392626160537e-014
vertex 10.3576232127088 28.1766816644912 6.48592290986016e-014
endloop
endfacet
facet normal -1.01310918226847e-016 1.47625544561884e-015 -1.0
outer loop
vertex 10.1526181096829 -7.0523694646535 1.40998324127395e-014
vertex 10.3576232127088 28.1766816644912 6.48592290986016e-014
vertex 10.3576232127088 -7.67668166449119 1.12798659301916e-014
endloop
endfacet
facet normal -1.01310918226847e-016 1.47625544561884e-015 -1.0
outer loop
vertex 10.3576232127088 -7.67668166449119 1.12798659301916e-014
vertex 10.3576232127088 28.1766816644912 6.48592290986016e-014
vertex 10.6440498276528 28.7680805226102 6.48592290986016e-014
endloop
endfacet
facet normal -1.01310918226847e-016 1.47625544561884e-015 -1.0
outer loop
vertex 10.3576232127088 -7.67668166449119 1.12798659301916e-014
vertex 10.6440498276528 28.7680805226102 6.48592290986016e-014
vertex 10.6440498276528 -8.26808052261021 1.12798659301916e-014
endloop
endfacet
facet normal -1.01310918226847e-016 1.47625544561884e-015 -1.0
outer loop
vertex 10.6440498276528 -8.26808052261021 1.12798659301916e-014
vertex 10.6440498276528 28.7680805226102 6.48592290986016e-014
vertex 11.0067817576082 29.3160023802903 6.76791955811495e-014
endloop
endfacet
facet normal -1.01310918226847e-016 1.47625544561884e-015 -1.0
outer loop
vertex 10.6440498276528 -8.26808052261021 1.12798659301916e-014
vertex 11.0067817576082 29.3160023802903 6.76791955811495e-014
vertex 11.0067817576082 -8.81600238029032 1.12798659301916e-014
endloop
endfacet
facet normal -1.01310918226847e-016 1.47625544561884e-015 -1.0
outer loop
vertex 11.0067817576082 -8.81600238029032 1.12798659301916e-014
vertex 11.0067817576082 29.3160023802903 6.76791955811495e-014
vertex 11.4393398282202 29.8106601717798 6.76791955811495e-014
endloop
endfacet
facet normal -1.01310918226847e-016 1.47625544561884e-015 -1.0
outer loop
vertex 11.0067817576082 -8.81600238029032 1.12798659301916e-014
vertex 11.4393398282202 29.8106601717798 6.76791955811495e-014
vertex 11.4393398282202 -9.31066017177983 8.45989944764369e-015
endloop
endfacet
facet normal -1.01310918226847e-016 1.47625544561884e-015 -1.0
outer loop
vertex 11.4393398282202 -9.31066017177983 8.45989944764369e-015
vertex 11.4393398282202 29.8106601717798 6.76791955811495e-014
vertex 11.9339976197097 30.2432182423918 6.76791955811495e-014
endloop
endfacet
facet normal -1.01310918226847e-016 1.47625544561884e-015 -1.0
outer loop
vertex 11.4393398282202 -9.31066017177983 8.45989944764369e-015
vertex 11.9339976197097 30.2432182423918 6.76791955811495e-014
vertex 11.9339976197097 -9.74321824239177 8.45989944764369e-015
endloop
endfacet
facet normal -1.01310918226847e-016 1.47625544561884e-015 -1.0
outer loop
vertex 11.9339976197097 -9.74321824239177 8.45989944764369e-015
vertex 11.9339976197097 30.2432182423918 6.76791955811495e-014
vertex 12.4819194773898 30.6059501723472 6.76791955811495e-014
endloop
endfacet
facet normal -1.01310918226847e-016 1.47625544561884e-015 -1.0
outer loop
vertex 11.9339976197097 -9.74321824239177 8.45989944764369e-015
vertex 12.4819194773898 30.6059501723472 6.76791955811495e-014
vertex 12.4819194773898 -10.1059501723472 8.45989944764369e-015
endloop
endfacet
facet normal -1.01310918226847e-016 1.47625544561884e-015 -1.0
outer loop
vertex 12.4819194773898 -10.1059501723472 8.45989944764369e-015
vertex 12.4819194773898 30.6059501723472 6.76791955811495e-014
vertex 13.0733183355088 30.8923767872912 6.76791955811495e-014
endloop
endfacet
facet normal -1.01310918226847e-016 1.47625544561884e-015 -1.0
outer loop
vertex 12.4819194773898 -10.1059501723472 8.45989944764369e-015
vertex 13.0733183355088 30.8923767872912 6.76791955811495e-014
vertex 13.0733183355088 -10.3923767872912 8.45989944764369e-015
endloop
endfacet
facet normal -1.01310918226847e-016 1.47625544561884e-015 -1.0
outer loop
vertex 13.0733183355088 -10.3923767872912 8.45989944764369e-015
vertex 13.0733183355088 30.8923767872912 6.76791955811495e-014
vertex 13.6976305353465 31.0973818903171 6.76791955811495e-014
endloop
endfacet
facet normal -1.01310918226847e-016 1.47625544561884e-015 -1.0
outer loop
vertex 13.0733183355088 -10.3923767872912 8.45989944764369e-015
vertex 13.6976305353465 31.0973818903171 6.76791955811495e-014
vertex 13.6976305353465 -10.5973818903171 8.45989944764369e-015
endloop
endfacet
facet normal -1.01310918226847e-016 1.47625544561884e-015 -1.0
outer loop
vertex 13.6976305353465 -10.5973818903171 8.45989944764369e-015
vertex 13.6976305353465 31.0973818903171 6.76791955811495e-014
vertex 14.3437045149351 31.2173036482734 6.48592290986016e-014
endloop
endfacet
facet normal -1.01310918226847e-016 1.47625544561884e-015 -1.0
outer loop
vertex 13.6976305353465 -10.5973818903171 8.45989944764369e-015
vertex 14.3437045149351 31.2173036482734 6.48592290986016e-014
vertex 14.3437045149351 -10.7173036482734 8.45989944764369e-015
endloop
endfacet
facet normal -1.01310918226847e-016 1.47625544561884e-015 -1.0
outer loop
vertex 14.3437045149351 -10.7173036482734 8.45989944764369e-015
vertex 14.3437045149351 31.2173036482734 6.48592290986016e-014
vertex 15.0 31.25 6.48592290986016e-014
endloop
endfacet
facet normal -1.01310918226847e-016 1.47625544561884e-015 -1.0
outer loop
vertex 14.3437045149351 -10.7173036482734 8.45989944764369e-015
vertex 15.0 31.25 6.48592290986016e-014
vertex 15.0 -10.75 8.45989944764369e-015
endloop
endfacet
facet normal -1.01310918226847e-016 1.47625544561884e-015 -1.0
outer loop
vertex 15.0 -10.75 8.45989944764369e-015
vertex 15.0 31.25 6.48592290986016e-014
vertex 20.0 26.25 5.34197749523079e-014
endloop
endfacet
facet normal -1.01310918226847e-016 1.47625544561884e-015 -1.0
outer loop
vertex 20.0 26.25 5.34197749523079e-014
vertex 15.0 31.25 6.48592290986016e-014
vertex 53.0 31.25 6.47868388236998e-014
endloop
endfacet
facet normal -1.01310918226847e-016 1.47625544561884e-015 -1.0
outer loop
vertex 20.0 26.25 5.34197749523079e-014
vertex 53.0 31.25 6.47868388236998e-014
vertex 53.0 26.25 5.31218698926974e-014
endloop
endfacet
facet normal -1.01310918226847e-016 1.47625544561884e-015 -1.0
outer loop
vertex 15.0 -10.75 8.45989944764369e-015
vertex 20.0 -5.75000000000002 9.00645767614178e-015
vertex 53.0 -10.75 -2.70474689908634e-015
endloop
endfacet
facet normal -1.01310918226847e-016 1.47625544561884e-015 -1.0
outer loop
vertex 20.0 -5.75000000000002 9.00645767614178e-015
vertex 15.0 -10.75 8.45989944764369e-015
vertex 20.0 26.25 5.34197749523079e-014
endloop
endfacet
facet normal -1.01310918226847e-016 1.47625544561884e-015 -1.0
outer loop
vertex 53.0 -10.75 -2.70474689908634e-015
vertex 20.0 -5.75000000000002 9.00645767614178e-015
vertex 53.0 -5.75000000000002 8.7085526165313e-015
endloop
endfacet
facet normal 1.31004380316344e-016 -1.54051936535965e-015 1.0
outer loop
vertex 15.0 -10.7500000000001 15.4
vertex 20.0 -5.75000000000002 15.4
vertex 20.0 26.25 15.4000000000001
endloop
endfacet
facet normal 1.31004380316344e-016 -1.54051936535965e-015 1.0
outer loop
vertex 20.0 -5.75000000000002 15.4
vertex 15.0 -10.7500000000001 15.4
vertex 53.0 -10.75 15.4
endloop
endfacet
facet normal 1.31004380316344e-016 -1.54051936535965e-015 1.0
outer loop
vertex 20.0 -5.75000000000002 15.4
vertex 53.0 -10.75 15.4
vertex 53.0 -5.75000000000002 15.4
endloop
endfacet
facet normal 1.31004380316344e-016 -1.54051936535965e-015 1.0
outer loop
vertex 9.99999999999998 -5.75000000000007 15.4
vertex 0.0 20.25 15.4000000000001
vertex 0.0 0.249999999999981 15.4
endloop
endfacet
facet normal 1.31004380316344e-016 -1.54051936535965e-015 1.0
outer loop
vertex 0.0 20.25 15.4000000000001
vertex 9.99999999999998 -5.75000000000007 15.4
vertex 10.0 26.25 15.4000000000001
endloop
endfacet
facet normal 1.31004380316344e-016 -1.54051936535965e-015 1.0
outer loop
vertex 10.0 26.25 15.4000000000001
vertex 9.99999999999998 -5.75000000000007 15.4
vertex 10.0326963517266 -6.40629548506497 15.4
endloop
endfacet
facet normal 1.31004380316344e-016 -1.54051936535965e-015 1.0
outer loop
vertex 10.0 26.25 15.4000000000001
vertex 10.0326963517266 -6.40629548506497 15.4
vertex 10.0326963517266 26.9062954850649 15.4000000000001
endloop
endfacet
facet normal 1.31004380316344e-016 -1.54051936535965e-015 1.0
outer loop
vertex 10.0326963517266 26.9062954850649 15.4000000000001
vertex 10.0326963517266 -6.40629548506497 15.4
vertex 10.1526181096829 27.5523694646535 15.4000000000001
endloop
endfacet
facet normal 1.31004380316344e-016 -1.54051936535965e-015 1.0
outer loop
vertex 10.1526181096829 27.5523694646535 15.4000000000001
vertex 10.0326963517266 -6.40629548506497 15.4
vertex 10.152618109683 -7.05236946465356 15.4
endloop
endfacet
facet normal 1.31004380316344e-016 -1.54051936535965e-015 1.0
outer loop
vertex 10.1526181096829 27.5523694646535 15.4000000000001
vertex 10.152618109683 -7.05236946465356 15.4
vertex 10.3576232127088 28.1766816644912 15.4000000000001
endloop
endfacet
facet normal 1.31004380316344e-016 -1.54051936535965e-015 1.0
outer loop
vertex 10.3576232127088 28.1766816644912 15.4000000000001
vertex 10.152618109683 -7.05236946465356 15.4
vertex 10.3576232127088 -7.67668166449125 15.4
endloop
endfacet
facet normal 1.31004380316344e-016 -1.54051936535965e-015 1.0
outer loop
vertex 10.3576232127088 28.1766816644912 15.4000000000001
vertex 10.3576232127088 -7.67668166449125 15.4
vertex 10.6440498276528 28.7680805226102 15.4000000000001
endloop
endfacet
facet normal 1.31004380316344e-016 -1.54051936535965e-015 1.0
outer loop
vertex 10.6440498276528 28.7680805226102 15.4000000000001
vertex 10.3576232127088 -7.67668166449125 15.4
vertex 10.6440498276528 -8.26808052261029 15.4
endloop
endfacet
facet normal 1.31004380316344e-016 -1.54051936535965e-015 1.0
outer loop
vertex 10.6440498276528 28.7680805226102 15.4000000000001
vertex 10.6440498276528 -8.26808052261029 15.4
vertex 11.0067817576082 29.3160023802903 15.4000000000001
endloop
endfacet
facet normal 1.31004380316344e-016 -1.54051936535965e-015 1.0
outer loop
vertex 11.0067817576082 29.3160023802903 15.4000000000001
vertex 10.6440498276528 -8.26808052261029 15.4
vertex 11.0067817576083 -8.81600238029039 15.4
endloop
endfacet
facet normal 1.31004380316344e-016 -1.54051936535965e-015 1.0
outer loop
vertex 11.0067817576082 29.3160023802903 15.4000000000001
vertex 11.0067817576083 -8.81600238029039 15.4
vertex 11.4393398282202 29.8106601717798 15.4000000000001
endloop
endfacet
facet normal 1.31004380316344e-016 -1.54051936535965e-015 1.0
outer loop
vertex 11.4393398282202 29.8106601717798 15.4000000000001
vertex 11.0067817576083 -8.81600238029039 15.4
vertex 11.4393398282202 -9.31066017177992 15.4
endloop
endfacet
facet normal 1.31004380316344e-016 -1.54051936535965e-015 1.0
outer loop
vertex 11.4393398282202 29.8106601717798 15.4000000000001
vertex 11.4393398282202 -9.31066017177992 15.4
vertex 11.9339976197097 30.2432182423918 15.4000000000001
endloop
endfacet
facet normal 1.31004380316344e-016 -1.54051936535965e-015 1.0
outer loop
vertex 11.9339976197097 30.2432182423918 15.4000000000001
vertex 11.4393398282202 -9.31066017177992 15.4
vertex 11.9339976197097 -9.74321824239187 15.4
endloop
endfacet
facet normal 1.31004380316344e-016 -1.54051936535965e-015 1.0
outer loop
vertex 11.9339976197097 30.2432182423918 15.4000000000001
vertex 11.9339976197097 -9.74321824239187 15.4
vertex 12.4819194773898 30.6059501723472 15.4000000000001
endloop
endfacet
facet normal 1.31004380316344e-016 -1.54051936535965e-015 1.0
outer loop
vertex 12.4819194773898 30.6059501723472 15.4000000000001
vertex 11.9339976197097 -9.74321824239187 15.4
vertex 12.4819194773898 -10.1059501723473 15.4
endloop
endfacet
facet normal 1.31004380316344e-016 -1.54051936535965e-015 1.0
outer loop
vertex 12.4819194773898 30.6059501723472 15.4000000000001
vertex 12.4819194773898 -10.1059501723473 15.4
vertex 13.0733183355088 30.8923767872912 15.4000000000001
endloop
endfacet
facet normal 1.31004380316344e-016 -1.54051936535965e-015 1.0
outer loop
vertex 13.0733183355088 30.8923767872912 15.4000000000001
vertex 12.4819194773898 -10.1059501723473 15.4
vertex 13.0733183355089 -10.3923767872914 15.4
endloop
endfacet
facet normal 1.31004380316344e-016 -1.54051936535965e-015 1.0
outer loop
vertex 13.0733183355088 30.8923767872912 15.4000000000001
vertex 13.0733183355089 -10.3923767872914 15.4
vertex 13.6976305353465 31.0973818903171 15.4000000000001
endloop
endfacet
facet normal 1.31004380316344e-016 -1.54051936535965e-015 1.0
outer loop
vertex 13.6976305353465 31.0973818903171 15.4000000000001
vertex 13.0733183355089 -10.3923767872914 15.4
vertex 13.6976305353465 -10.5973818903172 15.4
endloop
endfacet
facet normal 1.31004380316344e-016 -1.54051936535965e-015 1.0
outer loop
vertex 13.6976305353465 31.0973818903171 15.4000000000001
vertex 13.6976305353465 -10.5973818903172 15.4
vertex 14.3437045149352 -10.7173036482735 15.4
endloop
endfacet
facet normal 1.31004380316344e-016 -1.54051936535965e-015 1.0
outer loop
vertex 13.6976305353465 31.0973818903171 15.4000000000001
vertex 14.3437045149352 -10.7173036482735 15.4
vertex 14.3437045149351 31.2173036482734 15.4000000000001
endloop
endfacet
facet normal 1.31004380316344e-016 -1.54051936535965e-015 1.0
outer loop
vertex 14.3437045149351 31.2173036482734 15.4000000000001
vertex 14.3437045149352 -10.7173036482735 15.4
vertex 15.0 31.25 15.4000000000001
endloop
endfacet
facet normal 1.31004380316344e-016 -1.54051936535965e-015 1.0
outer loop
vertex 15.0 31.25 15.4000000000001
vertex 14.3437045149352 -10.7173036482735 15.4
vertex 15.0 -10.7500000000001 15.4
endloop
endfacet
facet normal 1.31004380316344e-016 -1.54051936535965e-015 1.0
outer loop
vertex 15.0 31.25 15.4000000000001
vertex 15.0 -10.7500000000001 15.4
vertex 20.0 26.25 15.4000000000001
endloop
endfacet
facet normal 1.31004380316344e-016 -1.54051936535965e-015 1.0
outer loop
vertex 15.0 31.25 15.4000000000001
vertex 20.0 26.25 15.4000000000001
vertex 53.0 31.25 15.4000000000001
endloop
endfacet
facet normal 1.31004380316344e-016 -1.54051936535965e-015 1.0
outer loop
vertex 53.0 31.25 15.4000000000001
vertex 20.0 26.25 15.4000000000001
vertex 53.0 26.25 15.4000000000001
endloop
endfacet
facet normal -0.0 1.0 -0.0
outer loop
vertex 20.0 -5.75000000000002 9.00645767614178e-015
vertex 44.2388419150797 -5.74999999999999 3.73970411221482
vertex 45.3 -5.74999999999999 3.6
endloop
endfacet
facet normal -0.0 1.0 -0.0
outer loop
vertex 44.2388419150797 -5.74999999999999 3.73970411221482
vertex 20.0 -5.75000000000002 9.00645767614178e-015
vertex 43.25 -5.74999999999999 4.14929584448381
endloop
endfacet
facet normal -0.0 1.0 -0.0
outer loop
vertex 43.25 -5.74999999999999 4.14929584448381
vertex 20.0 -5.75000000000002 9.00645767614178e-015
vertex 20.0 -5.75000000000002 15.4
endloop
endfacet
facet normal -0.0 1.0 -0.0
outer loop
vertex 43.25 -5.74999999999999 4.14929584448381
vertex 20.0 -5.75000000000002 15.4
vertex 42.4008621971352 -5.74999999999999 4.80086219713516
endloop
endfacet
facet normal -0.0 1.0 -0.0
outer loop
vertex 42.4008621971352 -5.74999999999999 4.80086219713516
vertex 20.0 -5.75000000000002 15.4
vertex 41.7492958444838 -5.74999999999999 5.65
endloop
endfacet
facet normal -0.0 1.0 -0.0
outer loop
vertex 41.7492958444838 -5.74999999999999 5.65
vertex 20.0 -5.75000000000002 15.4
vertex 41.3397041122148 -5.74999999999999 6.63884191507966
endloop
endfacet
facet normal -0.0 1.0 -0.0
outer loop
vertex 41.3397041122148 -5.74999999999999 6.63884191507966
vertex 20.0 -5.75000000000002 15.4
vertex 41.2 -5.74999999999999 7.7
endloop
endfacet
facet normal -0.0 1.0 -0.0
outer loop
vertex 41.2 -5.74999999999999 7.7
vertex 20.0 -5.75000000000002 15.4
vertex 41.3397041122148 -5.74999999999999 8.76115808492033
endloop
endfacet
facet normal -0.0 1.0 -0.0
outer loop
vertex 41.3397041122148 -5.74999999999999 8.76115808492033
vertex 20.0 -5.75000000000002 15.4
vertex 41.7492958444838 -5.75 9.75
endloop
endfacet
facet normal -0.0 1.0 -0.0
outer loop
vertex 41.7492958444838 -5.75 9.75
vertex 20.0 -5.75000000000002 15.4
vertex 42.4008621971351 -5.75 10.5991378028648
endloop
endfacet
facet normal -0.0 1.0 -0.0
outer loop
vertex 42.4008621971351 -5.75 10.5991378028648
vertex 20.0 -5.75000000000002 15.4
vertex 43.25 -5.75 11.2507041555162
endloop
endfacet
facet normal -0.0 1.0 -0.0
outer loop
vertex 43.25 -5.75 11.2507041555162
vertex 20.0 -5.75000000000002 15.4
vertex 44.2388419150797 -5.75 11.6602958877852
endloop
endfacet
facet normal -0.0 1.0 -0.0
outer loop
vertex 44.2388419150797 -5.75 11.6602958877852
vertex 20.0 -5.75000000000002 15.4
vertex 45.3 -5.75 11.8
endloop
endfacet
facet normal -0.0 1.0 -0.0
outer loop
vertex 53.0 -5.75000000000002 8.7085526165313e-015
vertex 48.8507041555162 -5.74999999999999 5.65000000000001
vertex 53.0 -5.75000000000002 15.4
endloop
endfacet
facet normal -0.0 1.0 -0.0
outer loop
vertex 48.8507041555162 -5.74999999999999 5.65000000000001
vertex 53.0 -5.75000000000002 8.7085526165313e-015
vertex 48.1991378028648 -5.74999999999999 4.80086219713516
endloop
endfacet
facet normal -0.0 1.0 -0.0
outer loop
vertex 48.1991378028648 -5.74999999999999 4.80086219713516
vertex 53.0 -5.75000000000002 8.7085526165313e-015
vertex 47.35 -5.74999999999999 4.14929584448381
endloop
endfacet
facet normal -0.0 1.0 -0.0
outer loop
vertex 47.35 -5.74999999999999 4.14929584448381
vertex 53.0 -5.75000000000002 8.7085526165313e-015
vertex 46.3611580849203 -5.74999999999999 3.73970411221483
endloop
endfacet
facet normal -0.0 1.0 -0.0
outer loop
vertex 46.3611580849203 -5.74999999999999 3.73970411221483
vertex 53.0 -5.75000000000002 8.7085526165313e-015
vertex 20.0 -5.75000000000002 9.00645767614178e-015
endloop
endfacet
facet normal -0.0 1.0 -0.0
outer loop
vertex 46.3611580849203 -5.74999999999999 3.73970411221483
vertex 20.0 -5.75000000000002 9.00645767614178e-015
vertex 45.3 -5.74999999999999 3.6
endloop
endfacet
facet normal -0.0 1.0 -0.0
outer loop
vertex 53.0 -5.75000000000002 15.4
vertex 48.8507041555162 -5.74999999999999 5.65000000000001
vertex 49.2602958877852 -5.74999999999999 6.63884191507967
endloop
endfacet
facet normal -0.0 1.0 -0.0
outer loop
vertex 53.0 -5.75000000000002 15.4
vertex 49.2602958877852 -5.74999999999999 6.63884191507967
vertex 49.4 -5.74999999999999 7.7
endloop
endfacet
facet normal -0.0 1.0 -0.0
outer loop
vertex 53.0 -5.75000000000002 15.4
vertex 49.4 -5.74999999999999 7.7
vertex 49.2602958877852 -5.74999999999999 8.76115808492034
endloop
endfacet
facet normal -0.0 1.0 -0.0
outer loop
vertex 53.0 -5.75000000000002 15.4
vertex 49.2602958877852 -5.74999999999999 8.76115808492034
vertex 48.8507041555162 -5.74999999999999 9.75
endloop
endfacet
facet normal -0.0 1.0 -0.0
outer loop
vertex 53.0 -5.75000000000002 15.4
vertex 48.8507041555162 -5.74999999999999 9.75
vertex 48.1991378028648 -5.75 10.5991378028648
endloop
endfacet
facet normal -0.0 1.0 -0.0
outer loop
vertex 53.0 -5.75000000000002 15.4
vertex 48.1991378028648 -5.75 10.5991378028648
vertex 47.35 -5.75 11.2507041555162
endloop
endfacet
facet normal -0.0 1.0 -0.0
outer loop
vertex 53.0 -5.75000000000002 15.4
vertex 47.35 -5.75 11.2507041555162
vertex 46.3611580849203 -5.75 11.6602958877852
endloop
endfacet
facet normal -0.0 1.0 -0.0
outer loop
vertex 53.0 -5.75000000000002 15.4
vertex 46.3611580849203 -5.75 11.6602958877852
vertex 45.3 -5.75 11.8
endloop
endfacet
facet normal -0.0 1.0 -0.0
outer loop
vertex 53.0 -5.75000000000002 15.4
vertex 45.3 -5.75 11.8
vertex 20.0 -5.75000000000002 15.4
endloop
endfacet
facet normal 9.27620553469702e-016 -1.0 -3.38762207319066e-015
outer loop
vertex 53.0 -10.75 -2.70474689908634e-015
vertex 45.3 -10.75 3.6
vertex 15.0 -10.75 8.45989944764369e-015
endloop
endfacet
facet normal 9.27620553469702e-016 -1.0 -3.38762207319066e-015
outer loop
vertex 45.3 -10.75 3.6
vertex 53.0 -10.75 -2.70474689908634e-015
vertex 46.3611580849203 -10.75 3.73970411221482
endloop
endfacet
facet normal 9.27620553469702e-016 -1.0 -3.38762207319066e-015
outer loop
vertex 46.3611580849203 -10.75 3.73970411221482
vertex 53.0 -10.75 -2.70474689908634e-015
vertex 47.35 -10.75 4.1492958444838
endloop
endfacet
facet normal 9.27620553469702e-016 -1.0 -3.38762207319066e-015
outer loop
vertex 47.35 -10.75 4.1492958444838
vertex 53.0 -10.75 -2.70474689908634e-015
vertex 48.1991378028648 -10.75 4.80086219713515
endloop
endfacet
facet normal 9.27620553469702e-016 -1.0 -3.38762207319066e-015
outer loop
vertex 48.1991378028648 -10.75 4.80086219713515
vertex 53.0 -10.75 -2.70474689908634e-015
vertex 48.8507041555162 -10.75 5.65
endloop
endfacet
facet normal 9.27620553469702e-016 -1.0 -3.38762207319066e-015
outer loop
vertex 48.8507041555162 -10.75 5.65
vertex 53.0 -10.75 -2.70474689908634e-015
vertex 53.0 -10.75 15.4
endloop
endfacet
facet normal 9.27620553469702e-016 -1.0 -3.38762207319066e-015
outer loop
vertex 48.8507041555162 -10.75 5.65
vertex 53.0 -10.75 15.4
vertex 49.2602958877852 -10.75 6.63884191507966
endloop
endfacet
facet normal 9.27620553469702e-016 -1.0 -3.38762207319066e-015
outer loop
vertex 49.2602958877852 -10.75 6.63884191507966
vertex 53.0 -10.75 15.4
vertex 49.4 -10.75 7.7
endloop
endfacet
facet normal 9.27620553469702e-016 -1.0 -3.38762207319066e-015
outer loop
vertex 49.4 -10.75 7.7
vertex 53.0 -10.75 15.4
vertex 49.2602958877852 -10.75 8.76115808492033
endloop
endfacet
facet normal 9.27620553469702e-016 -1.0 -3.38762207319066e-015
outer loop
vertex 49.2602958877852 -10.75 8.76115808492033
vertex 53.0 -10.75 15.4
vertex 48.8507041555162 -10.75 9.75
endloop
endfacet
facet normal 9.27620553469702e-016 -1.0 -3.38762207319066e-015
outer loop
vertex 48.8507041555162 -10.75 9.75
vertex 53.0 -10.75 15.4
vertex 48.1991378028648 -10.75 10.5991378028648
endloop
endfacet
facet normal 9.27620553469702e-016 -1.0 -3.38762207319066e-015
outer loop
vertex 48.1991378028648 -10.75 10.5991378028648
vertex 53.0 -10.75 15.4
vertex 47.35 -10.75 11.2507041555162
endloop
endfacet
facet normal 9.27620553469702e-016 -1.0 -3.38762207319066e-015
outer loop
vertex 47.35 -10.75 11.2507041555162
vertex 53.0 -10.75 15.4
vertex 46.3611580849203 -10.75 11.6602958877852
endloop
endfacet
facet normal 9.27620553469702e-016 -1.0 -3.38762207319066e-015
outer loop
vertex 46.3611580849203 -10.75 11.6602958877852
vertex 53.0 -10.75 15.4
vertex 45.3 -10.75 11.8
endloop
endfacet
facet normal 9.27620553469702e-016 -1.0 -3.38762207319066e-015
outer loop
vertex 15.0 -10.75 8.45989944764369e-015
vertex 44.2388419150797 -10.75 3.73970411221482
vertex 15.0 -10.7500000000001 15.4
endloop
endfacet
facet normal 9.27620553469702e-016 -1.0 -3.38762207319066e-015
outer loop
vertex 44.2388419150797 -10.75 3.73970411221482
vertex 15.0 -10.75 8.45989944764369e-015
vertex 45.3 -10.75 3.6
endloop
endfacet
facet normal 9.27620553469702e-016 -1.0 -3.38762207319066e-015
outer loop
vertex 15.0 -10.7500000000001 15.4
vertex 44.2388419150797 -10.75 3.73970411221482
vertex 43.25 -10.75 4.1492958444838
endloop
endfacet
facet normal 9.27620553469702e-016 -1.0 -3.38762207319066e-015
outer loop
vertex 15.0 -10.7500000000001 15.4
vertex 43.25 -10.75 4.1492958444838
vertex 42.4008621971352 -10.75 4.80086219713515
endloop
endfacet
facet normal 9.27620553469702e-016 -1.0 -3.38762207319066e-015
outer loop
vertex 15.0 -10.7500000000001 15.4
vertex 42.4008621971352 -10.75 4.80086219713515
vertex 41.7492958444838 -10.75 5.65
endloop
endfacet
facet normal 9.27620553469702e-016 -1.0 -3.38762207319066e-015
outer loop
vertex 15.0 -10.7500000000001 15.4
vertex 41.7492958444838 -10.75 5.65
vertex 41.3397041122148 -10.75 6.63884191507966
endloop
endfacet
facet normal 9.27620553469702e-016 -1.0 -3.38762207319066e-015
outer loop
vertex 15.0 -10.7500000000001 15.4
vertex 41.3397041122148 -10.75 6.63884191507966
vertex 41.2 -10.75 7.69999999999999
endloop
endfacet
facet normal 9.27620553469702e-016 -1.0 -3.38762207319066e-015
outer loop
vertex 15.0 -10.7500000000001 15.4
vertex 41.2 -10.75 7.69999999999999
vertex 41.3397041122148 -10.75 8.76115808492033
endloop
endfacet
facet normal 9.27620553469702e-016 -1.0 -3.38762207319066e-015
outer loop
vertex 15.0 -10.7500000000001 15.4
vertex 41.3397041122148 -10.75 8.76115808492033
vertex 41.7492958444838 -10.75 9.74999999999999
endloop
endfacet
facet normal 9.27620553469702e-016 -1.0 -3.38762207319066e-015
outer loop
vertex 15.0 -10.7500000000001 15.4
vertex 41.7492958444838 -10.75 9.74999999999999
vertex 42.4008621971351 -10.75 10.5991378028648
endloop
endfacet
facet normal 9.27620553469702e-016 -1.0 -3.38762207319066e-015
outer loop
vertex 15.0 -10.7500000000001 15.4
vertex 42.4008621971351 -10.75 10.5991378028648
vertex 43.25 -10.75 11.2507041555162
endloop
endfacet
facet normal 9.27620553469702e-016 -1.0 -3.38762207319066e-015
outer loop
vertex 15.0 -10.7500000000001 15.4
vertex 43.25 -10.75 11.2507041555162
vertex 44.2388419150797 -10.75 11.6602958877852
endloop
endfacet
facet normal 9.27620553469702e-016 -1.0 -3.38762207319066e-015
outer loop
vertex 15.0 -10.7500000000001 15.4
vertex 44.2388419150797 -10.75 11.6602958877852
vertex 45.3 -10.75 11.8
endloop
endfacet
facet normal 9.27620553469702e-016 -1.0 -3.38762207319066e-015
outer loop
vertex 15.0 -10.7500000000001 15.4
vertex 45.3 -10.75 11.8
vertex 53.0 -10.75 15.4
endloop
endfacet
facet normal 1.0 -0.0 -0.0
outer loop
vertex 53.0 -10.75 -2.70474689908634e-015
vertex 53.0 -5.75000000000002 15.4
vertex 53.0 -10.75 15.4
endloop
endfacet
facet normal 1.0 -0.0 -0.0
outer loop
vertex 53.0 -5.75000000000002 15.4
vertex 53.0 -10.75 -2.70474689908634e-015
vertex 53.0 -5.75000000000002 8.7085526165313e-015
endloop
endfacet
facet normal 1.0 -0.0 -0.0
outer loop
vertex 53.0 31.25 6.47868388236998e-014
vertex 53.0 26.25 15.4000000000001
vertex 53.0 26.25 5.31218698926974e-014
endloop
endfacet
facet normal 1.0 -0.0 -0.0
outer loop
vertex 53.0 26.25 15.4000000000001
vertex 53.0 31.25 6.47868388236998e-014
vertex 53.0 31.25 15.4000000000001
endloop
endfacet
facet normal 0.0 -1.0 0.0
outer loop
vertex 53.0 26.25 5.31218698926974e-014
vertex 46.3611580849203 26.25 3.73970411221488
vertex 20.0 26.25 5.34197749523079e-014
endloop
endfacet
facet normal 0.0 -1.0 0.0
outer loop
vertex 46.3611580849203 26.25 3.73970411221488
vertex 53.0 26.25 5.31218698926974e-014
vertex 47.35 26.25 4.14929584448386
endloop
endfacet
facet normal 0.0 -1.0 0.0
outer loop
vertex 47.35 26.25 4.14929584448386
vertex 53.0 26.25 5.31218698926974e-014
vertex 48.1991378028648 26.25 4.80086219713522
endloop
endfacet
facet normal 0.0 -1.0 0.0
outer loop
vertex 48.1991378028648 26.25 4.80086219713522
vertex 53.0 26.25 5.31218698926974e-014
vertex 48.8507041555162 26.25 5.65000000000006
endloop
endfacet
facet normal 0.0 -1.0 0.0
outer loop
vertex 48.8507041555162 26.25 5.65000000000006
vertex 53.0 26.25 5.31218698926974e-014
vertex 53.0 26.25 15.4000000000001
endloop
endfacet
facet normal 0.0 -1.0 0.0
outer loop
vertex 20.0 26.25 5.34197749523079e-014
vertex 46.3611580849203 26.25 3.73970411221488
vertex 45.3 26.25 3.60000000000006
endloop
endfacet
facet normal 0.0 -1.0 0.0
outer loop
vertex 48.8507041555162 26.25 5.65000000000006
vertex 53.0 26.25 15.4000000000001
vertex 49.2602958877852 26.25 6.63884191507973
endloop
endfacet
facet normal 0.0 -1.0 0.0
outer loop
vertex 49.2602958877852 26.25 6.63884191507973
vertex 53.0 26.25 15.4000000000001
vertex 49.4 26.25 7.70000000000007
endloop
endfacet
facet normal 0.0 -1.0 0.0
outer loop
vertex 49.4 26.25 7.70000000000007
vertex 53.0 26.25 15.4000000000001
vertex 49.2602958877852 26.25 8.7611580849204
endloop
endfacet
facet normal 0.0 -1.0 0.0
outer loop
vertex 49.2602958877852 26.25 8.7611580849204
vertex 53.0 26.25 15.4000000000001
vertex 48.8507041555162 26.25 9.75000000000007
endloop
endfacet
facet normal 0.0 -1.0 0.0
outer loop
vertex 48.8507041555162 26.25 9.75000000000007
vertex 53.0 26.25 15.4000000000001
vertex 48.1991378028648 26.25 10.5991378028649
endloop
endfacet
facet normal 0.0 -1.0 0.0
outer loop
vertex 48.1991378028648 26.25 10.5991378028649
vertex 53.0 26.25 15.4000000000001
vertex 47.35 26.25 11.2507041555163
endloop
endfacet
facet normal 0.0 -1.0 0.0
outer loop
vertex 47.35 26.25 11.2507041555163
vertex 53.0 26.25 15.4000000000001
vertex 46.3611580849203 26.25 11.6602958877852
endloop
endfacet
facet normal 0.0 -1.0 0.0
outer loop
vertex 46.3611580849203 26.25 11.6602958877852
vertex 53.0 26.25 15.4000000000001
vertex 45.3 26.25 11.8000000000001
endloop
endfacet
facet normal 0.0 -1.0 0.0
outer loop
vertex 20.0 26.25 5.34197749523079e-014
vertex 43.25 26.25 4.14929584448387
vertex 20.0 26.25 15.4000000000001
endloop
endfacet
facet normal 0.0 -1.0 0.0
outer loop
vertex 43.25 26.25 4.14929584448387
vertex 20.0 26.25 5.34197749523079e-014
vertex 44.2388419150797 26.25 3.73970411221488
endloop
endfacet
facet normal 0.0 -1.0 0.0
outer loop
vertex 44.2388419150797 26.25 3.73970411221488
vertex 20.0 26.25 5.34197749523079e-014
vertex 45.3 26.25 3.60000000000006
endloop
endfacet
facet normal 0.0 -1.0 0.0
outer loop
vertex 20.0 26.25 15.4000000000001
vertex 43.25 26.25 4.14929584448387
vertex 42.4008621971352 26.25 4.80086219713522
endloop
endfacet
facet normal 0.0 -1.0 0.0
outer loop
vertex 20.0 26.25 15.4000000000001
vertex 42.4008621971352 26.25 4.80086219713522
vertex 41.7492958444838 26.25 5.65000000000006
endloop
endfacet
facet normal 0.0 -1.0 0.0
outer loop
vertex 20.0 26.25 15.4000000000001
vertex 41.7492958444838 26.25 5.65000000000006
vertex 41.3397041122148 26.25 6.63884191507973
endloop
endfacet
facet normal 0.0 -1.0 0.0
outer loop
vertex 20.0 26.25 15.4000000000001
vertex 41.3397041122148 26.25 6.63884191507973
vertex 41.2 26.25 7.70000000000007
endloop
endfacet
facet normal 0.0 -1.0 0.0
outer loop
vertex 20.0 26.25 15.4000000000001
vertex 41.2 26.25 7.70000000000007
vertex 41.3397041122148 26.25 8.7611580849204
endloop
endfacet
facet normal 0.0 -1.0 0.0
outer loop
vertex 20.0 26.25 15.4000000000001
vertex 41.3397041122148 26.25 8.7611580849204
vertex 41.7492958444838 26.25 9.75000000000007
endloop
endfacet
facet normal 0.0 -1.0 0.0
outer loop
vertex 20.0 26.25 15.4000000000001
vertex 41.7492958444838 26.25 9.75000000000007
vertex 42.4008621971352 26.25 10.5991378028649
endloop
endfacet
facet normal 0.0 -1.0 0.0
outer loop
vertex 20.0 26.25 15.4000000000001
vertex 42.4008621971352 26.25 10.5991378028649
vertex 43.25 26.25 11.2507041555163
endloop
endfacet
facet normal 0.0 -1.0 0.0
outer loop
vertex 20.0 26.25 15.4000000000001
vertex 43.25 26.25 11.2507041555163
vertex 44.2388419150797 26.25 11.6602958877852
endloop
endfacet
facet normal 0.0 -1.0 0.0
outer loop
vertex 20.0 26.25 15.4000000000001
vertex 44.2388419150797 26.25 11.6602958877852
vertex 45.3 26.25 11.8000000000001
endloop
endfacet
facet normal 0.0 -1.0 0.0
outer loop
vertex 20.0 26.25 15.4000000000001
vertex 45.3 26.25 11.8000000000001
vertex 53.0 26.25 15.4000000000001
endloop
endfacet
endsolid headdown_motor
