solid pivot
facet normal -1.4687325429937e-017 -1.1422243122684e-032 -1.0
outer loop
vertex 24.0 11.0 0.0
vertex 8.0 8.0 0.0
vertex 8.0 11.0 0.0
endloop
endfacet
facet normal -1.4687325429937e-017 -1.1422243122684e-032 -1.0
outer loop
vertex 8.0 8.0 0.0
vertex 24.0 11.0 0.0
vertex 14.375 6.81458256229943 2.8199664825479e-015
endloop
endfacet
facet normal -1.4687325429937e-017 -1.1422243122684e-032 -1.0
outer loop
vertex 8.0 8.0 0.0
vertex 14.375 6.81458256229943 2.8199664825479e-015
vertex 13.7019029611437 6.29809703885628 2.8199664825479e-015
endloop
endfacet
facet normal -1.4687325429937e-017 -1.1422243122684e-032 -1.0
outer loop
vertex 8.0 8.0 0.0
vertex 13.7019029611437 6.29809703885628 2.8199664825479e-015
vertex 13.1854174377006 5.625 2.8199664825479e-015
endloop
endfacet
facet normal -1.4687325429937e-017 -1.1422243122684e-032 -1.0
outer loop
vertex 8.0 8.0 0.0
vertex 13.1854174377006 5.625 2.8199664825479e-015
vertex 12.8607410645605 4.84116189658319 2.8199664825479e-015
endloop
endfacet
facet normal -1.4687325429937e-017 -1.1422243122684e-032 -1.0
outer loop
vertex 8.0 8.0 0.0
vertex 12.8607410645605 4.84116189658319 2.8199664825479e-015
vertex 12.75 4.0 2.8199664825479e-015
endloop
endfacet
facet normal -1.4687325429937e-017 -1.1422243122684e-032 -1.0
outer loop
vertex 14.375 6.81458256229943 2.8199664825479e-015
vertex 24.0 11.0 0.0
vertex 15.1588381034168 7.13925893543947 2.8199664825479e-015
endloop
endfacet
facet normal -1.4687325429937e-017 -1.1422243122684e-032 -1.0
outer loop
vertex 15.1588381034168 7.13925893543947 2.8199664825479e-015
vertex 24.0 11.0 0.0
vertex 16.0 7.25 2.8199664825479e-015
endloop
endfacet
facet normal -1.4687325429937e-017 -1.1422243122684e-032 -1.0
outer loop
vertex 16.0 7.25 2.8199664825479e-015
vertex 24.0 11.0 0.0
vertex 16.8411618965832 7.13925893543947 2.8199664825479e-015
endloop
endfacet
facet normal -1.4687325429937e-017 -1.1422243122684e-032 -1.0
outer loop
vertex 16.8411618965832 7.13925893543947 2.8199664825479e-015
vertex 24.0 11.0 0.0
vertex 17.625 6.81458256229943 2.8199664825479e-015
endloop
endfacet
facet normal -1.4687325429937e-017 -1.1422243122684e-032 -1.0
outer loop
vertex 17.625 6.81458256229943 2.8199664825479e-015
vertex 24.0 11.0 0.0
vertex 18.2980970388563 6.29809703885628 2.8199664825479e-015
endloop
endfacet
facet normal -1.4687325429937e-017 -1.1422243122684e-032 -1.0
outer loop
vertex 18.2980970388563 6.29809703885628 2.8199664825479e-015
vertex 24.0 11.0 0.0
vertex 18.8145825622994 5.625 2.8199664825479e-015
endloop
endfacet
facet normal -1.4687325429937e-017 -1.1422243122684e-032 -1.0
outer loop
vertex 18.8145825622994 5.625 2.8199664825479e-015
vertex 24.0 11.0 0.0
vertex 19.1392589354395 4.8411618965832 2.8199664825479e-015
endloop
endfacet
facet normal -1.4687325429937e-017 -1.1422243122684e-032 -1.0
outer loop
vertex 19.1392589354395 4.8411618965832 2.8199664825479e-015
vertex 24.0 11.0 0.0
vertex 19.25 4.0 2.8199664825479e-015
endloop
endfacet
facet normal -1.4687325429937e-017 -1.1422243122684e-032 -1.0
outer loop
vertex 19.25 4.0 2.8199664825479e-015
vertex 24.0 11.0 0.0
vertex 24.0 0.0 0.0
endloop
endfacet
facet normal -1.4687325429937e-017 -1.1422243122684e-032 -1.0
outer loop
vertex 24.0 0.0 0.0
vertex 24.0 11.0 0.0
vertex 24.0 8.0 0.0
endloop
endfacet
facet normal -1.4687325429937e-017 -1.1422243122684e-032 -1.0
outer loop
vertex 24.0 0.0 0.0
vertex 24.0 8.0 0.0
vertex 32.0 0.0 0.0
endloop
endfacet
facet normal -1.4687325429937e-017 -1.1422243122684e-032 -1.0
outer loop
vertex 32.0 0.0 0.0
vertex 24.0 8.0 0.0
vertex 32.0 8.0 0.0
endloop
endfacet
facet normal -1.4687325429937e-017 -1.1422243122684e-032 -1.0
outer loop
vertex 32.0 0.0 0.0
vertex 32.0 8.0 0.0
vertex 32.0 4.0 -7.04991620636974e-016
endloop
endfacet
facet normal -1.4687325429937e-017 -1.1422243122684e-032 -1.0
outer loop
vertex 8.0 8.0 0.0
vertex 0.0 4.0 7.04991620636974e-016
vertex 0.0 8.0 0.0
endloop
endfacet
facet normal -1.4687325429937e-017 -1.1422243122684e-032 -1.0
outer loop
vertex 0.0 4.0 7.04991620636974e-016
vertex 8.0 8.0 0.0
vertex 0.0 0.0 0.0
endloop
endfacet
facet normal -1.4687325429937e-017 -1.1422243122684e-032 -1.0
outer loop
vertex 0.0 0.0 0.0
vertex 8.0 8.0 0.0
vertex 8.0 0.0 0.0
endloop
endfacet
facet normal -1.4687325429937e-017 -1.1422243122684e-032 -1.0
outer loop
vertex 8.0 0.0 0.0
vertex 8.0 8.0 0.0
vertex 8.0 -3.0 0.0
endloop
endfacet
facet normal -1.4687325429937e-017 -1.1422243122684e-032 -1.0
outer loop
vertex 8.0 -3.0 0.0
vertex 8.0 8.0 0.0
vertex 13.7019029611437 1.70190296114372 2.8199664825479e-015
endloop
endfacet
facet normal -1.4687325429937e-017 -1.1422243122684e-032 -1.0
outer loop
vertex 8.0 -3.0 0.0
vertex 13.7019029611437 1.70190296114372 2.8199664825479e-015
vertex 14.375 1.18541743770058 2.8199664825479e-015
endloop
endfacet
facet normal -1.4687325429937e-017 -1.1422243122684e-032 -1.0
outer loop
vertex 8.0 -3.0 0.0
vertex 14.375 1.18541743770058 2.8199664825479e-015
vertex 24.0 -3.0 0.0
endloop
endfacet
facet normal -1.4687325429937e-017 -1.1422243122684e-032 -1.0
outer loop
vertex 13.7019029611437 1.70190296114372 2.8199664825479e-015
vertex 8.0 8.0 0.0
vertex 13.1854174377006 2.375 2.8199664825479e-015
endloop
endfacet
facet normal -1.4687325429937e-017 -1.1422243122684e-032 -1.0
outer loop
vertex 13.1854174377006 2.375 2.8199664825479e-015
vertex 8.0 8.0 0.0
vertex 12.8607410645605 3.15883810341681 2.8199664825479e-015
endloop
endfacet
facet normal -1.4687325429937e-017 -1.1422243122684e-032 -1.0
outer loop
vertex 12.8607410645605 3.15883810341681 2.8199664825479e-015
vertex 8.0 8.0 0.0
vertex 12.75 4.0 2.8199664825479e-015
endloop
endfacet
facet normal -1.4687325429937e-017 -1.1422243122684e-032 -1.0
outer loop
vertex 24.0 -3.0 0.0
vertex 14.375 1.18541743770058 2.8199664825479e-015
vertex 15.1588381034168 0.86074106456053 2.8199664825479e-015
endloop
endfacet
facet normal -1.4687325429937e-017 -1.1422243122684e-032 -1.0
outer loop
vertex 24.0 -3.0 0.0
vertex 15.1588381034168 0.86074106456053 2.8199664825479e-015
vertex 16.0 0.750000000000003 2.8199664825479e-015
endloop
endfacet
facet normal -1.4687325429937e-017 -1.1422243122684e-032 -1.0
outer loop
vertex 24.0 -3.0 0.0
vertex 16.0 0.750000000000003 2.8199664825479e-015
vertex 16.8411618965832 0.860741064560531 2.8199664825479e-015
endloop
endfacet
facet normal -1.4687325429937e-017 -1.1422243122684e-032 -1.0
outer loop
vertex 24.0 -3.0 0.0
vertex 16.8411618965832 0.860741064560531 2.8199664825479e-015
vertex 17.625 1.18541743770058 2.8199664825479e-015
endloop
endfacet
facet normal -1.4687325429937e-017 -1.1422243122684e-032 -1.0
outer loop
vertex 24.0 -3.0 0.0
vertex 17.625 1.18541743770058 2.8199664825479e-015
vertex 18.2980970388563 1.70190296114372 2.8199664825479e-015
endloop
endfacet
facet normal -1.4687325429937e-017 -1.1422243122684e-032 -1.0
outer loop
vertex 24.0 -3.0 0.0
vertex 18.2980970388563 1.70190296114372 2.8199664825479e-015
vertex 18.8145825622994 2.375 2.8199664825479e-015
endloop
endfacet
facet normal -1.4687325429937e-017 -1.1422243122684e-032 -1.0
outer loop
vertex 24.0 -3.0 0.0
vertex 18.8145825622994 2.375 2.8199664825479e-015
vertex 19.1392589354395 3.15883810341681 2.8199664825479e-015
endloop
endfacet
facet normal -1.4687325429937e-017 -1.1422243122684e-032 -1.0
outer loop
vertex 24.0 -3.0 0.0
vertex 19.1392589354395 3.15883810341681 2.8199664825479e-015
vertex 19.25 4.0 2.8199664825479e-015
endloop
endfacet
facet normal -1.4687325429937e-017 -1.1422243122684e-032 -1.0
outer loop
vertex 24.0 -3.0 0.0
vertex 19.25 4.0 2.8199664825479e-015
vertex 24.0 0.0 0.0
endloop
endfacet
facet normal -1.0 0.0 0.0
outer loop
vertex 0.0 8.0 8.0
vertex 0.0 5.03527618041008 7.86370330515627
vertex 0.0 4.0 8.0
endloop
endfacet
facet normal -1.0 0.0 0.0
outer loop
vertex 0.0 5.03527618041008 7.86370330515627
vertex 0.0 8.0 8.0
vertex 0.0 6.0 7.46410161513775
endloop
endfacet
facet normal -1.0 0.0 0.0
outer loop
vertex 0.0 6.0 7.46410161513775
vertex 0.0 8.0 8.0
vertex 0.0 6.82842712474619 6.82842712474619
endloop
endfacet
facet normal -1.0 0.0 0.0
outer loop
vertex 0.0 6.82842712474619 6.82842712474619
vertex 0.0 8.0 8.0
vertex 0.0 7.46410161513775 6.0
endloop
endfacet
facet normal -1.0 0.0 0.0
outer loop
vertex 0.0 7.46410161513775 6.0
vertex 0.0 8.0 8.0
vertex 0.0 7.86370330515627 5.03527618041008
endloop
endfacet
facet normal -1.0 0.0 0.0
outer loop
vertex 0.0 7.86370330515627 5.03527618041008
vertex 0.0 8.0 8.0
vertex 0.0 8.0 4.0
endloop
endfacet
facet normal -1.0 0.0 0.0
outer loop
vertex 0.0 5.03527618041008 0.136296694843728
vertex 0.0 8.0 0.0
vertex 0.0 4.0 7.04991620636974e-016
endloop
endfacet
facet normal -1.0 0.0 0.0
outer loop
vertex 0.0 8.0 0.0
vertex 0.0 5.03527618041008 0.136296694843728
vertex 0.0 6.0 0.535898384862246
endloop
endfacet
facet normal -1.0 0.0 0.0
outer loop
vertex 0.0 8.0 0.0
vertex 0.0 6.0 0.535898384862246
vertex 0.0 6.82842712474619 1.17157287525381
endloop
endfacet
facet normal -1.0 0.0 0.0
outer loop
vertex 0.0 8.0 0.0
vertex 0.0 6.82842712474619 1.17157287525381
vertex 0.0 7.46410161513775 2.0
endloop
endfacet
facet normal -1.0 0.0 0.0
outer loop
vertex 0.0 8.0 0.0
vertex 0.0 7.46410161513775 2.0
vertex 0.0 7.86370330515627 2.96472381958992
endloop
endfacet
facet normal -1.0 0.0 0.0
outer loop
vertex 0.0 8.0 0.0
vertex 0.0 7.86370330515627 2.96472381958992
vertex 0.0 8.0 4.0
endloop
endfacet
facet normal -1.0 0.0 0.0
outer loop
vertex 0.0 0.0 8.0
vertex 0.0 0.136296694843728 5.03527618041009
vertex 0.0 0.0 4.0
endloop
endfacet
facet normal -1.0 0.0 0.0
outer loop
vertex 0.0 0.136296694843728 5.03527618041009
vertex 0.0 0.0 8.0
vertex 0.0 0.535898384862247 6.0
endloop
endfacet
facet normal -1.0 0.0 0.0
outer loop
vertex 0.0 0.535898384862247 6.0
vertex 0.0 0.0 8.0
vertex 0.0 1.17157287525381 6.82842712474619
endloop
endfacet
facet normal -1.0 0.0 0.0
outer loop
vertex 0.0 1.17157287525381 6.82842712474619
vertex 0.0 0.0 8.0
vertex 0.0 2.0 7.46410161513776
endloop
endfacet
facet normal -1.0 0.0 0.0
outer loop
vertex 0.0 2.0 7.46410161513776
vertex 0.0 0.0 8.0
vertex 0.0 2.96472381958992 7.86370330515627
endloop
endfacet
facet normal -1.0 0.0 0.0
outer loop
vertex 0.0 2.96472381958992 7.86370330515627
vertex 0.0 0.0 8.0
vertex 0.0 4.0 8.0
endloop
endfacet
facet normal 1.0 -0.0 -0.0
outer loop
vertex 32.0 0.0 0.0
vertex 32.0 0.136296694843728 2.96472381958991
vertex 32.0 7.04991620636974e-016 4.0
endloop
endfacet
facet normal 1.0 -0.0 -0.0
outer loop
vertex 32.0 0.136296694843728 2.96472381958991
vertex 32.0 0.0 0.0
vertex 32.0 0.535898384862247 2.0
endloop
endfacet
facet normal 1.0 -0.0 -0.0
outer loop
vertex 32.0 0.535898384862247 2.0
vertex 32.0 0.0 0.0
vertex 32.0 1.17157287525381 1.17157287525381
endloop
endfacet
facet normal 1.0 -0.0 -0.0
outer loop
vertex 32.0 1.17157287525381 1.17157287525381
vertex 32.0 0.0 0.0
vertex 32.0 2.0 0.535898384862245
endloop
endfacet
facet normal 1.0 -0.0 -0.0
outer loop
vertex 32.0 2.0 0.535898384862245
vertex 32.0 0.0 0.0
vertex 32.0 2.96472381958992 0.136296694843726
endloop
endfacet
facet normal 1.0 -0.0 -0.0
outer loop
vertex 32.0 2.96472381958992 0.136296694843726
vertex 32.0 0.0 0.0
vertex 32.0 4.0 -7.04991620636974e-016
endloop
endfacet
facet normal 1.0 -0.0 -0.0
outer loop
vertex 32.0 5.03527618041008 7.86370330515627
vertex 32.0 8.0 8.0
vertex 32.0 4.0 8.0
endloop
endfacet
facet normal 1.0 -0.0 -0.0
outer loop
vertex 32.0 8.0 8.0
vertex 32.0 5.03527618041008 7.86370330515627
vertex 32.0 6.0 7.46410161513776
endloop
endfacet
facet normal 1.0 -0.0 -0.0
outer loop
vertex 32.0 8.0 8.0
vertex 32.0 6.0 7.46410161513776
vertex 32.0 6.82842712474619 6.82842712474619
endloop
endfacet
facet normal 1.0 -0.0 -0.0
outer loop
vertex 32.0 8.0 8.0
vertex 32.0 6.82842712474619 6.82842712474619
vertex 32.0 7.46410161513775 6.0
endloop
endfacet
facet normal 1.0 -0.0 -0.0
outer loop
vertex 32.0 8.0 8.0
vertex 32.0 7.46410161513775 6.0
vertex 32.0 7.86370330515627 5.03527618041009
endloop
endfacet
facet normal 1.0 -0.0 -0.0
outer loop
vertex 32.0 8.0 8.0
vertex 32.0 7.86370330515627 5.03527618041009
vertex 32.0 8.0 4.0
endloop
endfacet
facet normal 1.0 -0.0 -0.0
outer loop
vertex 32.0 0.0 8.0
vertex 32.0 2.96472381958991 7.86370330515627
vertex 32.0 4.0 8.0
endloop
endfacet
facet normal 1.0 -0.0 -0.0
outer loop
vertex 32.0 2.96472381958991 7.86370330515627
vertex 32.0 0.0 8.0
vertex 32.0 2.0 7.46410161513775
endloop
endfacet
facet normal 1.0 -0.0 -0.0
outer loop
vertex 32.0 2.0 7.46410161513775
vertex 32.0 0.0 8.0
vertex 32.0 1.17157287525381 6.82842712474619
endloop
endfacet
facet normal 1.0 -0.0 -0.0
outer loop
vertex 32.0 1.17157287525381 6.82842712474619
vertex 32.0 0.0 8.0
vertex 32.0 0.535898384862245 6.0
endloop
endfacet
facet normal 1.0 -0.0 -0.0
outer loop
vertex 32.0 0.535898384862245 6.0
vertex 32.0 0.0 8.0
vertex 32.0 0.136296694843727 5.03527618041008
endloop
endfacet
facet normal 1.0 -0.0 -0.0
outer loop
vertex 32.0 0.136296694843727 5.03527618041008
vertex 32.0 0.0 8.0
vertex 32.0 7.04991620636974e-016 4.0
endloop
endfacet
facet normal -1.0 0.0 0.0
outer loop
vertex 0.0 0.136296694843727 2.96472381958992
vertex 0.0 0.0 0.0
vertex 0.0 0.0 4.0
endloop
endfacet
facet normal -1.0 0.0 0.0
outer loop
vertex 0.0 0.0 0.0
vertex 0.0 0.136296694843727 2.96472381958992
vertex 0.0 0.535898384862245 2.0
endloop
endfacet
facet normal -1.0 0.0 0.0
outer loop
vertex 0.0 0.0 0.0
vertex 0.0 0.535898384862245 2.0
vertex 0.0 1.17157287525381 1.17157287525381
endloop
endfacet
facet normal -1.0 0.0 0.0
outer loop
vertex 0.0 0.0 0.0
vertex 0.0 1.17157287525381 1.17157287525381
vertex 0.0 2.0 0.535898384862246
endloop
endfacet
facet normal -1.0 0.0 0.0
outer loop
vertex 0.0 0.0 0.0
vertex 0.0 2.0 0.535898384862246
vertex 0.0 2.96472381958992 0.136296694843728
endloop
endfacet
facet normal -1.0 0.0 0.0
outer loop
vertex 0.0 0.0 0.0
vertex 0.0 2.96472381958992 0.136296694843728
vertex 0.0 4.0 7.04991620636974e-016
endloop
endfacet
facet normal -0.0 -0.0 1.0
outer loop
vertex 24.0 -3.0 8.0
vertex 8.0 0.0 8.0
vertex 8.0 -3.0 8.0
endloop
endfacet
facet normal -0.0 -0.0 1.0
outer loop
vertex 8.0 0.0 8.0
vertex 24.0 -3.0 8.0
vertex 14.375 1.18541743770058 8.0
endloop
endfacet
facet normal -0.0 -0.0 1.0
outer loop
vertex 8.0 0.0 8.0
vertex 14.375 1.18541743770058 8.0
vertex 13.7019029611437 1.70190296114372 8.0
endloop
endfacet
facet normal -0.0 -0.0 1.0
outer loop
vertex 8.0 0.0 8.0
vertex 13.7019029611437 1.70190296114372 8.0
vertex 8.0 8.0 8.0
endloop
endfacet
facet normal -0.0 -0.0 1.0
outer loop
vertex 8.0 8.0 8.0
vertex 13.7019029611437 1.70190296114372 8.0
vertex 13.1854174377006 2.375 8.0
endloop
endfacet
facet normal -0.0 -0.0 1.0
outer loop
vertex 8.0 8.0 8.0
vertex 13.1854174377006 2.375 8.0
vertex 8.0 11.0 8.0
endloop
endfacet
facet normal -0.0 -0.0 1.0
outer loop
vertex 8.0 11.0 8.0
vertex 13.1854174377006 2.375 8.0
vertex 12.8607410645605 3.15883810341681 8.0
endloop
endfacet
facet normal -0.0 -0.0 1.0
outer loop
vertex 8.0 11.0 8.0
vertex 12.8607410645605 3.15883810341681 8.0
vertex 12.75 4.0 8.0
endloop
endfacet
facet normal -0.0 -0.0 1.0
outer loop
vertex 14.375 1.18541743770058 8.0
vertex 24.0 -3.0 8.0
vertex 15.1588381034168 0.86074106456053 8.0
endloop
endfacet
facet normal -0.0 -0.0 1.0
outer loop
vertex 15.1588381034168 0.86074106456053 8.0
vertex 24.0 -3.0 8.0
vertex 16.0 0.750000000000003 8.0
endloop
endfacet
facet normal -0.0 -0.0 1.0
outer loop
vertex 16.0 0.750000000000003 8.0
vertex 24.0 -3.0 8.0
vertex 16.8411618965832 0.860741064560531 8.0
endloop
endfacet
facet normal -0.0 -0.0 1.0
outer loop
vertex 16.8411618965832 0.860741064560531 8.0
vertex 24.0 -3.0 8.0
vertex 17.625 1.18541743770058 8.0
endloop
endfacet
facet normal -0.0 -0.0 1.0
outer loop
vertex 17.625 1.18541743770058 8.0
vertex 24.0 -3.0 8.0
vertex 18.2980970388563 1.70190296114372 8.0
endloop
endfacet
facet normal -0.0 -0.0 1.0
outer loop
vertex 18.2980970388563 1.70190296114372 8.0
vertex 24.0 -3.0 8.0
vertex 18.8145825622994 2.375 8.0
endloop
endfacet
facet normal -0.0 -0.0 1.0
outer loop
vertex 18.8145825622994 2.375 8.0
vertex 24.0 -3.0 8.0
vertex 19.1392589354395 3.15883810341681 8.0
endloop
endfacet
facet normal -0.0 -0.0 1.0
outer loop
vertex 19.1392589354395 3.15883810341681 8.0
vertex 24.0 -3.0 8.0
vertex 19.25 4.0 8.0
endloop
endfacet
facet normal -0.0 -0.0 1.0
outer loop
vertex 32.0 0.0 8.0
vertex 24.0 8.0 8.0
vertex 24.0 0.0 8.0
endloop
endfacet
facet normal -0.0 -0.0 1.0
outer loop
vertex 24.0 8.0 8.0
vertex 32.0 0.0 8.0
vertex 32.0 8.0 8.0
endloop
endfacet
facet normal -0.0 -0.0 1.0
outer loop
vertex 32.0 8.0 8.0
vertex 32.0 0.0 8.0
vertex 32.0 4.0 8.0
endloop
endfacet
facet normal -0.0 -0.0 1.0
outer loop
vertex 8.0 11.0 8.0
vertex 14.375 6.81458256229943 8.0
vertex 24.0 11.0 8.0
endloop
endfacet
facet normal -0.0 -0.0 1.0
outer loop
vertex 14.375 6.81458256229943 8.0
vertex 8.0 11.0 8.0
vertex 13.7019029611437 6.29809703885628 8.0
endloop
endfacet
facet normal -0.0 -0.0 1.0
outer loop
vertex 13.7019029611437 6.29809703885628 8.0
vertex 8.0 11.0 8.0
vertex 13.1854174377006 5.625 8.0
endloop
endfacet
facet normal -0.0 -0.0 1.0
outer loop
vertex 13.1854174377006 5.625 8.0
vertex 8.0 11.0 8.0
vertex 12.8607410645605 4.84116189658319 8.0
endloop
endfacet
facet normal -0.0 -0.0 1.0
outer loop
vertex 12.8607410645605 4.84116189658319 8.0
vertex 8.0 11.0 8.0
vertex 12.75 4.0 8.0
endloop
endfacet
facet normal -0.0 -0.0 1.0
outer loop
vertex 24.0 11.0 8.0
vertex 14.375 6.81458256229943 8.0
vertex 15.1588381034168 7.13925893543947 8.0
endloop
endfacet
facet normal -0.0 -0.0 1.0
outer loop
vertex 24.0 11.0 8.0
vertex 15.1588381034168 7.13925893543947 8.0
vertex 16.0 7.25 8.0
endloop
endfacet
facet normal -0.0 -0.0 1.0
outer loop
vertex 24.0 11.0 8.0
vertex 16.0 7.25 8.0
vertex 16.8411618965832 7.13925893543947 8.0
endloop
endfacet
facet normal -0.0 -0.0 1.0
outer loop
vertex 24.0 11.0 8.0
vertex 16.8411618965832 7.13925893543947 8.0
vertex 17.625 6.81458256229943 8.0
endloop
endfacet
facet normal -0.0 -0.0 1.0
outer loop
vertex 24.0 11.0 8.0
vertex 17.625 6.81458256229943 8.0
vertex 18.2980970388563 6.29809703885628 8.0
endloop
endfacet
facet normal -0.0 -0.0 1.0
outer loop
vertex 24.0 11.0 8.0
vertex 18.2980970388563 6.29809703885628 8.0
vertex 18.8145825622994 5.625 8.0
endloop
endfacet
facet normal -0.0 -0.0 1.0
outer loop
vertex 24.0 11.0 8.0
vertex 18.8145825622994 5.625 8.0
vertex 19.1392589354395 4.8411618965832 8.0
endloop
endfacet
facet normal -0.0 -0.0 1.0
outer loop
vertex 24.0 11.0 8.0
vertex 19.1392589354395 4.8411618965832 8.0
vertex 19.25 4.0 8.0
endloop
endfacet
facet normal -0.0 -0.0 1.0
outer loop
vertex 24.0 11.0 8.0
vertex 19.25 4.0 8.0
vertex 24.0 0.0 8.0
endloop
endfacet
facet normal -0.0 -0.0 1.0
outer loop
vertex 24.0 0.0 8.0
vertex 19.25 4.0 8.0
vertex 24.0 -3.0 8.0
endloop
endfacet
facet normal -0.0 -0.0 1.0
outer loop
vertex 24.0 11.0 8.0
vertex 24.0 0.0 8.0
vertex 24.0 8.0 8.0
endloop
endfacet
facet normal -0.0 -0.0 1.0
outer loop
vertex 8.0 0.0 8.0
vertex 0.0 4.0 8.0
vertex 0.0 0.0 8.0
endloop
endfacet
facet normal -0.0 -0.0 1.0
outer loop
vertex 0.0 4.0 8.0
vertex 8.0 0.0 8.0
vertex 0.0 8.0 8.0
endloop
endfacet
facet normal -0.0 -0.0 1.0
outer loop
vertex 0.0 8.0 8.0
vertex 8.0 0.0 8.0
vertex 8.0 8.0 8.0
endloop
endfacet
facet normal 1.0 -0.0 -0.0
outer loop
vertex 32.0 8.0 0.0
vertex 32.0 5.03527618041008 0.136296694843726
vertex 32.0 4.0 -7.04991620636974e-016
endloop
endfacet
facet normal 1.0 -0.0 -0.0
outer loop
vertex 32.0 5.03527618041008 0.136296694843726
vertex 32.0 8.0 0.0
vertex 32.0 6.0 0.535898384862245
endloop
endfacet
facet normal 1.0 -0.0 -0.0
outer loop
vertex 32.0 6.0 0.535898384862245
vertex 32.0 8.0 0.0
vertex 32.0 6.82842712474619 1.17157287525381
endloop
endfacet
facet normal 1.0 -0.0 -0.0
outer loop
vertex 32.0 6.82842712474619 1.17157287525381
vertex 32.0 8.0 0.0
vertex 32.0 7.46410161513775 2.0
endloop
endfacet
facet normal 1.0 -0.0 -0.0
outer loop
vertex 32.0 7.46410161513775 2.0
vertex 32.0 8.0 0.0
vertex 32.0 7.86370330515627 2.96472381958992
endloop
endfacet
facet normal 1.0 -0.0 -0.0
outer loop
vertex 32.0 7.86370330515627 2.96472381958992
vertex 32.0 8.0 0.0
vertex 32.0 8.0 4.0
endloop
endfacet
facet normal -5.87493017197479e-017 1.0 -2.0627988642241e-032
outer loop
vertex 0.0 8.0 4.0
vertex 8.0 8.0 0.0
vertex 0.0 8.0 0.0
endloop
endfacet
facet normal -5.87493017197479e-017 1.0 -2.0627988642241e-032
outer loop
vertex 8.0 8.0 0.0
vertex 0.0 8.0 4.0
vertex 8.0 8.0 8.0
endloop
endfacet
facet normal -5.87493017197479e-017 1.0 -2.0627988642241e-032
outer loop
vertex 8.0 8.0 8.0
vertex 0.0 8.0 4.0
vertex 0.0 8.0 8.0
endloop
endfacet
facet normal 2.93746508598739e-017 -1.0 -2.06684356787944e-032
outer loop
vertex 32.0 7.04991620636974e-016 4.0
vertex 24.0 0.0 0.0
vertex 32.0 0.0 0.0
endloop
endfacet
facet normal 2.93746508598739e-017 -1.0 -2.06684356787944e-032
outer loop
vertex 24.0 0.0 0.0
vertex 32.0 7.04991620636974e-016 4.0
vertex 24.0 0.0 8.0
endloop
endfacet
facet normal 2.93746508598739e-017 -1.0 -2.06684356787944e-032
outer loop
vertex 24.0 0.0 8.0
vertex 32.0 7.04991620636974e-016 4.0
vertex 32.0 0.0 8.0
endloop
endfacet
facet normal -0.0 -0.923879532511287 -0.38268343236509
outer loop
vertex 0.0 0.136296694843727 2.96472381958992
vertex -2.5 0.535898384862245 2.0
vertex 0.0 0.535898384862245 2.0
endloop
endfacet
facet normal -0.0 -0.923879532511287 -0.38268343236509
outer loop
vertex -2.5 0.535898384862245 2.0
vertex 0.0 0.136296694843727 2.96472381958992
vertex -2.5 0.136296694843727 2.96472381958992
endloop
endfacet
facet normal -0.0 -0.793353340291235 -0.608761429008721
outer loop
vertex 0.0 0.535898384862245 2.0
vertex -2.5 1.17157287525381 1.17157287525381
vertex 0.0 1.17157287525381 1.17157287525381
endloop
endfacet
facet normal -0.0 -0.793353340291235 -0.608761429008721
outer loop
vertex -2.5 1.17157287525381 1.17157287525381
vertex 0.0 0.535898384862245 2.0
vertex -2.5 0.535898384862245 2.0
endloop
endfacet
facet normal -0.0 -0.608761429008721 -0.793353340291235
outer loop
vertex 0.0 2.0 0.535898384862246
vertex -2.5 1.17157287525381 1.17157287525381
vertex -2.5 2.0 0.535898384862246
endloop
endfacet
facet normal -0.0 -0.608761429008721 -0.793353340291235
outer loop
vertex -2.5 1.17157287525381 1.17157287525381
vertex 0.0 2.0 0.535898384862246
vertex 0.0 1.17157287525381 1.17157287525381
endloop
endfacet
facet normal -0.0 -0.38268343236509 -0.923879532511287
outer loop
vertex 0.0 2.96472381958992 0.136296694843728
vertex -2.5 2.0 0.535898384862246
vertex -2.5 2.96472381958992 0.136296694843728
endloop
endfacet
facet normal -0.0 -0.38268343236509 -0.923879532511287
outer loop
vertex -2.5 2.0 0.535898384862246
vertex 0.0 2.96472381958992 0.136296694843728
vertex 0.0 2.0 0.535898384862246
endloop
endfacet
facet normal -0.0 -0.130526192220052 -0.99144486137381
outer loop
vertex 0.0 4.0 7.04991620636974e-016
vertex -2.5 2.96472381958992 0.136296694843728
vertex -2.5 4.0 7.04991620636974e-016
endloop
endfacet
facet normal -0.0 -0.130526192220052 -0.99144486137381
outer loop
vertex -2.5 2.96472381958992 0.136296694843728
vertex 0.0 4.0 7.04991620636974e-016
vertex 0.0 2.96472381958992 0.136296694843728
endloop
endfacet
facet normal 0.0 0.382683432365091 0.923879532511286
outer loop
vertex 0.0 5.03527618041008 7.86370330515627
vertex -2.5 6.0 7.46410161513775
vertex -2.5 5.03527618041008 7.86370330515627
endloop
endfacet
facet normal 0.0 0.382683432365091 0.923879532511286
outer loop
vertex -2.5 6.0 7.46410161513775
vertex 0.0 5.03527618041008 7.86370330515627
vertex 0.0 6.0 7.46410161513775
endloop
endfacet
facet normal 0.0 0.130526192220053 0.99144486137381
outer loop
vertex 0.0 4.0 8.0
vertex -2.5 5.03527618041008 7.86370330515627
vertex -2.5 4.0 8.0
endloop
endfacet
facet normal 0.0 0.130526192220053 0.99144486137381
outer loop
vertex -2.5 5.03527618041008 7.86370330515627
vertex 0.0 4.0 8.0
vertex 0.0 5.03527618041008 7.86370330515627
endloop
endfacet
facet normal 0.0 -0.130526192220052 0.99144486137381
outer loop
vertex 0.0 2.96472381958992 7.86370330515627
vertex -2.5 4.0 8.0
vertex -2.5 2.96472381958992 7.86370330515627
endloop
endfacet
facet normal 0.0 -0.130526192220052 0.99144486137381
outer loop
vertex -2.5 4.0 8.0
vertex 0.0 2.96472381958992 7.86370330515627
vertex 0.0 4.0 8.0
endloop
endfacet
facet normal 0.0 -0.382683432365089 0.923879532511287
outer loop
vertex 0.0 2.0 7.46410161513776
vertex -2.5 2.96472381958992 7.86370330515627
vertex -2.5 2.0 7.46410161513776
endloop
endfacet
facet normal 0.0 -0.382683432365089 0.923879532511287
outer loop
vertex -2.5 2.96472381958992 7.86370330515627
vertex 0.0 2.0 7.46410161513776
vertex 0.0 2.96472381958992 7.86370330515627
endloop
endfacet
facet normal 0.0 -0.60876142900872 0.793353340291236
outer loop
vertex 0.0 1.17157287525381 6.82842712474619
vertex -2.5 2.0 7.46410161513776
vertex -2.5 1.17157287525381 6.82842712474619
endloop
endfacet
facet normal 0.0 -0.60876142900872 0.793353340291236
outer loop
vertex -2.5 2.0 7.46410161513776
vertex 0.0 1.17157287525381 6.82842712474619
vertex 0.0 2.0 7.46410161513776
endloop
endfacet
facet normal 0.0 -0.793353340291235 0.608761429008721
outer loop
vertex 0.0 1.17157287525381 6.82842712474619
vertex -2.5 0.535898384862247 6.0
vertex 0.0 0.535898384862247 6.0
endloop
endfacet
facet normal 0.0 -0.793353340291235 0.608761429008721
outer loop
vertex -2.5 0.535898384862247 6.0
vertex 0.0 1.17157287525381 6.82842712474619
vertex -2.5 1.17157287525381 6.82842712474619
endloop
endfacet
facet normal 0.0 -0.923879532511286 0.382683432365091
outer loop
vertex 0.0 0.535898384862247 6.0
vertex -2.5 0.136296694843728 5.03527618041009
vertex 0.0 0.136296694843728 5.03527618041009
endloop
endfacet
facet normal 0.0 -0.923879532511286 0.382683432365091
outer loop
vertex -2.5 0.136296694843728 5.03527618041009
vertex 0.0 0.535898384862247 6.0
vertex -2.5 0.535898384862247 6.0
endloop
endfacet
facet normal 0.0 -0.99144486137381 0.130526192220052
outer loop
vertex 0.0 0.136296694843728 5.03527618041009
vertex -2.5 0.0 4.0
vertex 0.0 0.0 4.0
endloop
endfacet
facet normal 0.0 -0.99144486137381 0.130526192220052
outer loop
vertex -2.5 0.0 4.0
vertex 0.0 0.136296694843728 5.03527618041009
vertex -2.5 0.136296694843728 5.03527618041009
endloop
endfacet
facet normal -0.0 -0.99144486137381 -0.130526192220052
outer loop
vertex 0.0 0.0 4.0
vertex -2.5 0.136296694843727 2.96472381958992
vertex 0.0 0.136296694843727 2.96472381958992
endloop
endfacet
facet normal -0.0 -0.99144486137381 -0.130526192220052
outer loop
vertex -2.5 0.136296694843727 2.96472381958992
vertex 0.0 0.0 4.0
vertex -2.5 0.0 4.0
endloop
endfacet
facet normal -1.0 0.0 0.0
outer loop
vertex -2.5 0.136296694843728 5.03527618041009
vertex -2.5 0.136296694843727 2.96472381958992
vertex -2.5 0.0 4.0
endloop
endfacet
facet normal -1.0 0.0 0.0
outer loop
vertex -2.5 0.136296694843727 2.96472381958992
vertex -2.5 0.136296694843728 5.03527618041009
vertex -2.5 0.535898384862245 2.0
endloop
endfacet
facet normal -1.0 0.0 0.0
outer loop
vertex -2.5 0.535898384862245 2.0
vertex -2.5 0.136296694843728 5.03527618041009
vertex -2.5 0.535898384862247 6.0
endloop
endfacet
facet normal -1.0 0.0 0.0
outer loop
vertex -2.5 0.535898384862245 2.0
vertex -2.5 0.535898384862247 6.0
vertex -2.5 1.17157287525381 1.17157287525381
endloop
endfacet
facet normal -1.0 0.0 0.0
outer loop
vertex -2.5 1.17157287525381 1.17157287525381
vertex -2.5 0.535898384862247 6.0
vertex -2.5 1.17157287525381 6.82842712474619
endloop
endfacet
facet normal -1.0 0.0 0.0
outer loop
vertex -2.5 1.17157287525381 1.17157287525381
vertex -2.5 1.17157287525381 6.82842712474619
vertex -2.5 2.0 0.535898384862246
endloop
endfacet
facet normal -1.0 0.0 0.0
outer loop
vertex -2.5 2.0 0.535898384862246
vertex -2.5 1.17157287525381 6.82842712474619
vertex -2.5 2.0 7.46410161513776
endloop
endfacet
facet normal -1.0 0.0 0.0
outer loop
vertex -2.5 2.0 0.535898384862246
vertex -2.5 2.0 7.46410161513776
vertex -2.5 2.96472381958992 0.136296694843728
endloop
endfacet
facet normal -1.0 0.0 0.0
outer loop
vertex -2.5 2.96472381958992 0.136296694843728
vertex -2.5 2.0 7.46410161513776
vertex -2.5 2.96472381958992 7.86370330515627
endloop
endfacet
facet normal -1.0 0.0 0.0
outer loop
vertex -2.5 2.96472381958992 0.136296694843728
vertex -2.5 2.96472381958992 7.86370330515627
vertex -2.5 4.0 7.04991620636974e-016
endloop
endfacet
facet normal -1.0 0.0 0.0
outer loop
vertex -2.5 4.0 7.04991620636974e-016
vertex -2.5 2.96472381958992 7.86370330515627
vertex -2.5 4.0 8.0
endloop
endfacet
facet normal -1.0 0.0 0.0
outer loop
vertex -2.5 4.0 7.04991620636974e-016
vertex -2.5 4.0 8.0
vertex -2.5 5.03527618041008 0.136296694843728
endloop
endfacet
facet normal -1.0 0.0 0.0
outer loop
vertex -2.5 5.03527618041008 0.136296694843728
vertex -2.5 4.0 8.0
vertex -2.5 5.03527618041008 7.86370330515627
endloop
endfacet
facet normal -1.0 0.0 0.0
outer loop
vertex -2.5 5.03527618041008 0.136296694843728
vertex -2.5 5.03527618041008 7.86370330515627
vertex -2.5 6.0 0.535898384862246
endloop
endfacet
facet normal -1.0 0.0 0.0
outer loop
vertex -2.5 6.0 0.535898384862246
vertex -2.5 5.03527618041008 7.86370330515627
vertex -2.5 6.0 7.46410161513775
endloop
endfacet
facet normal -1.0 0.0 0.0
outer loop
vertex -2.5 6.0 0.535898384862246
vertex -2.5 6.0 7.46410161513775
vertex -2.5 6.82842712474619 1.17157287525381
endloop
endfacet
facet normal -1.0 0.0 0.0
outer loop
vertex -2.5 6.82842712474619 1.17157287525381
vertex -2.5 6.0 7.46410161513775
vertex -2.5 6.82842712474619 6.82842712474619
endloop
endfacet
facet normal -1.0 0.0 0.0
outer loop
vertex -2.5 6.82842712474619 1.17157287525381
vertex -2.5 6.82842712474619 6.82842712474619
vertex -2.5 7.46410161513775 2.0
endloop
endfacet
facet normal -1.0 0.0 0.0
outer loop
vertex -2.5 7.46410161513775 2.0
vertex -2.5 6.82842712474619 6.82842712474619
vertex -2.5 7.46410161513775 6.0
endloop
endfacet
facet normal -1.0 0.0 0.0
outer loop
vertex -2.5 7.46410161513775 2.0
vertex -2.5 7.46410161513775 6.0
vertex -2.5 7.86370330515627 2.96472381958992
endloop
endfacet
facet normal -1.0 0.0 0.0
outer loop
vertex -2.5 7.86370330515627 2.96472381958992
vertex -2.5 7.46410161513775 6.0
vertex -2.5 7.86370330515627 5.03527618041008
endloop
endfacet
facet normal -1.0 0.0 0.0
outer loop
vertex -2.5 7.86370330515627 2.96472381958992
vertex -2.5 7.86370330515627 5.03527618041008
vertex -2.5 8.0 4.0
endloop
endfacet
facet normal 0.0 0.130526192220052 -0.99144486137381
outer loop
vertex 0.0 5.03527618041008 0.136296694843728
vertex -2.5 4.0 7.04991620636974e-016
vertex -2.5 5.03527618041008 0.136296694843728
endloop
endfacet
facet normal 0.0 0.130526192220052 -0.99144486137381
outer loop
vertex -2.5 4.0 7.04991620636974e-016
vertex 0.0 5.03527618041008 0.136296694843728
vertex 0.0 4.0 7.04991620636974e-016
endloop
endfacet
facet normal 0.0 0.38268343236509 -0.923879532511287
outer loop
vertex 0.0 6.0 0.535898384862246
vertex -2.5 5.03527618041008 0.136296694843728
vertex -2.5 6.0 0.535898384862246
endloop
endfacet
facet normal 0.0 0.38268343236509 -0.923879532511287
outer loop
vertex -2.5 5.03527618041008 0.136296694843728
vertex 0.0 6.0 0.535898384862246
vertex 0.0 5.03527618041008 0.136296694843728
endloop
endfacet
facet normal 0.0 0.60876142900872 -0.793353340291236
outer loop
vertex 0.0 6.82842712474619 1.17157287525381
vertex -2.5 6.0 0.535898384862246
vertex -2.5 6.82842712474619 1.17157287525381
endloop
endfacet
facet normal 0.0 0.60876142900872 -0.793353340291236
outer loop
vertex -2.5 6.0 0.535898384862246
vertex 0.0 6.82842712474619 1.17157287525381
vertex 0.0 6.0 0.535898384862246
endloop
endfacet
facet normal 0.0 0.793353340291235 -0.608761429008721
outer loop
vertex -2.5 7.46410161513775 2.0
vertex 0.0 6.82842712474619 1.17157287525381
vertex -2.5 6.82842712474619 1.17157287525381
endloop
endfacet
facet normal 0.0 0.793353340291235 -0.608761429008721
outer loop
vertex 0.0 6.82842712474619 1.17157287525381
vertex -2.5 7.46410161513775 2.0
vertex 0.0 7.46410161513775 2.0
endloop
endfacet
facet normal 0.0 0.923879532511287 -0.38268343236509
outer loop
vertex -2.5 7.86370330515627 2.96472381958992
vertex 0.0 7.46410161513775 2.0
vertex -2.5 7.46410161513775 2.0
endloop
endfacet
facet normal 0.0 0.923879532511287 -0.38268343236509
outer loop
vertex 0.0 7.46410161513775 2.0
vertex -2.5 7.86370330515627 2.96472381958992
vertex 0.0 7.86370330515627 2.96472381958992
endloop
endfacet
facet normal 0.0 0.99144486137381 -0.130526192220052
outer loop
vertex -2.5 8.0 4.0
vertex 0.0 7.86370330515627 2.96472381958992
vertex -2.5 7.86370330515627 2.96472381958992
endloop
endfacet
facet normal 0.0 0.99144486137381 -0.130526192220052
outer loop
vertex 0.0 7.86370330515627 2.96472381958992
vertex -2.5 8.0 4.0
vertex 0.0 8.0 4.0
endloop
endfacet
facet normal 0.0 0.991444861373811 0.130526192220051
outer loop
vertex -2.5 7.86370330515627 5.03527618041008
vertex 0.0 8.0 4.0
vertex -2.5 8.0 4.0
endloop
endfacet
facet normal 0.0 0.991444861373811 0.130526192220051
outer loop
vertex 0.0 8.0 4.0
vertex -2.5 7.86370330515627 5.03527618041008
vertex 0.0 7.86370330515627 5.03527618041008
endloop
endfacet
facet normal 0.0 0.923879532511287 0.38268343236509
outer loop
vertex -2.5 7.46410161513775 6.0
vertex 0.0 7.86370330515627 5.03527618041008
vertex -2.5 7.86370330515627 5.03527618041008
endloop
endfacet
facet normal 0.0 0.923879532511287 0.38268343236509
outer loop
vertex 0.0 7.86370330515627 5.03527618041008
vertex -2.5 7.46410161513775 6.0
vertex 0.0 7.46410161513775 6.0
endloop
endfacet
facet normal 0.0 0.793353340291235 0.608761429008721
outer loop
vertex -2.5 6.82842712474619 6.82842712474619
vertex 0.0 7.46410161513775 6.0
vertex -2.5 7.46410161513775 6.0
endloop
endfacet
facet normal 0.0 0.793353340291235 0.608761429008721
outer loop
vertex 0.0 7.46410161513775 6.0
vertex -2.5 6.82842712474619 6.82842712474619
vertex 0.0 6.82842712474619 6.82842712474619
endloop
endfacet
facet normal 0.0 0.608761429008721 0.793353340291235
outer loop
vertex 0.0 6.0 7.46410161513775
vertex -2.5 6.82842712474619 6.82842712474619
vertex -2.5 6.0 7.46410161513775
endloop
endfacet
facet normal 0.0 0.608761429008721 0.793353340291235
outer loop
vertex -2.5 6.82842712474619 6.82842712474619
vertex 0.0 6.0 7.46410161513775
vertex 0.0 6.82842712474619 6.82842712474619
endloop
endfacet
facet normal -0.0 -0.793353340291235 -0.608761429008721
outer loop
vertex 34.5 0.535898384862247 2.0
vertex 32.0 1.17157287525381 1.17157287525381
vertex 34.5 1.17157287525381 1.17157287525381
endloop
endfacet
facet normal -0.0 -0.793353340291235 -0.608761429008721
outer loop
vertex 32.0 1.17157287525381 1.17157287525381
vertex 34.5 0.535898384862247 2.0
vertex 32.0 0.535898384862247 2.0
endloop
endfacet
facet normal -0.0 -0.923879532511286 -0.38268343236509
outer loop
vertex 34.5 0.136296694843728 2.96472381958991
vertex 32.0 0.535898384862247 2.0
vertex 34.5 0.535898384862247 2.0
endloop
endfacet
facet normal -0.0 -0.923879532511286 -0.38268343236509
outer loop
vertex 32.0 0.535898384862247 2.0
vertex 34.5 0.136296694843728 2.96472381958991
vertex 32.0 0.136296694843728 2.96472381958991
endloop
endfacet
facet normal -0.0 -0.99144486137381 -0.130526192220052
outer loop
vertex 34.5 7.04991620636974e-016 4.0
vertex 32.0 0.136296694843728 2.96472381958991
vertex 34.5 0.136296694843728 2.96472381958991
endloop
endfacet
facet normal -0.0 -0.99144486137381 -0.130526192220052
outer loop
vertex 32.0 0.136296694843728 2.96472381958991
vertex 34.5 7.04991620636974e-016 4.0
vertex 32.0 7.04991620636974e-016 4.0
endloop
endfacet
facet normal 0.0 -0.99144486137381 0.130526192220051
outer loop
vertex 34.5 0.136296694843727 5.03527618041008
vertex 32.0 7.04991620636974e-016 4.0
vertex 34.5 7.04991620636974e-016 4.0
endloop
endfacet
facet normal 0.0 -0.99144486137381 0.130526192220051
outer loop
vertex 32.0 7.04991620636974e-016 4.0
vertex 34.5 0.136296694843727 5.03527618041008
vertex 32.0 0.136296694843727 5.03527618041008
endloop
endfacet
facet normal 0.0 -0.923879532511287 0.382683432365089
outer loop
vertex 34.5 0.535898384862245 6.0
vertex 32.0 0.136296694843727 5.03527618041008
vertex 34.5 0.136296694843727 5.03527618041008
endloop
endfacet
facet normal 0.0 -0.923879532511287 0.382683432365089
outer loop
vertex 32.0 0.136296694843727 5.03527618041008
vertex 34.5 0.535898384862245 6.0
vertex 32.0 0.535898384862245 6.0
endloop
endfacet
facet normal 0.0 -0.793353340291236 0.60876142900872
outer loop
vertex 34.5 1.17157287525381 6.82842712474619
vertex 32.0 0.535898384862245 6.0
vertex 34.5 0.535898384862245 6.0
endloop
endfacet
facet normal 0.0 -0.793353340291236 0.60876142900872
outer loop
vertex 32.0 0.535898384862245 6.0
vertex 34.5 1.17157287525381 6.82842712474619
vertex 32.0 1.17157287525381 6.82842712474619
endloop
endfacet
facet normal 0.0 -0.608761429008721 0.793353340291235
outer loop
vertex 34.5 1.17157287525381 6.82842712474619
vertex 32.0 2.0 7.46410161513775
vertex 32.0 1.17157287525381 6.82842712474619
endloop
endfacet
facet normal 0.0 -0.608761429008721 0.793353340291235
outer loop
vertex 32.0 2.0 7.46410161513775
vertex 34.5 1.17157287525381 6.82842712474619
vertex 34.5 2.0 7.46410161513775
endloop
endfacet
facet normal 0.0 0.382683432365089 0.923879532511287
outer loop
vertex 34.5 5.03527618041008 7.86370330515627
vertex 32.0 6.0 7.46410161513776
vertex 32.0 5.03527618041008 7.86370330515627
endloop
endfacet
facet normal 0.0 0.382683432365089 0.923879532511287
outer loop
vertex 32.0 6.0 7.46410161513776
vertex 34.5 5.03527618041008 7.86370330515627
vertex 34.5 6.0 7.46410161513776
endloop
endfacet
facet normal 0.0 0.130526192220052 0.99144486137381
outer loop
vertex 34.5 4.0 8.0
vertex 32.0 5.03527618041008 7.86370330515627
vertex 32.0 4.0 8.0
endloop
endfacet
facet normal 0.0 0.130526192220052 0.99144486137381
outer loop
vertex 32.0 5.03527618041008 7.86370330515627
vertex 34.5 4.0 8.0
vertex 34.5 5.03527618041008 7.86370330515627
endloop
endfacet
facet normal 0.0 0.793353340291235 0.608761429008721
outer loop
vertex 32.0 6.82842712474619 6.82842712474619
vertex 34.5 7.46410161513775 6.0
vertex 32.0 7.46410161513775 6.0
endloop
endfacet
facet normal 0.0 0.793353340291235 0.608761429008721
outer loop
vertex 34.5 7.46410161513775 6.0
vertex 32.0 6.82842712474619 6.82842712474619
vertex 34.5 6.82842712474619 6.82842712474619
endloop
endfacet
facet normal 0.0 0.130526192220052 -0.99144486137381
outer loop
vertex 34.5 5.03527618041008 0.136296694843726
vertex 32.0 4.0 -7.04991620636974e-016
vertex 32.0 5.03527618041008 0.136296694843726
endloop
endfacet
facet normal 0.0 0.130526192220052 -0.99144486137381
outer loop
vertex 32.0 4.0 -7.04991620636974e-016
vertex 34.5 5.03527618041008 0.136296694843726
vertex 34.5 4.0 -7.04991620636974e-016
endloop
endfacet
facet normal 0.0 0.923879532511287 -0.38268343236509
outer loop
vertex 32.0 7.86370330515627 2.96472381958992
vertex 34.5 7.46410161513775 2.0
vertex 32.0 7.46410161513775 2.0
endloop
endfacet
facet normal 0.0 0.923879532511287 -0.38268343236509
outer loop
vertex 34.5 7.46410161513775 2.0
vertex 32.0 7.86370330515627 2.96472381958992
vertex 34.5 7.86370330515627 2.96472381958992
endloop
endfacet
facet normal 0.0 0.793353340291236 -0.60876142900872
outer loop
vertex 32.0 7.46410161513775 2.0
vertex 34.5 6.82842712474619 1.17157287525381
vertex 32.0 6.82842712474619 1.17157287525381
endloop
endfacet
facet normal 0.0 0.793353340291236 -0.60876142900872
outer loop
vertex 34.5 6.82842712474619 1.17157287525381
vertex 32.0 7.46410161513775 2.0
vertex 34.5 7.46410161513775 2.0
endloop
endfacet
facet normal 0.0 0.608761429008721 -0.793353340291235
outer loop
vertex 34.5 6.82842712474619 1.17157287525381
vertex 32.0 6.0 0.535898384862245
vertex 32.0 6.82842712474619 1.17157287525381
endloop
endfacet
facet normal 0.0 0.608761429008721 -0.793353340291235
outer loop
vertex 32.0 6.0 0.535898384862245
vertex 34.5 6.82842712474619 1.17157287525381
vertex 34.5 6.0 0.535898384862245
endloop
endfacet
facet normal 0.0 0.60876142900872 0.793353340291236
outer loop
vertex 34.5 6.0 7.46410161513776
vertex 32.0 6.82842712474619 6.82842712474619
vertex 32.0 6.0 7.46410161513776
endloop
endfacet
facet normal 0.0 0.60876142900872 0.793353340291236
outer loop
vertex 32.0 6.82842712474619 6.82842712474619
vertex 34.5 6.0 7.46410161513776
vertex 34.5 6.82842712474619 6.82842712474619
endloop
endfacet
facet normal 0.0 0.38268343236509 -0.923879532511287
outer loop
vertex 34.5 6.0 0.535898384862245
vertex 32.0 5.03527618041008 0.136296694843726
vertex 32.0 6.0 0.535898384862245
endloop
endfacet
facet normal 0.0 0.38268343236509 -0.923879532511287
outer loop
vertex 32.0 5.03527618041008 0.136296694843726
vertex 34.5 6.0 0.535898384862245
vertex 34.5 5.03527618041008 0.136296694843726
endloop
endfacet
facet normal 0.0 -0.130526192220053 0.99144486137381
outer loop
vertex 34.5 2.96472381958991 7.86370330515627
vertex 32.0 4.0 8.0
vertex 32.0 2.96472381958991 7.86370330515627
endloop
endfacet
facet normal 0.0 -0.130526192220053 0.99144486137381
outer loop
vertex 32.0 4.0 8.0
vertex 34.5 2.96472381958991 7.86370330515627
vertex 34.5 4.0 8.0
endloop
endfacet
facet normal 0.0 -0.382683432365091 0.923879532511287
outer loop
vertex 34.5 2.0 7.46410161513775
vertex 32.0 2.96472381958991 7.86370330515627
vertex 32.0 2.0 7.46410161513775
endloop
endfacet
facet normal 0.0 -0.382683432365091 0.923879532511287
outer loop
vertex 32.0 2.96472381958991 7.86370330515627
vertex 34.5 2.0 7.46410161513775
vertex 34.5 2.96472381958991 7.86370330515627
endloop
endfacet
facet normal 0.0 0.923879532511287 0.38268343236509
outer loop
vertex 32.0 7.46410161513775 6.0
vertex 34.5 7.86370330515627 5.03527618041009
vertex 32.0 7.86370330515627 5.03527618041009
endloop
endfacet
facet normal 0.0 0.923879532511287 0.38268343236509
outer loop
vertex 34.5 7.86370330515627 5.03527618041009
vertex 32.0 7.46410161513775 6.0
vertex 34.5 7.46410161513775 6.0
endloop
endfacet
facet normal 0.0 0.99144486137381 0.130526192220053
outer loop
vertex 32.0 7.86370330515627 5.03527618041009
vertex 34.5 8.0 4.0
vertex 32.0 8.0 4.0
endloop
endfacet
facet normal 0.0 0.99144486137381 0.130526192220053
outer loop
vertex 34.5 8.0 4.0
vertex 32.0 7.86370330515627 5.03527618041009
vertex 34.5 7.86370330515627 5.03527618041009
endloop
endfacet
facet normal 0.0 0.99144486137381 -0.130526192220052
outer loop
vertex 32.0 8.0 4.0
vertex 34.5 7.86370330515627 2.96472381958992
vertex 32.0 7.86370330515627 2.96472381958992
endloop
endfacet
facet normal 0.0 0.99144486137381 -0.130526192220052
outer loop
vertex 34.5 7.86370330515627 2.96472381958992
vertex 32.0 8.0 4.0
vertex 34.5 8.0 4.0
endloop
endfacet
facet normal 1.0 0.0 0.0
outer loop
vertex 34.5 0.136296694843728 2.96472381958991
vertex 34.5 0.136296694843727 5.03527618041008
vertex 34.5 7.04991620636974e-016 4.0
endloop
endfacet
facet normal 1.0 0.0 0.0
outer loop
vertex 34.5 0.136296694843727 5.03527618041008
vertex 34.5 0.136296694843728 2.96472381958991
vertex 34.5 0.535898384862245 6.0
endloop
endfacet
facet normal 1.0 0.0 0.0
outer loop
vertex 34.5 0.535898384862245 6.0
vertex 34.5 0.136296694843728 2.96472381958991
vertex 34.5 0.535898384862247 2.0
endloop
endfacet
facet normal 1.0 0.0 0.0
outer loop
vertex 34.5 0.535898384862245 6.0
vertex 34.5 0.535898384862247 2.0
vertex 34.5 1.17157287525381 6.82842712474619
endloop
endfacet
facet normal 1.0 0.0 0.0
outer loop
vertex 34.5 1.17157287525381 6.82842712474619
vertex 34.5 0.535898384862247 2.0
vertex 34.5 1.17157287525381 1.17157287525381
endloop
endfacet
facet normal 1.0 0.0 0.0
outer loop
vertex 34.5 1.17157287525381 6.82842712474619
vertex 34.5 1.17157287525381 1.17157287525381
vertex 34.5 2.0 7.46410161513775
endloop
endfacet
facet normal 1.0 0.0 0.0
outer loop
vertex 34.5 2.0 7.46410161513775
vertex 34.5 1.17157287525381 1.17157287525381
vertex 34.5 2.0 0.535898384862245
endloop
endfacet
facet normal 1.0 0.0 0.0
outer loop
vertex 34.5 2.0 7.46410161513775
vertex 34.5 2.0 0.535898384862245
vertex 34.5 2.96472381958991 7.86370330515627
endloop
endfacet
facet normal 1.0 0.0 0.0
outer loop
vertex 34.5 2.96472381958991 7.86370330515627
vertex 34.5 2.0 0.535898384862245
vertex 34.5 2.96472381958992 0.136296694843726
endloop
endfacet
facet normal 1.0 0.0 0.0
outer loop
vertex 34.5 2.96472381958991 7.86370330515627
vertex 34.5 2.96472381958992 0.136296694843726
vertex 34.5 4.0 8.0
endloop
endfacet
facet normal 1.0 0.0 0.0
outer loop
vertex 34.5 4.0 8.0
vertex 34.5 2.96472381958992 0.136296694843726
vertex 34.5 4.0 -7.04991620636974e-016
endloop
endfacet
facet normal 1.0 0.0 0.0
outer loop
vertex 34.5 4.0 8.0
vertex 34.5 4.0 -7.04991620636974e-016
vertex 34.5 5.03527618041008 7.86370330515627
endloop
endfacet
facet normal 1.0 0.0 0.0
outer loop
vertex 34.5 5.03527618041008 7.86370330515627
vertex 34.5 4.0 -7.04991620636974e-016
vertex 34.5 5.03527618041008 0.136296694843726
endloop
endfacet
facet normal 1.0 0.0 0.0
outer loop
vertex 34.5 5.03527618041008 7.86370330515627
vertex 34.5 5.03527618041008 0.136296694843726
vertex 34.5 6.0 7.46410161513776
endloop
endfacet
facet normal 1.0 0.0 0.0
outer loop
vertex 34.5 6.0 7.46410161513776
vertex 34.5 5.03527618041008 0.136296694843726
vertex 34.5 6.0 0.535898384862245
endloop
endfacet
facet normal 1.0 0.0 0.0
outer loop
vertex 34.5 6.0 7.46410161513776
vertex 34.5 6.0 0.535898384862245
vertex 34.5 6.82842712474619 6.82842712474619
endloop
endfacet
facet normal 1.0 0.0 0.0
outer loop
vertex 34.5 6.82842712474619 6.82842712474619
vertex 34.5 6.0 0.535898384862245
vertex 34.5 6.82842712474619 1.17157287525381
endloop
endfacet
facet normal 1.0 0.0 0.0
outer loop
vertex 34.5 6.82842712474619 6.82842712474619
vertex 34.5 6.82842712474619 1.17157287525381
vertex 34.5 7.46410161513775 6.0
endloop
endfacet
facet normal 1.0 0.0 0.0
outer loop
vertex 34.5 7.46410161513775 6.0
vertex 34.5 6.82842712474619 1.17157287525381
vertex 34.5 7.46410161513775 2.0
endloop
endfacet
facet normal 1.0 0.0 0.0
outer loop
vertex 34.5 7.46410161513775 6.0
vertex 34.5 7.46410161513775 2.0
vertex 34.5 7.86370330515627 5.03527618041009
endloop
endfacet
facet normal 1.0 0.0 0.0
outer loop
vertex 34.5 7.86370330515627 5.03527618041009
vertex 34.5 7.46410161513775 2.0
vertex 34.5 7.86370330515627 2.96472381958992
endloop
endfacet
facet normal 1.0 0.0 0.0
outer loop
vertex 34.5 7.86370330515627 5.03527618041009
vertex 34.5 7.86370330515627 2.96472381958992
vertex 34.5 8.0 4.0
endloop
endfacet
facet normal -0.0 -0.130526192220052 -0.99144486137381
outer loop
vertex 34.5 4.0 -7.04991620636974e-016
vertex 32.0 2.96472381958992 0.136296694843726
vertex 32.0 4.0 -7.04991620636974e-016
endloop
endfacet
facet normal -0.0 -0.130526192220052 -0.99144486137381
outer loop
vertex 32.0 2.96472381958992 0.136296694843726
vertex 34.5 4.0 -7.04991620636974e-016
vertex 34.5 2.96472381958992 0.136296694843726
endloop
endfacet
facet normal -0.0 -0.38268343236509 -0.923879532511287
outer loop
vertex 34.5 2.96472381958992 0.136296694843726
vertex 32.0 2.0 0.535898384862245
vertex 32.0 2.96472381958992 0.136296694843726
endloop
endfacet
facet normal -0.0 -0.38268343236509 -0.923879532511287
outer loop
vertex 32.0 2.0 0.535898384862245
vertex 34.5 2.96472381958992 0.136296694843726
vertex 34.5 2.0 0.535898384862245
endloop
endfacet
facet normal -0.0 -0.60876142900872 -0.793353340291236
outer loop
vertex 34.5 2.0 0.535898384862245
vertex 32.0 1.17157287525381 1.17157287525381
vertex 32.0 2.0 0.535898384862245
endloop
endfacet
facet normal -0.0 -0.60876142900872 -0.793353340291236
outer loop
vertex 32.0 1.17157287525381 1.17157287525381
vertex 34.5 2.0 0.535898384862245
vertex 34.5 1.17157287525381 1.17157287525381
endloop
endfacet
facet normal -0.99144486137381 -0.130526192220053 -0.0
outer loop
vertex 19.1392589354395 4.8411618965832 8.0
vertex 19.25 4.0 2.8199664825479e-015
vertex 19.25 4.0 8.0
endloop
endfacet
facet normal -0.99144486137381 -0.130526192220053 -0.0
outer loop
vertex 19.25 4.0 2.8199664825479e-015
vertex 19.1392589354395 4.8411618965832 8.0
vertex 19.1392589354395 4.8411618965832 2.8199664825479e-015
endloop
endfacet
facet normal -0.608761429008721 -0.793353340291235 -0.0
outer loop
vertex 18.2980970388563 6.29809703885628 8.0
vertex 17.625 6.81458256229943 2.8199664825479e-015
vertex 18.2980970388563 6.29809703885628 2.8199664825479e-015
endloop
endfacet
facet normal -0.608761429008721 -0.793353340291235 -0.0
outer loop
vertex 17.625 6.81458256229943 2.8199664825479e-015
vertex 18.2980970388563 6.29809703885628 8.0
vertex 17.625 6.81458256229943 8.0
endloop
endfacet
facet normal -0.38268343236509 -0.923879532511287 -0.0
outer loop
vertex 17.625 6.81458256229943 8.0
vertex 16.8411618965832 7.13925893543947 2.8199664825479e-015
vertex 17.625 6.81458256229943 2.8199664825479e-015
endloop
endfacet
facet normal -0.38268343236509 -0.923879532511287 -0.0
outer loop
vertex 16.8411618965832 7.13925893543947 2.8199664825479e-015
vertex 17.625 6.81458256229943 8.0
vertex 16.8411618965832 7.13925893543947 8.0
endloop
endfacet
facet normal -0.793353340291235 -0.608761429008721 -0.0
outer loop
vertex 18.2980970388563 6.29809703885628 8.0
vertex 18.8145825622994 5.625 2.8199664825479e-015
vertex 18.8145825622994 5.625 8.0
endloop
endfacet
facet normal -0.793353340291235 -0.608761429008721 -0.0
outer loop
vertex 18.8145825622994 5.625 2.8199664825479e-015
vertex 18.2980970388563 6.29809703885628 8.0
vertex 18.2980970388563 6.29809703885628 2.8199664825479e-015
endloop
endfacet
facet normal -0.923879532511287 -0.382683432365088 -0.0
outer loop
vertex 18.8145825622994 5.625 8.0
vertex 19.1392589354395 4.8411618965832 2.8199664825479e-015
vertex 19.1392589354395 4.8411618965832 8.0
endloop
endfacet
facet normal -0.923879532511287 -0.382683432365088 -0.0
outer loop
vertex 19.1392589354395 4.8411618965832 2.8199664825479e-015
vertex 18.8145825622994 5.625 8.0
vertex 18.8145825622994 5.625 2.8199664825479e-015
endloop
endfacet
facet normal -0.991444861373811 0.13052619222005 -0.0
outer loop
vertex 19.25 4.0 8.0
vertex 19.1392589354395 3.15883810341681 2.8199664825479e-015
vertex 19.1392589354395 3.15883810341681 8.0
endloop
endfacet
facet normal -0.991444861373811 0.13052619222005 -0.0
outer loop
vertex 19.1392589354395 3.15883810341681 2.8199664825479e-015
vertex 19.25 4.0 8.0
vertex 19.25 4.0 2.8199664825479e-015
endloop
endfacet
facet normal -0.923879532511287 0.382683432365091 -0.0
outer loop
vertex 19.1392589354395 3.15883810341681 8.0
vertex 18.8145825622994 2.375 2.8199664825479e-015
vertex 18.8145825622994 2.375 8.0
endloop
endfacet
facet normal -0.923879532511287 0.382683432365091 -0.0
outer loop
vertex 18.8145825622994 2.375 2.8199664825479e-015
vertex 19.1392589354395 3.15883810341681 8.0
vertex 19.1392589354395 3.15883810341681 2.8199664825479e-015
endloop
endfacet
facet normal -0.793353340291235 0.60876142900872 -0.0
outer loop
vertex 18.8145825622994 2.375 8.0
vertex 18.2980970388563 1.70190296114372 2.8199664825479e-015
vertex 18.2980970388563 1.70190296114372 8.0
endloop
endfacet
facet normal -0.793353340291235 0.60876142900872 -0.0
outer loop
vertex 18.2980970388563 1.70190296114372 2.8199664825479e-015
vertex 18.8145825622994 2.375 8.0
vertex 18.8145825622994 2.375 2.8199664825479e-015
endloop
endfacet
facet normal -0.130526192220052 -0.99144486137381 -0.0
outer loop
vertex 16.8411618965832 7.13925893543947 8.0
vertex 16.0 7.25 2.8199664825479e-015
vertex 16.8411618965832 7.13925893543947 2.8199664825479e-015
endloop
endfacet
facet normal -0.130526192220052 -0.99144486137381 -0.0
outer loop
vertex 16.0 7.25 2.8199664825479e-015
vertex 16.8411618965832 7.13925893543947 8.0
vertex 16.0 7.25 8.0
endloop
endfacet
facet normal -0.382683432365091 0.923879532511286 -0.0
outer loop
vertex 16.8411618965832 0.860741064560531 8.0
vertex 17.625 1.18541743770058 2.8199664825479e-015
vertex 16.8411618965832 0.860741064560531 2.8199664825479e-015
endloop
endfacet
facet normal -0.382683432365091 0.923879532511286 -0.0
outer loop
vertex 17.625 1.18541743770058 2.8199664825479e-015
vertex 16.8411618965832 0.860741064560531 8.0
vertex 17.625 1.18541743770058 8.0
endloop
endfacet
facet normal -0.60876142900872 0.793353340291236 -0.0
outer loop
vertex 17.625 1.18541743770058 8.0
vertex 18.2980970388563 1.70190296114372 2.8199664825479e-015
vertex 17.625 1.18541743770058 2.8199664825479e-015
endloop
endfacet
facet normal -0.60876142900872 0.793353340291236 -0.0
outer loop
vertex 18.2980970388563 1.70190296114372 2.8199664825479e-015
vertex 17.625 1.18541743770058 8.0
vertex 18.2980970388563 1.70190296114372 8.0
endloop
endfacet
facet normal 0.130526192220051 0.99144486137381 0.0
outer loop
vertex 15.1588381034168 0.86074106456053 8.0
vertex 16.0 0.750000000000003 2.8199664825479e-015
vertex 15.1588381034168 0.86074106456053 2.8199664825479e-015
endloop
endfacet
facet normal 0.130526192220051 0.99144486137381 0.0
outer loop
vertex 16.0 0.750000000000003 2.8199664825479e-015
vertex 15.1588381034168 0.86074106456053 8.0
vertex 16.0 0.750000000000003 8.0
endloop
endfacet
facet normal -0.130526192220052 0.99144486137381 -0.0
outer loop
vertex 16.0 0.750000000000003 8.0
vertex 16.8411618965832 0.860741064560531 2.8199664825479e-015
vertex 16.0 0.750000000000003 2.8199664825479e-015
endloop
endfacet
facet normal -0.130526192220052 0.99144486137381 -0.0
outer loop
vertex 16.8411618965832 0.860741064560531 2.8199664825479e-015
vertex 16.0 0.750000000000003 8.0
vertex 16.8411618965832 0.860741064560531 8.0
endloop
endfacet
facet normal 0.608761429008722 -0.793353340291234 -0.0
outer loop
vertex 14.375 6.81458256229943 8.0
vertex 13.7019029611437 6.29809703885628 2.8199664825479e-015
vertex 14.375 6.81458256229943 2.8199664825479e-015
endloop
endfacet
facet normal 0.608761429008722 -0.793353340291234 -0.0
outer loop
vertex 13.7019029611437 6.29809703885628 2.8199664825479e-015
vertex 14.375 6.81458256229943 8.0
vertex 13.7019029611437 6.29809703885628 8.0
endloop
endfacet
facet normal -1.0 -0.0 -3.52495810318487e-016
outer loop
vertex 8.0 11.0 8.0
vertex 8.0 8.0 0.0
vertex 8.0 8.0 8.0
endloop
endfacet
facet normal -1.0 -0.0 -3.52495810318487e-016
outer loop
vertex 8.0 8.0 0.0
vertex 8.0 11.0 8.0
vertex 8.0 11.0 0.0
endloop
endfacet
facet normal 0.793353340291236 -0.60876142900872 -0.0
outer loop
vertex 13.7019029611437 6.29809703885628 2.8199664825479e-015
vertex 13.1854174377006 5.625 8.0
vertex 13.1854174377006 5.625 2.8199664825479e-015
endloop
endfacet
facet normal 0.793353340291236 -0.60876142900872 -0.0
outer loop
vertex 13.1854174377006 5.625 8.0
vertex 13.7019029611437 6.29809703885628 2.8199664825479e-015
vertex 13.7019029611437 6.29809703885628 8.0
endloop
endfacet
facet normal 0.923879532511287 -0.382683432365091 -0.0
outer loop
vertex 13.1854174377006 5.625 2.8199664825479e-015
vertex 12.8607410645605 4.84116189658319 8.0
vertex 12.8607410645605 4.84116189658319 2.8199664825479e-015
endloop
endfacet
facet normal 0.923879532511287 -0.382683432365091 -0.0
outer loop
vertex 12.8607410645605 4.84116189658319 8.0
vertex 13.1854174377006 5.625 2.8199664825479e-015
vertex 13.1854174377006 5.625 8.0
endloop
endfacet
facet normal 0.0 1.0 0.0
outer loop
vertex 8.0 11.0 8.0
vertex 24.0 11.0 0.0
vertex 8.0 11.0 0.0
endloop
endfacet
facet normal 0.0 1.0 0.0
outer loop
vertex 24.0 11.0 0.0
vertex 8.0 11.0 8.0
vertex 24.0 11.0 8.0
endloop
endfacet
facet normal 1.0 0.0 -3.52495810318487e-016
outer loop
vertex 24.0 0.0 0.0
vertex 24.0 -3.0 8.0
vertex 24.0 -3.0 0.0
endloop
endfacet
facet normal 1.0 0.0 -3.52495810318487e-016
outer loop
vertex 24.0 -3.0 8.0
vertex 24.0 0.0 0.0
vertex 24.0 0.0 8.0
endloop
endfacet
facet normal -0.0 1.0 -0.0
outer loop
vertex 24.0 8.0 8.0
vertex 32.0 8.0 0.0
vertex 24.0 8.0 0.0
endloop
endfacet
facet normal -0.0 1.0 -0.0
outer loop
vertex 32.0 8.0 0.0
vertex 24.0 8.0 8.0
vertex 32.0 8.0 4.0
endloop
endfacet
facet normal -0.0 1.0 -0.0
outer loop
vertex 32.0 8.0 4.0
vertex 24.0 8.0 8.0
vertex 32.0 8.0 8.0
endloop
endfacet
facet normal 0.99144486137381 -0.13052619222005 -0.0
outer loop
vertex 12.8607410645605 4.84116189658319 2.8199664825479e-015
vertex 12.75 4.0 8.0
vertex 12.75 4.0 2.8199664825479e-015
endloop
endfacet
facet normal 0.99144486137381 -0.13052619222005 -0.0
outer loop
vertex 12.75 4.0 8.0
vertex 12.8607410645605 4.84116189658319 2.8199664825479e-015
vertex 12.8607410645605 4.84116189658319 8.0
endloop
endfacet
facet normal 0.99144486137381 0.130526192220053 0.0
outer loop
vertex 12.75 4.0 2.8199664825479e-015
vertex 12.8607410645605 3.15883810341681 8.0
vertex 12.8607410645605 3.15883810341681 2.8199664825479e-015
endloop
endfacet
facet normal 0.99144486137381 0.130526192220053 0.0
outer loop
vertex 12.8607410645605 3.15883810341681 8.0
vertex 12.75 4.0 2.8199664825479e-015
vertex 12.75 4.0 8.0
endloop
endfacet
facet normal 0.923879532511287 0.382683432365088 0.0
outer loop
vertex 12.8607410645605 3.15883810341681 2.8199664825479e-015
vertex 13.1854174377006 2.375 8.0
vertex 13.1854174377006 2.375 2.8199664825479e-015
endloop
endfacet
facet normal 0.923879532511287 0.382683432365088 0.0
outer loop
vertex 13.1854174377006 2.375 8.0
vertex 12.8607410645605 3.15883810341681 2.8199664825479e-015
vertex 12.8607410645605 3.15883810341681 8.0
endloop
endfacet
facet normal -1.0 0.0 1.76247905159244e-016
outer loop
vertex 8.0 0.0 8.0
vertex 8.0 -3.0 0.0
vertex 8.0 -3.0 8.0
endloop
endfacet
facet normal -1.0 0.0 1.76247905159244e-016
outer loop
vertex 8.0 -3.0 0.0
vertex 8.0 0.0 8.0
vertex 8.0 0.0 0.0
endloop
endfacet
facet normal 0.0 -1.0 0.0
outer loop
vertex 24.0 -3.0 8.0
vertex 8.0 -3.0 0.0
vertex 24.0 -3.0 0.0
endloop
endfacet
facet normal 0.0 -1.0 0.0
outer loop
vertex 8.0 -3.0 0.0
vertex 24.0 -3.0 8.0
vertex 8.0 -3.0 8.0
endloop
endfacet
facet normal 0.793353340291234 0.608761429008723 0.0
outer loop
vertex 13.1854174377006 2.375 2.8199664825479e-015
vertex 13.7019029611437 1.70190296114372 8.0
vertex 13.7019029611437 1.70190296114372 2.8199664825479e-015
endloop
endfacet
facet normal 0.793353340291234 0.608761429008723 0.0
outer loop
vertex 13.7019029611437 1.70190296114372 8.0
vertex 13.1854174377006 2.375 2.8199664825479e-015
vertex 13.1854174377006 2.375 8.0
endloop
endfacet
facet normal 0.608761429008722 0.793353340291235 0.0
outer loop
vertex 13.7019029611437 1.70190296114372 8.0
vertex 14.375 1.18541743770058 2.8199664825479e-015
vertex 13.7019029611437 1.70190296114372 2.8199664825479e-015
endloop
endfacet
facet normal 0.608761429008722 0.793353340291235 0.0
outer loop
vertex 14.375 1.18541743770058 2.8199664825479e-015
vertex 13.7019029611437 1.70190296114372 8.0
vertex 14.375 1.18541743770058 8.0
endloop
endfacet
facet normal 0.382683432365089 0.923879532511287 0.0
outer loop
vertex 14.375 1.18541743770058 8.0
vertex 15.1588381034168 0.86074106456053 2.8199664825479e-015
vertex 14.375 1.18541743770058 2.8199664825479e-015
endloop
endfacet
facet normal 0.382683432365089 0.923879532511287 0.0
outer loop
vertex 15.1588381034168 0.86074106456053 2.8199664825479e-015
vertex 14.375 1.18541743770058 8.0
vertex 15.1588381034168 0.86074106456053 8.0
endloop
endfacet
facet normal 1.0 0.0 0.0
outer loop
vertex 24.0 11.0 0.0
vertex 24.0 8.0 8.0
vertex 24.0 8.0 0.0
endloop
endfacet
facet normal 1.0 0.0 0.0
outer loop
vertex 24.0 8.0 8.0
vertex 24.0 11.0 0.0
vertex 24.0 11.0 8.0
endloop
endfacet
facet normal 0.130526192220051 -0.99144486137381 -0.0
outer loop
vertex 16.0 7.25 8.0
vertex 15.1588381034168 7.13925893543947 2.8199664825479e-015
vertex 16.0 7.25 2.8199664825479e-015
endloop
endfacet
facet normal 0.130526192220051 -0.99144486137381 -0.0
outer loop
vertex 15.1588381034168 7.13925893543947 2.8199664825479e-015
vertex 16.0 7.25 8.0
vertex 15.1588381034168 7.13925893543947 8.0
endloop
endfacet
facet normal 0.0 -1.0 0.0
outer loop
vertex 8.0 0.0 8.0
vertex 0.0 0.0 0.0
vertex 8.0 0.0 0.0
endloop
endfacet
facet normal 0.0 -1.0 0.0
outer loop
vertex 0.0 0.0 0.0
vertex 8.0 0.0 8.0
vertex 0.0 0.0 4.0
endloop
endfacet
facet normal 0.0 -1.0 0.0
outer loop
vertex 0.0 0.0 4.0
vertex 8.0 0.0 8.0
vertex 0.0 0.0 8.0
endloop
endfacet
facet normal 0.382683432365091 -0.923879532511286 -0.0
outer loop
vertex 15.1588381034168 7.13925893543947 8.0
vertex 14.375 6.81458256229943 2.8199664825479e-015
vertex 15.1588381034168 7.13925893543947 2.8199664825479e-015
endloop
endfacet
facet normal 0.382683432365091 -0.923879532511286 -0.0
outer loop
vertex 14.375 6.81458256229943 2.8199664825479e-015
vertex 15.1588381034168 7.13925893543947 8.0
vertex 14.375 6.81458256229943 8.0
endloop
endfacet
endsolid pivot
